{"glyphs":{"0":{"ha":742,"x_min":31,"x_max":717,"o":"m 715 268 q 709 259 713 262 q 699 253 705 256 q 689 246 694 250 q 681 237 684 243 q 679 226 680 235 q 676 207 678 216 q 668 194 673 199 q 663 182 663 189 q 663 171 663 176 q 664 158 664 165 q 655 137 664 146 q 637 113 647 127 q 623 87 631 103 q 605 54 614 71 q 586 22 595 37 q 570 1 577 7 q 548 -10 562 -5 q 520 -19 534 -16 q 492 -24 505 -22 q 472 -26 479 -26 q 456 -26 465 -26 q 436 -24 448 -26 q 383 -21 411 -21 q 329 -18 355 -20 q 277 -11 302 -16 q 235 5 253 -6 q 218 21 227 11 q 202 43 210 31 q 185 67 194 55 q 165 87 176 79 q 145 103 156 96 q 124 117 134 110 q 104 131 114 123 q 89 147 95 138 q 77 176 81 157 q 62 216 72 195 q 48 244 54 233 q 39 264 43 255 q 33 283 35 273 q 31 307 31 293 q 33 347 31 327 q 38 388 35 368 q 44 427 41 408 q 46 464 46 446 l 46 494 q 50 529 46 514 q 59 556 54 543 q 70 581 64 568 q 79 607 75 593 q 84 635 83 620 q 89 667 85 651 q 99 715 92 688 q 115 768 106 743 q 131 813 123 793 q 144 838 138 832 q 153 843 148 842 q 163 845 157 844 q 175 847 169 846 q 187 851 181 848 q 208 865 197 856 q 230 883 219 873 q 253 901 241 892 q 278 916 265 910 q 304 923 288 920 q 337 930 319 927 q 375 934 355 932 q 412 936 394 936 q 461 928 445 936 q 488 905 478 920 q 505 872 498 891 q 526 829 512 852 q 545 807 534 818 q 564 782 555 795 q 571 766 569 774 q 578 749 572 757 q 593 727 584 736 q 607 710 603 718 q 618 678 614 696 q 629 644 623 660 q 638 622 634 632 q 645 602 642 612 q 651 579 648 591 q 659 550 654 567 q 667 531 661 541 q 676 513 674 522 q 681 466 682 490 q 685 422 680 442 q 694 394 689 406 q 705 369 700 382 q 713 339 709 355 q 717 298 716 323 q 716 279 717 288 q 715 268 715 270 m 465 306 q 467 313 467 309 q 467 321 467 317 q 464 365 467 342 q 461 410 461 389 l 461 460 q 458 506 461 485 q 451 545 455 526 q 443 579 447 563 q 436 611 439 595 q 429 665 431 636 q 421 719 427 694 q 401 760 415 743 q 361 777 388 777 q 317 769 335 777 q 286 749 298 762 q 267 719 274 736 q 256 684 260 702 q 238 615 248 652 q 219 539 229 578 q 204 464 210 501 q 197 395 197 427 q 203 362 197 384 q 216 318 208 340 q 231 277 224 296 q 243 254 239 259 q 260 246 248 250 q 288 240 272 242 q 321 236 304 237 q 355 235 339 235 q 429 249 401 235 q 465 306 457 263 z "},"1":{"ha":612,"x_min":21,"x_max":618,"o":"m 616 143 q 618 137 618 139 q 618 132 618 134 q 615 124 618 126 q 608 120 612 122 q 602 113 605 118 q 599 96 599 108 q 601 82 599 88 q 603 71 603 76 q 597 56 603 62 q 583 46 591 50 q 563 40 574 42 q 543 39 553 39 q 511 41 528 39 q 478 46 494 43 q 449 51 463 48 q 428 53 436 53 q 408 47 419 53 q 386 40 397 42 q 340 35 363 36 q 295 35 318 35 q 249 34 273 35 q 201 28 226 33 q 164 20 186 24 q 121 16 142 16 q 63 38 80 16 q 46 104 46 60 q 49 134 46 120 q 60 155 52 148 q 77 167 64 161 q 102 177 89 173 q 125 184 115 182 q 138 187 136 187 q 186 185 157 187 q 240 183 214 183 q 285 187 269 183 q 301 201 301 191 q 298 213 301 206 q 293 227 296 220 q 286 240 290 234 q 282 250 283 246 q 278 287 279 268 q 278 326 278 307 q 281 419 278 371 q 283 509 283 467 q 283 542 283 521 q 280 584 282 563 q 276 621 279 604 q 269 640 273 637 q 251 649 263 646 q 225 652 239 652 q 199 651 213 652 q 173 648 186 650 q 150 645 160 646 q 132 644 139 644 q 116 652 125 646 q 94 663 107 659 q 70 666 82 666 q 49 668 58 667 q 35 673 40 669 q 29 689 29 677 q 33 713 29 701 q 37 743 37 726 q 35 760 37 754 q 29 770 32 766 q 23 779 26 774 q 21 790 21 783 q 25 807 21 795 q 33 825 29 818 q 45 835 37 831 q 60 847 54 839 q 64 860 63 853 q 67 873 66 867 q 68 885 68 880 q 72 895 69 890 q 92 917 81 909 q 115 929 103 925 q 138 935 126 933 q 163 936 151 936 q 198 932 185 936 q 221 924 211 928 q 242 917 231 920 q 273 913 254 913 q 294 913 284 913 q 314 914 304 914 q 343 911 328 914 q 358 905 345 910 q 386 895 371 901 q 413 882 400 888 q 428 872 426 876 q 433 859 431 866 q 435 840 435 851 q 433 817 435 829 q 429 791 431 804 q 426 767 427 779 q 424 745 424 755 q 425 728 424 735 q 425 713 425 720 q 424 699 425 705 q 419 690 422 694 q 414 681 416 686 q 411 671 412 677 q 405 628 407 652 q 403 578 403 604 q 405 488 403 527 q 409 416 406 450 q 417 350 412 382 q 428 281 422 318 q 432 241 431 259 q 435 209 433 222 q 444 187 438 195 q 463 179 450 179 q 503 181 479 179 q 545 183 526 183 q 563 181 551 183 q 586 175 575 179 q 606 162 597 170 q 616 143 615 155 z "},"2":{"ha":710,"x_min":33,"x_max":697,"o":"m 697 151 q 692 127 697 141 q 688 97 688 113 q 690 59 688 77 q 693 29 693 41 q 677 3 693 14 q 641 -15 662 -8 q 596 -25 619 -22 q 559 -28 574 -28 q 540 -27 548 -28 q 524 -25 532 -26 q 508 -23 516 -24 q 490 -22 500 -22 q 452 -25 471 -22 q 415 -30 433 -27 q 379 -35 397 -33 q 345 -37 361 -37 q 276 -27 307 -34 q 221 -20 245 -20 q 192 -24 204 -20 q 165 -29 179 -29 q 160 -29 163 -29 q 155 -28 157 -29 q 141 -23 153 -28 q 117 -12 130 -18 q 93 0 104 -6 q 79 9 82 6 q 70 27 73 17 q 65 47 66 37 q 63 70 64 58 q 62 92 63 81 q 58 124 61 107 q 56 157 56 141 q 68 190 56 174 q 100 222 80 206 q 145 256 120 239 q 195 293 170 273 q 236 328 214 309 q 278 365 257 347 q 321 401 300 384 q 363 431 342 418 q 401 451 381 442 q 438 472 421 460 q 465 501 454 484 q 476 546 476 518 q 471 575 476 563 q 461 599 467 588 q 450 621 455 610 q 446 644 446 631 q 446 657 446 651 q 447 669 447 663 q 445 681 447 675 q 440 693 443 687 q 435 708 437 700 q 433 725 433 715 q 434 731 433 728 q 435 737 435 734 q 431 752 435 745 q 410 760 427 760 q 361 758 383 760 q 322 750 338 756 q 297 730 306 743 q 288 696 288 718 q 290 660 288 673 q 295 638 292 647 q 300 621 298 629 q 302 599 302 612 q 296 558 302 577 q 277 524 290 538 q 246 502 264 510 q 204 493 228 493 q 183 494 194 493 q 163 494 173 494 q 127 488 148 494 q 85 482 106 482 q 57 494 67 482 q 41 523 47 505 q 34 561 36 540 q 33 599 33 581 q 35 630 34 617 q 36 644 36 642 q 38 717 36 688 q 45 767 39 746 q 63 802 52 787 q 96 829 75 816 q 117 843 105 836 q 143 858 130 850 q 172 871 157 865 q 199 880 186 877 q 222 885 211 884 q 245 889 234 886 q 263 897 254 892 q 280 907 272 903 q 297 916 289 912 q 311 920 305 920 q 364 915 336 920 q 418 901 392 909 q 468 882 444 893 q 509 860 491 871 q 535 838 526 848 q 551 815 545 827 q 561 785 557 802 q 572 743 566 768 q 578 725 574 735 q 586 705 582 715 q 594 685 590 694 q 599 667 597 675 q 600 630 602 651 q 603 589 599 610 q 612 552 606 567 q 618 522 618 538 q 613 500 618 510 q 602 481 609 490 q 586 463 595 472 q 568 443 577 454 q 550 418 557 429 q 536 398 543 408 q 522 381 529 389 q 504 367 514 374 q 459 337 484 352 q 409 306 434 322 q 358 272 383 290 q 311 233 333 254 q 392 237 352 235 q 469 239 431 239 q 515 238 493 239 q 559 233 538 237 q 574 229 567 232 q 587 223 581 227 q 600 218 593 220 q 612 216 606 216 q 631 218 620 216 q 653 220 642 220 q 673 214 666 220 q 684 198 680 208 q 691 176 688 189 q 697 151 693 163 z "},"3":{"ha":675,"x_min":22,"x_max":636,"o":"m 636 285 q 633 270 636 277 q 627 255 631 262 q 621 239 623 248 q 618 221 618 231 q 622 194 618 206 q 627 171 627 181 q 616 122 627 142 q 589 89 606 102 q 547 68 571 75 q 494 57 523 60 q 446 48 473 54 q 390 38 418 43 q 335 29 362 33 q 285 25 307 25 q 233 29 263 25 q 174 42 203 33 q 119 65 144 52 q 82 100 94 79 q 78 111 80 104 q 74 127 76 119 q 72 145 73 136 q 71 161 71 155 q 76 193 71 178 q 91 219 81 208 q 115 238 100 231 q 147 245 129 245 q 163 241 152 245 q 186 230 174 236 q 212 217 199 223 q 232 207 224 210 q 249 203 240 203 q 262 199 257 202 q 279 189 271 195 q 294 177 286 182 q 313 168 302 172 q 339 164 323 164 q 362 167 351 164 q 386 170 374 170 q 413 168 401 170 q 437 165 426 165 q 463 171 452 165 q 480 184 473 176 q 489 201 486 192 q 492 220 492 211 q 481 269 492 251 q 452 297 470 288 q 411 311 434 307 q 365 316 389 315 q 318 321 340 318 q 277 332 295 323 q 248 355 259 340 q 237 399 237 371 q 252 438 237 426 q 290 454 267 450 q 338 460 312 459 q 387 467 364 461 q 424 486 409 472 q 439 530 439 500 q 436 549 439 538 q 429 572 433 559 q 422 600 425 585 q 419 629 419 614 l 419 652 q 418 668 419 656 q 414 695 416 680 q 406 727 411 710 q 395 757 401 743 q 379 780 388 771 q 358 789 370 789 q 328 783 336 789 q 317 765 319 778 q 316 729 315 751 q 314 675 317 707 q 309 637 312 652 q 304 604 306 622 q 305 588 304 595 q 306 574 306 581 q 303 546 306 557 q 294 527 301 534 q 272 516 286 519 q 232 513 257 513 q 203 517 218 513 q 172 521 188 521 q 152 519 162 521 q 134 514 142 517 q 117 510 125 512 q 102 509 109 508 q 83 513 91 509 q 69 529 76 517 q 58 544 66 536 q 42 562 50 552 q 28 583 35 571 q 22 610 22 595 q 26 638 22 623 q 31 667 31 653 q 31 715 31 691 q 33 762 31 739 q 40 805 35 785 q 57 843 45 826 q 71 854 61 849 q 86 868 80 860 q 98 886 94 878 q 111 901 101 895 q 140 913 120 908 q 203 924 161 919 q 248 931 224 926 q 292 942 271 937 q 333 950 314 947 q 366 954 352 954 q 388 952 372 954 q 421 948 404 951 q 455 941 438 945 q 481 932 471 937 q 502 916 491 926 q 524 899 512 906 q 551 883 537 889 q 571 872 566 878 q 593 828 585 859 q 608 760 602 798 q 615 677 613 721 q 618 593 618 633 q 607 495 618 536 q 567 431 596 454 q 551 422 562 427 q 530 413 541 418 q 511 404 519 409 q 503 396 503 399 q 512 390 503 395 q 533 379 522 385 q 553 370 544 374 q 562 367 563 366 q 593 351 580 357 q 615 338 606 345 q 629 318 624 330 q 636 285 634 306 z "},"4":{"ha":664,"x_min":12,"x_max":661,"o":"m 648 340 q 631 331 643 334 q 607 328 620 328 q 591 331 599 328 q 575 334 583 334 q 560 325 564 334 q 555 307 555 317 q 559 276 555 292 q 562 250 562 260 q 559 201 562 227 q 557 153 557 176 q 559 137 557 149 q 565 106 562 125 q 570 65 568 88 q 572 16 572 41 q 566 -17 572 -8 q 547 -25 559 -25 q 537 -24 543 -25 q 525 -24 531 -24 q 497 -28 508 -24 q 473 -32 486 -32 q 428 -26 446 -32 q 399 -8 410 -20 q 385 21 389 4 q 380 58 380 37 q 384 103 380 81 q 392 148 387 125 q 403 198 397 172 q 412 258 408 225 q 414 267 413 261 q 415 279 414 273 q 416 291 416 285 q 416 300 416 296 q 401 310 416 309 q 354 311 386 311 q 277 310 306 311 q 231 307 249 309 q 199 304 212 305 q 168 302 186 302 q 115 306 142 302 q 64 316 87 309 q 27 337 41 323 q 12 372 12 351 q 15 404 12 385 q 22 443 18 422 q 30 479 26 463 q 35 504 33 496 q 39 546 37 525 q 42 589 40 567 q 47 634 44 611 q 56 684 50 657 q 64 713 58 698 q 75 742 69 728 q 86 771 81 757 q 94 796 92 785 q 100 838 99 819 q 106 872 102 857 q 121 895 111 886 q 157 903 132 903 q 178 901 165 903 q 207 895 191 900 q 227 883 216 890 q 249 872 237 876 q 266 869 256 870 q 286 866 276 867 q 303 863 295 865 q 314 860 311 862 q 320 848 317 857 q 328 831 324 840 q 333 815 331 822 q 335 807 335 808 q 332 788 335 799 q 327 765 330 777 q 321 741 323 753 q 318 717 318 729 l 318 692 q 313 654 318 671 q 303 615 309 637 q 292 561 297 593 q 288 476 288 528 q 287 459 288 465 q 290 449 286 452 q 303 445 293 446 q 334 444 313 444 q 373 444 357 444 q 397 447 388 444 q 409 460 406 450 q 412 489 412 469 q 412 522 412 504 q 410 558 411 540 q 409 592 410 576 q 408 621 408 608 q 413 655 408 638 q 421 692 418 673 q 425 727 424 713 q 432 751 427 742 q 448 765 437 761 q 481 770 458 770 q 498 771 488 770 q 520 769 509 772 q 538 759 530 767 q 546 734 546 751 q 543 695 546 716 q 536 652 540 673 q 529 612 532 631 q 526 579 526 593 q 527 529 526 553 q 530 487 527 505 q 538 458 532 469 q 555 447 545 447 q 573 449 564 447 q 591 452 582 450 q 609 455 600 454 q 624 457 618 457 q 640 450 633 457 q 651 433 646 444 q 659 410 656 422 q 661 385 661 397 q 658 359 661 371 q 648 340 655 348 z "},"5":{"ha":679,"x_min":20,"x_max":642,"o":"m 639 182 q 628 130 635 153 q 608 90 621 108 q 575 56 595 71 q 526 28 555 41 q 514 25 521 24 q 501 24 507 26 q 482 14 491 20 q 465 3 473 8 q 447 -6 456 -2 q 428 -9 438 -9 q 370 -5 402 -9 q 309 1 338 0 q 290 -1 300 1 q 272 -3 279 -3 q 251 3 262 -3 q 227 9 239 8 q 193 13 212 12 q 154 17 174 15 q 116 21 134 18 q 85 28 98 23 q 60 42 72 33 q 39 61 48 51 q 25 79 31 71 q 20 92 20 88 q 33 147 20 126 q 71 168 45 168 q 95 165 82 168 q 121 159 108 163 q 146 150 134 155 q 171 143 159 146 q 204 135 186 139 q 240 127 222 131 q 275 121 258 123 q 304 119 292 119 q 346 130 330 119 q 373 159 363 140 q 386 204 382 178 q 390 264 390 231 q 388 281 389 268 q 385 308 387 294 q 379 336 383 323 q 368 353 375 349 q 352 356 364 355 q 325 358 340 357 q 290 359 309 359 q 254 360 271 359 q 223 361 237 360 q 201 363 209 361 q 155 379 173 366 q 127 422 136 392 q 75 437 88 422 q 61 478 61 452 q 65 523 61 498 q 73 574 68 547 q 81 630 77 602 q 85 686 85 659 q 84 731 85 708 q 83 777 83 755 q 85 811 83 795 q 93 838 87 827 q 100 843 95 841 q 107 851 105 846 q 113 876 113 866 q 115 889 112 886 q 137 902 123 899 q 167 905 150 905 q 225 900 194 905 q 283 895 256 895 q 307 897 296 895 q 329 899 319 899 q 355 894 342 897 q 380 889 368 890 q 412 891 393 889 q 453 897 431 894 q 499 903 475 900 q 543 905 522 905 q 578 903 565 905 q 598 894 591 901 q 609 872 606 886 q 616 833 613 858 q 620 809 618 823 q 623 779 621 795 q 626 748 625 764 q 627 718 627 732 q 625 694 627 710 q 616 662 623 677 q 593 634 608 646 q 551 623 578 623 q 522 623 538 623 q 492 624 507 624 q 452 623 472 624 q 414 623 433 623 q 350 624 379 623 q 286 625 321 625 q 249 627 267 625 q 217 621 231 628 q 194 592 203 613 q 186 526 186 571 q 195 518 186 522 q 218 513 203 515 q 250 510 233 511 q 285 509 268 509 q 318 509 302 509 q 343 509 334 509 q 358 507 351 507 q 371 507 365 507 q 404 508 389 507 q 435 509 420 509 q 469 504 454 509 q 501 494 484 498 q 528 490 515 491 q 552 487 541 488 q 572 482 563 485 q 587 473 581 479 q 607 443 598 463 q 621 397 615 422 q 631 343 627 372 q 637 290 635 315 q 641 245 640 265 q 642 216 642 226 q 641 201 642 209 q 639 182 640 193 z "},"6":{"ha":747,"x_min":46,"x_max":713,"o":"m 707 165 q 704 148 705 159 q 701 123 703 136 q 697 101 699 111 q 693 87 695 90 q 674 76 690 82 q 639 64 659 70 q 600 53 619 58 q 570 45 581 47 q 531 32 548 39 q 497 21 513 26 q 466 13 481 16 q 431 9 450 9 q 410 12 420 9 q 385 14 399 14 q 353 9 370 14 q 321 5 336 5 q 303 9 313 5 q 286 14 294 14 q 255 16 272 15 q 222 19 239 17 q 190 25 205 21 q 165 36 176 28 q 148 58 157 42 q 132 92 140 74 q 115 128 123 111 q 97 155 106 145 q 78 182 87 165 q 61 220 68 199 q 50 262 54 240 q 46 304 46 284 q 52 373 46 339 q 58 444 58 408 q 56 495 58 471 q 53 546 53 519 q 57 612 53 575 q 66 684 61 649 q 73 739 70 712 q 81 778 75 765 q 93 798 85 790 q 112 813 101 806 q 136 825 123 819 q 165 838 150 830 q 194 856 180 845 q 222 872 209 867 q 300 892 262 887 q 378 897 338 897 q 406 894 392 897 q 435 886 420 890 q 466 877 450 882 q 500 868 481 871 q 530 863 515 865 q 557 858 545 861 q 580 853 570 856 q 595 847 590 851 q 606 830 602 842 q 615 804 611 819 q 623 773 619 789 q 633 743 627 758 q 646 713 640 726 q 656 688 651 701 q 666 662 661 676 q 676 628 671 648 q 685 599 680 617 q 690 562 690 581 q 688 545 690 556 q 674 524 685 534 q 640 505 663 513 q 575 497 616 497 q 552 497 568 497 q 518 500 537 498 q 480 506 500 502 q 445 518 460 511 q 418 538 429 526 q 408 567 408 550 q 410 595 408 581 q 412 625 412 610 q 408 648 412 637 q 399 669 404 659 q 387 691 393 680 q 376 718 381 703 q 372 741 372 729 q 368 761 371 752 q 357 776 365 770 q 330 782 349 782 q 306 769 315 782 q 291 735 296 757 q 283 683 285 713 q 281 621 281 654 q 281 606 281 613 q 282 593 282 600 q 283 563 283 583 q 284 524 283 544 q 287 489 286 505 q 290 469 288 473 q 311 460 294 463 q 349 455 328 457 q 389 453 369 454 q 419 452 409 452 q 472 448 446 450 q 524 443 498 446 q 573 435 549 440 q 616 422 596 431 q 637 411 625 419 q 662 391 650 402 q 686 367 675 380 q 701 340 696 353 q 706 320 704 334 q 709 291 708 307 q 712 260 711 275 q 713 232 713 244 q 711 201 713 217 q 707 165 710 185 m 586 182 q 593 218 593 194 q 591 242 593 230 q 588 265 590 254 q 583 283 586 276 q 578 293 581 291 q 553 303 572 299 q 512 309 534 307 q 469 313 490 311 q 436 315 448 314 q 407 316 425 315 q 371 317 389 317 q 342 316 353 317 q 323 313 330 315 q 314 309 317 311 q 311 304 311 307 q 313 285 311 299 q 319 252 315 271 q 326 214 322 234 q 333 178 330 195 q 339 150 336 161 q 342 139 341 139 q 349 137 344 137 q 361 136 353 136 q 391 138 374 136 q 425 141 408 139 q 454 145 441 143 q 471 147 467 146 q 500 152 482 149 q 536 160 518 155 q 568 170 553 164 q 586 182 582 175 z "},"7":{"ha":615,"x_min":8,"x_max":619,"o":"m 619 722 q 614 711 618 716 q 605 701 610 707 q 594 689 600 696 q 585 675 589 683 q 580 657 581 667 q 576 640 580 648 q 569 630 572 634 q 562 623 565 627 q 557 615 559 620 q 555 603 555 611 q 549 572 555 589 q 534 537 543 555 q 516 498 526 518 q 498 457 506 477 q 486 425 493 440 q 472 393 479 409 q 460 360 466 377 q 452 323 454 342 q 449 303 450 313 q 448 281 448 292 q 447 260 448 271 q 443 241 446 250 q 428 208 439 227 q 406 168 417 188 q 385 129 394 147 q 376 97 376 110 l 376 86 q 370 65 376 78 q 353 40 363 52 q 334 19 344 28 q 318 9 324 9 q 291 15 307 9 q 262 29 276 21 q 239 45 248 37 q 229 58 229 54 q 239 127 229 96 q 262 195 250 158 q 271 230 268 212 q 281 264 274 247 q 295 289 285 277 q 310 315 304 302 q 318 341 315 327 q 328 371 321 356 q 342 402 334 388 q 350 435 350 416 l 350 447 q 354 467 350 458 q 364 481 358 475 q 376 495 370 488 q 387 513 382 503 q 397 548 395 529 q 403 585 400 566 q 410 620 406 603 q 427 650 415 637 q 389 641 409 644 q 347 639 369 639 q 301 640 326 639 q 252 642 277 642 q 205 639 227 642 q 164 633 184 636 q 127 627 145 629 q 93 624 110 624 q 66 629 81 624 q 39 643 52 633 q 18 665 26 652 q 9 694 9 677 q 14 726 9 707 q 18 761 18 745 q 13 806 18 786 q 9 843 8 826 q 12 857 10 852 q 15 863 13 861 q 19 868 17 865 q 22 876 21 870 q 25 898 26 888 q 31 916 24 909 q 54 926 38 922 q 90 932 70 930 q 133 935 111 935 q 176 936 156 936 l 273 936 l 400 936 l 439 936 l 472 936 q 520 935 503 936 q 547 926 536 933 q 566 904 557 919 q 589 860 574 888 q 593 842 591 852 q 595 821 594 832 q 597 799 596 810 q 602 778 599 788 q 613 745 607 760 q 619 722 619 730 z "},"8":{"ha":758,"x_min":35,"x_max":711,"o":"m 708 349 q 711 322 711 336 q 711 296 711 309 q 707 229 711 262 q 695 165 703 195 q 676 113 687 136 q 653 79 665 90 q 623 65 642 70 q 583 53 604 61 q 558 39 571 47 q 536 28 546 31 q 506 20 524 24 q 469 15 488 17 q 430 11 450 12 q 393 9 410 9 q 272 18 330 9 q 150 45 214 27 q 123 52 130 50 q 113 58 115 55 q 108 65 110 60 q 98 79 106 70 q 93 83 96 83 q 86 85 90 84 q 81 88 83 85 q 79 98 79 91 q 77 111 79 106 q 73 118 75 115 q 68 122 70 121 q 65 126 66 124 q 60 148 61 137 q 56 170 59 159 q 49 192 52 180 q 42 215 45 203 q 37 243 39 228 q 35 277 35 258 q 36 346 35 314 q 41 403 37 378 q 53 448 45 429 q 74 478 60 467 q 100 492 85 488 q 130 500 114 497 q 162 508 146 504 q 193 521 178 512 q 180 541 188 533 q 165 558 172 548 q 152 586 157 569 q 147 632 147 602 q 152 695 147 662 q 165 758 157 728 q 182 812 173 788 q 201 847 192 836 q 230 867 213 859 q 264 880 247 875 q 297 888 282 886 q 319 890 312 890 q 391 885 351 890 q 472 880 431 880 q 496 881 485 880 q 519 882 508 882 q 569 877 541 882 q 624 862 597 871 q 670 840 650 853 q 696 812 690 827 q 698 799 698 807 q 699 782 699 791 q 697 732 699 753 q 693 691 695 710 q 689 654 691 672 q 688 618 688 637 q 680 562 688 581 q 661 533 673 543 q 635 517 650 523 q 606 498 620 511 q 637 467 621 481 q 668 437 653 453 q 693 400 682 420 q 708 349 704 379 m 519 722 q 510 747 517 737 q 494 762 503 757 q 472 770 484 768 q 446 772 459 772 q 425 772 435 772 q 404 770 414 771 q 382 766 397 768 q 352 761 368 764 q 324 753 337 758 q 306 743 311 749 q 299 727 302 740 q 293 697 296 714 q 288 662 290 681 q 286 629 286 644 q 290 601 286 612 q 301 584 294 590 q 318 576 309 578 q 339 574 328 574 q 382 574 356 574 q 435 578 409 575 q 483 587 461 581 q 511 603 504 593 q 520 631 517 612 q 522 669 522 650 q 522 699 522 685 q 519 722 521 713 m 489 363 q 488 369 489 361 q 484 385 486 376 q 480 404 482 395 q 476 414 478 412 q 463 418 473 416 q 440 421 453 420 q 411 423 427 422 q 382 424 396 424 q 232 404 285 424 q 179 336 179 383 q 183 294 179 314 q 195 258 186 273 q 215 234 203 243 q 245 225 228 225 q 266 229 252 225 q 292 233 280 232 q 338 234 314 235 q 384 234 361 233 q 425 239 406 235 q 459 254 444 243 q 482 285 473 265 q 490 338 490 305 q 490 350 490 344 q 489 363 489 356 z "},"9":{"ha":807,"x_min":26,"x_max":771,"o":"m 770 332 q 759 303 767 319 q 740 273 751 288 q 717 243 729 258 q 696 218 705 229 q 680 200 686 207 q 675 195 674 194 q 655 185 665 187 q 636 178 644 184 q 604 144 616 161 q 585 113 593 127 q 572 84 578 98 q 555 61 566 71 q 537 47 549 54 q 512 36 525 41 q 489 27 500 31 q 473 24 478 24 q 455 26 465 24 q 432 33 444 29 q 407 39 420 36 q 379 45 393 43 q 335 50 362 46 q 276 60 308 54 q 212 72 245 65 q 152 87 180 79 q 103 104 123 96 q 75 122 82 113 q 70 131 73 123 q 62 149 66 139 q 56 168 58 158 q 53 183 53 178 q 54 197 53 190 q 54 212 54 205 q 52 227 54 220 q 46 239 50 233 q 41 251 43 245 q 39 265 39 257 q 39 276 39 271 q 40 288 40 282 q 38 305 40 297 q 33 321 36 313 q 28 337 31 329 q 26 353 26 345 q 42 401 26 385 q 86 424 58 418 q 155 430 115 430 q 244 429 195 429 q 279 427 263 429 q 301 418 295 425 q 308 402 305 414 q 312 377 311 390 q 315 352 314 363 q 315 336 315 340 q 310 313 314 326 q 302 286 307 300 q 294 257 297 272 q 290 229 290 243 q 293 213 290 221 q 299 198 295 205 q 311 186 304 191 q 328 182 318 182 q 349 185 335 182 q 377 192 363 188 q 402 199 391 195 q 414 203 412 202 q 425 218 421 209 q 430 238 428 227 q 433 262 431 249 q 439 289 435 275 q 449 307 442 299 q 457 323 455 314 q 464 370 462 347 q 469 413 467 393 q 475 452 471 434 q 486 482 478 470 q 425 485 454 482 q 371 488 397 488 q 345 484 355 488 q 325 476 334 481 q 308 469 317 472 q 289 465 300 465 q 265 471 277 465 q 241 483 253 477 q 218 495 230 490 q 192 501 205 501 q 140 515 163 501 q 100 550 117 528 q 73 601 83 572 q 64 660 64 629 q 79 739 64 696 q 97 770 85 755 q 114 800 109 785 q 121 827 119 814 q 127 851 123 840 q 136 871 130 862 q 151 889 141 881 q 167 898 159 896 q 184 902 175 901 q 207 903 194 903 q 237 907 219 904 q 257 912 248 908 q 277 916 266 916 q 318 911 295 916 q 366 903 341 907 q 418 895 391 899 q 471 890 445 890 q 507 891 490 890 q 542 892 525 892 q 596 889 571 892 q 640 876 621 886 q 672 847 659 867 q 696 805 686 827 q 711 765 706 783 q 715 742 715 747 q 719 713 715 728 q 728 682 723 698 q 740 647 734 665 q 749 607 745 628 q 756 561 752 585 q 762 515 761 536 q 762 494 762 505 q 761 472 761 483 q 763 440 761 456 q 766 407 764 423 q 769 377 768 391 q 771 350 771 362 q 771 340 771 345 q 770 332 771 336 m 504 619 q 496 654 498 636 q 490 692 494 673 q 475 735 484 719 q 449 762 465 752 q 407 774 432 771 q 345 778 381 778 q 327 777 336 778 q 307 777 317 777 q 270 780 290 777 q 237 783 250 783 q 224 772 230 783 q 215 746 219 761 q 209 714 211 730 q 207 689 207 699 q 215 642 207 661 q 238 614 224 624 q 272 600 252 604 q 314 596 292 596 q 362 599 337 596 q 412 606 387 602 q 460 614 437 610 q 504 619 484 618 z "}," ":{"ha":319,"x_min":0,"x_max":0,"o":""},"²":{"ha":387,"x_min":24,"x_max":353,"o":"m 347 836 q 340 792 347 810 q 320 760 332 774 q 293 734 308 746 q 261 711 277 723 q 229 685 245 699 q 201 652 214 671 q 233 655 218 652 q 263 661 249 658 q 290 668 277 665 q 313 671 302 671 q 329 668 321 671 q 341 658 336 665 q 350 638 347 651 q 353 606 353 625 q 349 559 353 576 q 337 532 346 541 q 311 520 328 523 q 268 517 294 517 q 224 518 242 517 q 196 519 205 519 l 146 519 q 97 521 117 519 q 65 532 77 522 q 46 565 52 543 q 40 629 40 587 q 41 650 40 644 q 49 663 43 657 q 68 678 55 669 q 103 704 81 686 q 110 712 109 707 q 115 721 111 718 q 137 731 125 727 q 158 742 149 734 q 189 766 173 753 q 216 792 204 779 q 236 815 229 804 q 244 831 244 825 q 238 848 244 843 q 221 852 231 852 q 186 845 203 852 q 153 828 169 837 q 122 811 137 819 q 93 803 107 803 q 71 811 77 803 q 64 829 64 819 q 64 838 64 833 q 65 848 65 843 q 59 865 65 857 q 44 883 52 873 q 30 902 37 892 q 24 924 24 912 q 35 949 24 939 q 61 966 45 960 q 93 978 76 973 q 123 986 111 982 q 157 998 143 992 q 191 1004 172 1004 q 222 1000 203 1004 q 248 992 231 998 q 283 979 265 986 q 316 965 301 972 q 335 953 331 958 q 339 933 337 949 q 343 899 341 918 q 346 862 345 880 q 347 836 347 844 z "},"¦":{"ha":325,"x_min":28,"x_max":289,"o":"m 241 1004 q 237 970 241 989 q 232 929 232 951 q 234 880 232 904 q 236 836 236 856 q 233 807 236 819 q 226 787 230 795 q 218 773 222 779 q 212 760 214 767 q 209 738 209 749 q 208 717 208 727 q 210 678 208 697 q 211 642 211 659 q 209 616 211 628 q 201 596 207 605 q 185 583 195 587 q 158 578 175 578 q 114 587 132 578 q 85 612 96 595 q 70 652 75 628 q 65 705 65 675 q 66 764 65 734 q 68 823 68 795 q 63 873 68 854 q 51 906 58 892 q 40 929 45 919 q 35 954 35 940 q 35 962 35 958 q 36 971 36 966 q 32 989 36 983 q 28 1004 28 995 q 37 1045 28 1032 q 62 1062 47 1057 q 95 1067 77 1066 q 131 1072 113 1067 q 150 1079 140 1074 q 170 1084 159 1084 q 197 1083 184 1084 q 219 1074 210 1082 q 235 1050 229 1067 q 241 1004 241 1034 m 285 82 q 288 48 286 68 q 289 5 289 27 q 288 -23 289 -9 q 282 -47 286 -37 q 272 -65 279 -58 q 254 -72 265 -72 q 236 -70 245 -72 q 216 -68 227 -68 q 185 -72 202 -70 q 153 -74 168 -74 q 120 -71 136 -74 q 94 -59 105 -67 q 76 -35 83 -50 q 69 5 69 -19 q 72 56 69 28 q 75 113 75 84 q 74 132 75 123 q 71 149 73 140 q 68 165 69 157 q 66 184 66 174 q 67 232 66 205 q 71 275 68 258 q 75 315 73 290 q 80 366 77 340 q 86 412 83 391 q 96 437 90 432 q 111 444 100 441 q 132 446 121 446 q 150 446 142 446 q 157 446 157 446 l 170 446 q 235 421 214 446 q 256 345 256 397 q 254 310 256 328 q 253 275 253 293 q 254 242 253 258 q 260 210 256 225 q 267 186 262 195 q 277 168 272 176 q 284 152 281 160 q 288 132 288 144 q 286 106 288 119 q 285 82 285 94 z "},"−":{"ha":724,"x_min":43,"x_max":672,"o":"m 672 479 q 672 457 672 469 q 669 435 671 445 q 660 418 666 425 q 642 411 654 411 q 620 413 632 411 q 594 417 608 415 q 569 422 581 420 q 547 424 557 424 q 522 418 535 422 q 495 408 509 414 q 467 396 481 402 q 436 385 452 389 q 375 372 409 376 q 307 363 340 368 q 231 350 269 356 q 158 345 193 345 q 116 350 136 345 q 79 364 95 355 q 53 387 62 374 q 43 418 43 401 q 49 452 43 435 q 58 488 55 469 q 60 511 60 498 q 62 536 61 524 q 66 561 63 549 q 75 578 69 572 q 109 592 85 588 q 156 597 132 596 q 203 597 181 598 q 233 596 225 596 q 275 595 252 596 q 321 594 298 595 q 369 592 345 593 q 414 590 392 591 q 466 585 440 589 q 509 582 491 582 q 537 588 525 582 q 564 595 550 595 q 624 589 603 595 q 655 569 645 583 q 668 533 665 555 q 672 479 671 511 z "},"×":{"ha":681,"x_min":31,"x_max":631,"o":"m 627 355 q 631 321 631 343 q 628 290 631 306 q 619 261 625 274 q 602 240 612 248 q 575 232 591 232 q 540 242 557 232 q 506 268 523 252 q 472 300 490 283 q 437 330 455 317 q 427 338 436 332 q 408 351 418 344 q 387 364 397 358 q 374 370 376 370 q 355 358 366 369 q 334 333 344 347 q 315 304 323 318 q 301 283 306 290 q 283 257 294 273 q 258 224 272 240 q 227 196 243 208 q 192 184 210 184 q 169 191 176 184 q 158 204 161 197 q 151 218 154 212 q 142 224 149 224 q 135 223 138 224 q 126 222 131 222 q 97 232 114 222 q 66 255 81 241 q 41 286 51 269 q 31 318 31 302 q 40 339 31 326 q 62 367 50 353 q 89 393 75 380 q 109 412 102 406 q 142 442 122 427 q 180 472 161 458 q 211 498 198 486 q 224 517 224 510 q 222 523 224 521 q 217 526 220 524 q 211 529 214 527 q 203 536 207 531 q 187 558 195 546 q 171 582 179 571 q 155 601 163 593 q 138 610 146 609 q 130 609 134 610 q 123 608 127 608 q 111 613 117 608 q 98 626 104 618 q 89 645 92 634 q 85 669 85 656 q 93 696 85 682 q 113 723 101 711 q 139 743 125 735 q 165 751 153 751 q 190 746 178 751 q 214 732 202 740 q 236 714 226 724 q 254 699 246 705 q 267 687 256 697 q 289 665 277 677 q 313 644 301 654 q 330 635 325 635 q 347 641 342 635 q 354 653 351 646 q 358 669 356 661 q 366 686 359 678 q 373 693 368 689 q 387 701 379 696 q 404 711 395 705 q 421 725 413 717 q 436 742 431 734 q 448 755 442 749 q 464 765 454 762 q 490 768 473 768 q 517 759 497 768 q 557 735 536 750 q 595 703 578 721 q 611 667 611 684 q 607 649 611 661 q 598 625 604 637 q 587 603 593 613 q 579 587 582 592 q 560 566 572 577 q 536 543 548 554 q 516 521 525 532 q 507 501 507 510 q 514 484 507 492 q 531 467 522 475 q 552 451 541 459 q 571 433 563 443 q 583 419 574 429 q 600 398 591 410 q 617 375 609 387 q 627 355 625 363 z "},"!":{"ha":383,"x_min":25,"x_max":357,"o":"m 357 864 l 357 861 q 351 814 357 844 q 346 743 346 783 q 345 697 346 720 q 340 654 344 674 q 335 637 339 644 q 326 623 331 629 q 317 609 321 616 q 310 595 313 602 q 306 580 308 589 q 303 562 304 571 q 302 543 302 552 q 301 525 301 533 q 302 508 301 517 q 302 489 302 498 q 300 474 302 481 q 296 462 298 468 q 291 451 293 456 q 289 437 289 445 q 291 424 289 431 q 293 410 293 416 q 288 383 293 397 q 281 354 282 369 q 276 307 277 328 q 266 272 275 286 q 235 249 256 257 q 172 241 214 241 q 137 245 151 241 q 115 255 123 249 q 104 269 107 261 q 102 285 102 277 q 105 310 102 297 q 109 336 109 323 q 106 356 109 346 q 104 379 104 367 q 106 414 104 396 q 107 450 107 433 q 105 483 107 467 q 96 513 102 499 q 83 529 90 523 q 69 543 76 535 q 58 564 62 551 q 53 602 53 577 l 53 642 l 53 667 q 47 701 52 680 q 38 746 43 722 q 29 796 33 770 q 25 846 25 822 q 28 881 25 865 q 40 907 32 897 q 55 916 45 913 q 78 929 64 919 q 98 947 91 939 q 113 961 105 956 q 133 970 121 967 q 168 974 145 974 q 187 971 179 974 q 201 965 195 969 q 216 958 208 962 q 233 950 223 954 q 256 943 244 946 q 279 939 268 941 q 298 936 290 937 q 310 933 306 935 q 325 923 317 930 q 339 906 332 916 q 351 886 346 897 q 357 864 355 875 m 322 -7 q 308 -21 321 -10 q 280 -44 295 -32 q 252 -65 264 -56 q 237 -75 239 -75 q 225 -78 231 -77 q 212 -78 219 -78 q 184 -75 199 -78 q 157 -67 170 -72 q 131 -55 143 -62 q 109 -40 119 -48 q 96 -31 104 -38 q 80 -14 88 -23 q 67 4 73 -5 q 61 18 61 14 q 61 43 61 27 q 63 76 62 59 q 65 105 64 92 q 69 122 67 119 q 82 132 73 128 q 104 138 92 136 q 130 143 116 140 q 160 149 144 145 q 177 154 170 151 q 191 159 184 157 q 206 163 198 161 q 224 165 214 165 q 249 156 231 165 q 284 130 266 147 q 315 85 302 112 q 329 24 329 58 q 322 -7 329 7 z "},"#":{"ha":701,"x_min":28,"x_max":661,"o":"m 654 596 q 644 555 650 577 q 630 514 639 533 q 607 483 621 496 q 571 471 593 471 q 542 475 554 471 q 519 479 529 479 q 505 471 510 479 q 500 440 500 463 q 507 411 500 418 q 525 403 513 403 q 542 405 533 403 q 561 410 551 407 q 580 414 570 412 q 599 416 590 416 q 612 415 605 416 q 624 410 618 414 q 634 400 630 406 q 637 383 637 393 q 628 326 637 353 q 603 279 618 299 q 572 247 589 258 q 541 235 555 235 l 526 235 q 510 230 517 235 q 504 212 504 225 q 505 203 504 208 q 505 193 505 199 q 503 179 505 185 q 498 167 501 172 q 492 156 495 161 q 486 142 489 150 q 477 111 481 127 q 467 81 473 95 q 453 58 461 67 q 431 50 444 50 q 418 55 427 50 q 402 68 410 59 q 389 91 395 77 q 383 122 383 104 q 386 140 383 129 q 392 163 389 151 q 399 188 396 176 q 401 211 401 201 q 398 226 401 220 q 386 232 395 232 q 369 230 378 232 q 346 228 359 228 q 330 231 338 228 q 317 233 322 233 q 306 229 311 233 q 299 219 302 225 q 295 206 296 213 q 294 193 294 199 q 298 155 294 176 q 302 117 302 134 q 289 78 302 92 q 258 65 276 65 q 229 73 243 65 q 206 93 216 81 q 190 119 196 105 q 184 144 184 133 q 185 161 184 152 q 186 180 186 171 q 190 193 186 182 q 195 216 195 205 q 188 233 195 229 q 168 237 182 237 q 163 237 165 237 q 159 237 161 237 q 155 236 157 236 l 157 236 l 143 236 q 127 237 133 236 q 119 241 122 238 q 113 250 116 244 q 106 267 111 256 q 91 275 98 273 q 79 280 84 277 q 70 289 73 283 q 66 311 66 296 q 70 343 66 328 q 78 372 73 359 q 92 392 84 385 q 107 400 99 400 q 131 399 117 400 q 157 397 144 397 q 175 400 168 397 q 184 408 181 402 q 189 423 188 414 q 189 447 189 433 q 188 471 189 463 q 185 483 187 479 q 179 486 182 486 q 172 486 176 486 q 143 481 161 486 q 106 476 125 476 q 83 479 96 476 q 58 489 71 482 q 37 507 46 496 q 28 536 28 519 q 32 555 28 545 q 40 575 37 566 q 41 582 41 576 q 42 593 41 587 q 47 604 43 599 q 58 608 50 608 q 67 606 62 608 q 78 604 73 604 q 94 610 87 604 q 110 624 101 616 q 133 637 119 631 q 171 643 147 643 q 183 645 179 643 q 188 650 186 647 q 188 659 189 654 q 187 669 187 664 q 182 735 187 702 q 178 799 178 769 q 180 828 178 814 q 191 852 183 842 q 212 869 199 863 q 245 875 225 875 q 269 873 255 875 q 297 867 283 871 q 319 856 310 863 q 329 840 329 850 q 323 817 329 830 q 318 789 318 804 q 320 754 318 771 q 322 720 322 736 q 320 690 322 705 q 311 661 317 676 q 325 659 319 659 q 339 659 332 659 q 367 660 353 659 q 399 661 381 661 l 414 661 q 413 726 413 696 q 413 784 413 757 q 412 836 412 811 q 410 884 411 861 q 404 906 408 893 q 400 930 400 918 q 409 952 400 941 q 432 972 418 963 q 462 986 446 981 q 493 991 478 991 q 527 980 514 991 q 546 949 539 969 q 554 902 552 929 q 555 843 555 875 l 555 832 q 551 815 555 829 q 544 781 548 800 q 537 741 541 762 q 534 705 534 720 q 542 682 534 687 q 564 677 550 677 q 581 679 572 677 q 598 682 589 680 q 614 685 606 684 q 627 686 621 686 q 654 673 646 686 q 661 644 661 660 q 660 622 661 634 q 654 596 658 610 m 397 403 l 397 481 l 315 481 q 317 474 317 477 q 317 467 317 470 q 313 443 317 454 q 310 421 310 431 q 314 408 310 412 q 330 403 319 403 q 352 405 340 403 q 375 407 363 407 q 397 403 386 407 z "},"%":{"ha":840,"x_min":32,"x_max":814,"o":"m 414 661 q 394 622 411 646 q 355 576 378 599 q 309 535 332 553 q 268 511 285 516 q 228 503 250 506 q 183 500 205 500 q 124 510 151 500 q 76 542 96 521 q 44 593 56 562 q 32 665 32 624 q 40 737 32 701 q 51 767 44 754 q 63 789 57 779 q 74 809 69 800 q 78 829 78 818 q 77 840 78 835 q 77 850 77 844 q 78 865 77 859 q 83 877 80 871 q 89 889 86 882 q 96 905 92 895 q 107 931 102 921 q 122 948 112 942 q 153 957 133 954 q 212 960 174 960 q 251 958 231 960 q 290 952 271 956 q 323 940 308 947 q 346 922 338 933 q 349 915 349 919 q 349 905 349 911 q 350 893 349 899 q 354 879 351 886 q 365 865 357 871 q 375 850 372 859 q 382 810 382 830 q 387 768 382 789 q 394 748 389 760 q 404 724 399 736 q 412 699 408 711 q 415 673 415 686 q 414 667 415 670 q 414 661 414 665 m 268 733 q 269 750 269 740 q 269 772 269 761 q 267 811 269 793 q 257 841 264 828 q 237 860 250 853 q 204 867 224 867 q 172 852 183 867 q 156 815 161 837 q 151 770 151 794 q 150 729 150 747 q 160 688 150 702 q 195 673 170 673 q 232 679 218 673 q 253 693 245 684 q 262 712 260 701 q 268 733 265 723 m 650 908 q 652 900 652 905 q 646 874 652 889 q 632 841 641 859 q 614 805 624 823 q 594 770 604 786 q 577 740 585 753 q 566 720 569 727 q 545 664 553 685 q 528 629 536 644 q 513 599 520 614 q 497 562 506 585 q 477 505 490 536 q 448 441 463 473 q 417 378 432 409 q 393 322 402 347 q 370 257 380 288 q 348 199 359 227 q 324 145 336 172 q 294 93 311 119 q 275 64 284 79 q 260 36 267 49 q 248 12 253 22 q 239 -1 243 2 q 222 -13 229 -11 q 212 -16 214 -14 q 193 -13 205 -16 q 171 -3 182 -9 q 153 15 161 4 q 146 41 146 26 q 155 72 146 50 q 178 119 165 94 q 206 170 192 145 q 231 208 220 194 q 252 248 242 225 q 275 292 262 270 q 311 352 293 320 q 347 418 329 385 q 380 484 364 451 q 410 547 396 517 q 421 575 416 562 q 429 601 426 588 q 436 625 433 613 q 444 650 439 637 q 460 673 451 659 q 479 705 470 688 q 492 737 486 719 q 513 772 497 755 q 529 806 522 793 q 543 826 536 818 q 555 841 549 835 q 567 857 561 848 q 580 883 575 871 q 591 903 585 895 q 604 915 596 911 q 624 920 611 920 q 641 916 634 920 q 650 908 648 913 m 812 155 q 793 117 810 140 q 754 71 777 94 q 707 29 731 47 q 667 5 684 11 q 626 -3 649 0 q 582 -5 604 -5 q 523 5 550 -5 q 475 36 495 16 q 443 88 454 57 q 431 160 431 119 q 439 232 431 194 q 449 261 443 249 q 462 283 456 273 q 472 303 468 294 q 476 323 476 312 q 475 334 476 329 q 475 345 475 339 q 477 359 475 353 q 481 371 479 366 q 488 384 484 377 q 494 400 491 390 q 506 426 501 416 q 521 443 511 437 q 552 452 532 449 q 611 454 572 454 q 650 453 630 454 q 688 447 670 451 q 722 435 707 442 q 745 416 736 427 q 748 409 747 413 q 748 399 748 405 q 749 388 748 394 q 753 374 749 381 q 763 359 756 366 q 774 345 770 353 q 781 304 781 325 q 786 262 781 283 q 793 242 788 254 q 802 218 798 231 q 810 193 806 206 q 814 168 814 180 q 813 162 814 165 q 812 155 812 159 m 667 228 q 668 244 668 234 q 668 267 668 255 q 665 305 668 288 q 655 335 663 322 q 636 354 648 347 q 603 361 623 361 q 571 346 582 361 q 555 310 560 331 q 549 265 550 288 q 549 224 549 241 q 558 182 549 196 q 593 168 568 168 q 631 174 617 168 q 651 188 644 179 q 661 207 659 196 q 667 228 664 218 z "},"&":{"ha":828,"x_min":5,"x_max":822,"o":"m 822 294 q 818 281 821 287 q 808 271 814 276 q 794 260 802 266 q 781 248 787 254 q 772 236 775 241 q 765 224 768 230 q 759 213 762 218 q 750 204 755 208 q 737 198 745 200 q 723 193 730 195 q 711 188 716 191 q 707 180 707 185 q 713 166 707 176 q 728 145 720 156 q 744 124 736 134 q 754 110 751 114 q 767 89 760 100 q 780 66 774 77 q 789 46 785 56 q 793 28 793 36 q 789 10 793 20 q 778 -8 785 1 q 761 -22 771 -16 q 739 -28 751 -28 q 701 -15 720 -28 q 668 16 682 -1 q 660 31 663 22 q 652 45 658 39 q 637 55 645 52 q 625 62 629 58 q 617 75 621 68 q 612 90 614 83 q 606 101 609 96 q 597 106 602 106 q 585 101 591 106 q 572 90 578 96 q 559 77 565 83 q 549 66 553 71 q 521 50 537 58 q 486 34 505 41 q 446 19 467 26 q 407 7 426 13 q 385 -2 395 3 q 362 -13 374 -7 q 340 -21 351 -18 q 318 -24 330 -24 q 306 -23 312 -24 q 293 -22 299 -22 q 264 -26 277 -22 q 239 -34 251 -29 q 214 -41 227 -38 q 186 -45 201 -45 q 160 -43 176 -45 q 126 -39 143 -41 q 93 -32 109 -36 q 72 -24 78 -28 q 52 2 59 -14 q 40 36 45 18 q 33 76 36 55 q 25 118 30 97 q 12 173 19 144 q 5 229 5 202 q 12 271 5 251 q 33 307 18 290 q 42 315 39 312 q 47 319 45 317 q 50 323 49 321 q 50 330 50 326 q 50 335 50 333 q 49 339 49 337 q 64 351 49 342 q 102 372 79 360 q 150 398 124 385 q 197 422 176 411 q 217 437 208 429 q 239 453 227 446 q 254 459 245 456 q 273 465 264 462 q 289 471 282 467 q 296 481 296 475 q 282 515 296 497 q 252 553 269 534 q 218 594 235 573 q 197 637 202 616 q 186 680 192 659 q 180 722 180 701 q 183 744 180 736 q 190 756 185 751 q 200 767 195 762 q 214 783 206 773 q 224 807 221 794 q 231 825 227 820 q 247 843 235 835 q 272 860 258 852 q 300 876 286 868 q 325 895 315 884 q 336 907 332 901 q 343 916 339 914 q 375 924 355 922 q 407 925 394 925 l 410 925 l 421 925 q 435 918 422 925 q 467 901 448 911 q 511 881 487 891 q 561 864 536 871 q 586 856 571 861 q 615 844 601 851 q 638 826 629 836 q 648 804 648 817 q 647 795 648 800 q 646 785 646 790 q 650 761 646 772 q 659 738 654 749 q 668 716 664 727 q 672 696 672 706 q 668 680 672 687 q 656 666 663 672 q 641 652 650 659 q 625 637 633 646 q 603 607 612 624 q 583 581 593 589 q 553 562 570 568 q 526 547 537 555 q 510 531 520 542 q 490 509 500 520 q 474 488 481 497 q 467 476 467 478 q 473 463 467 471 q 487 445 479 454 q 504 427 495 436 q 518 410 513 418 q 522 399 522 406 q 526 387 523 393 q 538 376 532 384 q 550 360 545 368 q 562 346 556 352 q 575 339 568 339 q 599 343 586 339 q 625 354 612 347 q 650 368 638 361 q 672 383 663 376 q 688 399 682 391 q 702 413 694 407 q 719 423 709 419 q 746 427 728 427 q 764 420 754 427 q 781 407 773 414 q 794 394 789 400 q 799 389 799 388 q 798 379 799 385 q 796 368 796 374 q 800 359 796 367 q 809 340 804 351 q 818 318 814 330 q 822 297 822 306 l 822 294 m 541 722 q 519 744 538 732 q 477 765 500 755 q 431 781 454 774 q 397 787 408 787 q 379 781 389 787 q 361 764 370 774 q 348 742 353 753 q 343 721 343 730 q 345 711 343 718 q 347 697 347 705 q 342 682 346 690 q 338 667 338 675 q 349 637 340 654 q 370 603 359 619 q 393 575 382 587 q 411 564 405 564 q 419 572 414 564 q 432 586 425 580 q 463 610 449 599 q 489 637 477 622 q 499 658 496 647 q 505 675 501 669 q 514 684 509 680 q 526 693 520 688 q 536 704 532 699 q 541 718 541 710 l 541 722 m 454 285 q 434 314 444 302 q 411 340 425 326 q 403 351 409 342 q 389 367 397 359 q 373 383 382 376 q 358 390 365 390 q 351 387 354 390 q 302 357 326 371 q 260 331 279 343 q 231 308 242 319 q 220 286 220 297 q 232 251 220 265 q 257 236 244 236 q 273 240 265 236 q 288 248 281 243 q 303 256 296 252 q 319 260 311 260 q 331 258 325 260 q 343 256 338 256 q 403 267 374 257 q 454 285 431 277 z "},"(":{"ha":453,"x_min":17,"x_max":479,"o":"m 479 -71 q 472 -94 479 -82 q 455 -117 465 -106 q 437 -140 446 -129 q 422 -161 427 -151 q 414 -191 414 -178 q 411 -213 413 -203 q 404 -227 410 -222 q 380 -232 398 -232 q 344 -224 358 -232 q 320 -205 330 -216 q 302 -183 310 -195 q 286 -165 295 -172 q 276 -161 281 -162 q 264 -158 270 -159 q 253 -156 258 -157 q 243 -153 247 -155 q 225 -137 233 -147 q 208 -118 217 -126 q 198 -113 205 -115 q 187 -106 191 -111 q 183 -93 183 -101 q 178 -79 183 -85 q 162 -71 172 -74 q 144 -62 152 -68 q 128 -44 136 -56 q 110 -20 120 -31 q 87 0 99 -8 q 71 14 75 7 q 65 42 66 23 q 58 79 64 62 q 43 112 51 99 q 30 135 36 124 q 21 159 24 146 q 17 192 17 172 q 20 238 17 214 q 26 288 23 262 q 33 341 30 313 q 36 400 36 370 q 35 442 36 421 q 35 484 35 463 q 41 543 35 514 q 54 607 48 571 q 61 660 58 634 q 68 710 64 686 q 78 752 72 733 q 97 786 85 772 q 103 800 100 791 q 110 812 106 809 q 118 819 113 815 q 131 826 124 823 q 143 834 137 830 q 153 843 149 838 q 169 866 161 853 q 182 892 176 878 q 196 919 189 905 q 212 946 203 932 q 231 966 220 956 q 252 987 242 976 q 272 1015 262 1000 q 295 1045 283 1031 q 323 1068 308 1059 q 358 1076 338 1077 q 380 1067 371 1076 q 394 1046 389 1058 q 402 1021 399 1034 q 404 1000 404 1008 q 397 979 404 995 q 381 944 390 962 q 362 910 372 926 q 350 889 353 894 q 334 879 344 882 q 315 868 323 876 q 287 833 300 854 q 256 796 273 812 q 238 779 249 789 q 215 755 227 768 q 193 729 203 742 q 178 705 182 716 q 170 680 173 695 q 164 649 166 665 q 160 617 161 633 q 157 589 158 601 q 152 527 153 562 q 151 456 151 492 q 152 402 151 432 q 153 344 152 372 q 157 292 155 315 q 165 258 160 269 q 186 236 170 247 q 219 214 201 224 q 251 194 236 203 q 272 178 267 185 q 278 166 276 173 q 282 153 281 160 q 286 140 284 146 q 290 131 288 134 q 307 111 297 119 q 328 96 317 103 q 350 84 338 90 q 371 71 361 78 q 410 37 391 56 q 445 -3 430 17 q 470 -40 460 -22 q 479 -71 479 -58 z "},")":{"ha":404,"x_min":-16,"x_max":385,"o":"m 385 285 q 380 274 383 279 q 372 266 376 270 q 363 257 368 262 q 355 245 359 252 q 350 225 351 238 q 342 199 348 212 q 330 181 338 189 q 321 165 323 173 q 317 144 317 156 q 313 122 316 133 q 300 88 307 106 q 288 52 294 70 q 273 16 281 33 q 257 -16 265 -2 q 248 -26 252 -23 q 240 -33 243 -30 q 234 -41 236 -36 q 232 -56 232 -45 q 225 -82 232 -69 q 210 -106 219 -94 q 190 -131 200 -119 q 171 -157 179 -143 q 159 -178 163 -170 q 150 -189 155 -185 q 140 -193 146 -192 q 123 -193 134 -193 q 79 -182 90 -193 q 69 -151 69 -170 q 74 -121 69 -137 q 84 -90 78 -106 q 96 -61 90 -75 q 106 -37 102 -47 q 114 -13 110 -25 q 123 9 117 -1 q 137 30 129 21 q 149 49 144 38 q 153 67 153 57 q 158 87 154 77 q 180 137 166 109 q 207 198 193 166 q 229 260 220 229 q 239 317 239 292 l 239 336 q 241 356 239 346 q 243 375 243 367 q 240 393 243 385 q 235 411 238 401 q 230 431 233 420 q 228 457 228 441 q 229 493 228 475 q 231 530 231 511 q 222 595 231 571 q 199 636 214 619 q 165 666 184 652 q 123 701 145 680 q 113 716 116 708 q 102 730 109 725 q 86 739 95 737 q 68 749 77 741 q 58 762 62 753 q 46 778 54 772 q 20 797 31 792 q 0 809 8 802 q -12 830 -7 816 q -16 876 -16 844 q -15 898 -16 886 q -12 923 -15 909 q -4 951 -9 936 q 12 983 2 966 q 21 996 17 991 q 29 1006 25 1001 q 37 1018 33 1012 q 46 1035 41 1025 q 53 1050 49 1042 q 63 1064 57 1058 q 77 1075 69 1071 q 97 1079 85 1079 q 122 1072 110 1079 q 145 1053 134 1064 q 166 1030 156 1042 q 187 1010 177 1019 q 219 984 205 995 q 246 961 233 972 q 270 933 259 949 q 293 896 281 918 q 316 840 304 873 q 342 761 328 808 q 350 737 345 747 q 359 715 355 726 q 367 692 363 705 q 370 664 370 680 q 369 632 370 648 q 368 602 368 616 q 372 584 368 592 q 376 568 376 576 q 372 540 376 553 q 368 513 368 526 q 374 473 368 494 q 380 431 380 452 q 378 393 380 413 q 376 353 376 372 q 380 319 376 337 q 385 290 385 302 l 385 285 z "},"*":{"ha":726,"x_min":33,"x_max":697,"o":"m 694 786 q 681 779 694 785 q 651 765 668 772 q 619 749 635 757 q 596 739 603 742 q 563 730 578 733 q 532 726 547 728 q 502 720 517 724 q 471 710 486 717 q 491 684 480 700 q 515 650 503 668 q 541 616 528 633 q 570 589 555 600 q 591 577 579 582 q 615 567 604 573 q 634 550 626 560 q 643 521 642 539 q 641 507 643 515 q 634 492 638 500 q 625 478 630 485 q 616 465 621 471 q 598 444 611 457 q 570 416 585 430 q 541 392 555 403 q 518 379 526 381 q 482 375 504 375 q 441 377 458 375 q 411 386 424 379 q 387 405 397 393 q 368 439 377 418 q 358 466 362 453 q 349 493 353 479 q 340 520 345 507 q 329 550 336 534 q 323 563 328 553 q 315 584 319 573 q 306 603 310 594 q 300 611 302 611 q 282 602 292 611 q 264 580 273 592 q 250 558 256 568 q 243 546 243 547 q 223 525 237 538 q 195 498 210 511 q 166 475 180 485 q 147 465 153 465 q 133 470 138 465 q 124 480 127 474 q 117 493 120 487 q 111 504 115 500 q 100 512 106 509 q 91 517 95 514 q 83 524 86 519 q 81 539 81 529 q 87 559 81 549 q 103 577 94 568 q 123 595 113 587 q 140 611 133 604 q 154 628 149 618 q 167 644 159 638 q 177 650 168 646 q 194 661 185 654 q 211 674 203 667 q 218 689 218 681 q 203 704 218 696 q 168 720 189 712 q 127 734 148 728 q 97 743 107 740 q 72 752 83 747 q 52 765 60 758 q 38 784 43 773 q 33 811 33 795 q 36 826 33 819 q 43 840 39 832 q 53 856 48 847 q 64 876 58 864 q 66 894 67 885 q 68 911 66 903 q 80 941 73 926 q 96 965 87 955 q 114 982 105 976 q 131 989 123 989 q 170 975 147 989 q 216 941 192 962 q 265 898 241 921 q 309 856 289 875 q 318 848 315 848 q 321 857 321 848 q 318 877 321 865 q 312 903 315 890 q 307 927 309 916 q 304 942 304 938 q 329 1008 304 983 q 411 1034 354 1034 q 438 1027 428 1034 q 449 1004 449 1020 q 447 990 449 998 q 443 976 446 983 q 439 963 441 969 q 436 954 437 958 q 435 899 435 929 q 432 833 436 868 q 450 838 442 833 q 463 848 457 842 q 475 861 469 854 q 488 872 481 867 q 505 880 495 878 q 522 889 515 882 q 534 905 530 896 q 546 922 538 914 q 565 936 553 930 q 603 942 578 942 q 628 939 621 942 q 638 928 635 935 q 642 912 641 922 q 647 889 642 902 q 658 871 650 881 q 675 850 666 861 q 690 828 684 840 q 697 803 697 816 q 697 794 697 799 q 694 786 696 790 z "},"+":{"ha":629,"x_min":31,"x_max":602,"o":"m 599 591 q 601 582 600 587 q 602 571 602 577 q 598 527 602 553 q 588 477 594 502 q 574 433 582 452 q 559 407 567 413 q 526 386 544 393 q 491 376 507 379 q 463 373 475 373 q 450 372 452 372 q 426 372 435 372 q 411 371 416 372 q 402 364 405 369 q 400 350 400 359 q 404 321 400 338 q 411 290 407 305 q 419 262 416 275 q 422 244 422 250 q 411 225 422 241 q 382 191 400 209 q 341 158 364 172 q 293 143 318 143 q 257 149 272 143 q 234 166 243 155 q 220 191 224 177 q 216 220 216 204 q 219 258 216 237 q 221 302 221 279 q 220 334 221 322 q 217 351 220 345 q 209 358 214 357 q 195 359 203 359 l 174 359 q 154 363 166 361 q 135 366 142 366 q 114 361 125 364 q 92 358 103 358 q 58 370 69 358 q 41 399 46 381 q 36 440 37 418 q 36 485 36 463 q 33 514 36 500 q 31 536 31 527 q 34 549 31 545 q 41 553 37 552 q 52 556 46 555 q 62 562 57 557 q 68 571 66 566 q 71 579 70 576 q 75 585 73 583 q 83 587 77 587 q 93 587 87 587 q 109 586 100 586 q 127 592 119 586 q 144 604 136 597 q 161 617 153 611 q 180 623 170 623 q 202 619 189 623 q 225 615 216 615 q 238 625 235 615 q 241 647 241 635 q 240 669 241 657 q 237 692 239 681 q 235 713 236 703 q 233 730 233 723 q 237 752 233 740 q 248 776 241 765 q 267 795 256 787 q 292 803 277 803 q 316 797 304 803 q 340 785 327 791 q 359 777 351 780 q 372 769 367 774 q 380 754 378 764 q 383 726 383 745 q 381 691 383 711 q 379 653 379 671 q 382 628 379 636 q 403 621 386 621 q 428 622 414 621 q 449 623 442 623 q 466 622 457 623 q 484 621 475 621 q 517 624 501 621 q 547 627 534 627 q 577 620 564 627 q 599 591 590 612 z "},",":{"ha":335,"x_min":20,"x_max":322,"o":"m 322 87 q 315 71 322 82 q 304 45 308 60 q 299 17 301 28 q 296 -4 298 6 q 291 -24 294 -14 q 283 -50 288 -35 q 269 -89 277 -66 q 250 -131 261 -111 q 225 -165 239 -151 q 193 -179 212 -179 q 169 -175 180 -179 q 149 -166 157 -172 q 137 -156 141 -161 q 132 -147 132 -151 q 138 -123 132 -135 q 143 -97 143 -111 q 142 -78 143 -87 q 142 -60 142 -69 q 142 -44 142 -52 q 146 -28 142 -36 q 126 -30 136 -30 q 109 -31 117 -31 q 61 -22 79 -31 q 34 -1 43 -14 q 22 27 25 12 q 20 58 20 43 q 22 93 20 75 q 30 125 25 110 q 43 152 35 140 q 60 170 50 164 q 74 173 66 172 q 90 175 81 174 q 106 175 98 175 q 121 178 114 176 q 142 188 134 182 q 159 199 151 194 q 174 209 166 205 q 193 212 182 212 q 222 205 208 212 q 251 186 237 197 q 278 160 265 174 q 300 132 290 145 q 315 106 309 118 q 322 87 321 94 z "},"-":{"ha":700,"x_min":32,"x_max":661,"o":"m 661 479 q 661 457 661 469 q 658 435 661 445 q 649 418 655 425 q 631 411 643 411 q 609 413 621 411 q 583 417 596 415 q 558 422 570 420 q 536 424 545 424 q 510 418 524 422 q 484 408 497 414 q 455 396 470 402 q 425 385 441 389 q 363 372 397 376 q 296 363 330 368 q 219 350 257 356 q 147 345 182 345 q 105 350 125 345 q 68 364 84 355 q 42 387 52 374 q 32 418 32 401 q 38 452 32 435 q 47 488 44 469 q 50 511 49 498 q 51 536 50 524 q 55 561 52 549 q 64 578 58 572 q 97 592 74 588 q 145 597 120 596 q 192 597 170 598 q 222 596 214 596 q 264 595 241 596 q 311 594 287 595 q 358 592 334 593 q 403 590 381 591 q 454 585 429 589 q 497 582 479 582 q 527 588 514 582 q 553 595 539 595 q 613 589 592 595 q 644 569 634 583 q 657 533 654 555 q 661 479 660 511 z "},".":{"ha":302,"x_min":26,"x_max":268,"o":"m 264 157 q 267 124 265 146 q 268 81 268 102 q 262 38 268 54 q 243 13 256 22 q 206 2 229 5 q 147 0 182 0 q 130 0 138 0 q 114 3 121 1 q 85 14 100 5 q 57 34 70 22 q 35 56 43 45 q 26 75 26 68 q 28 94 26 83 q 31 113 29 104 q 34 131 33 123 q 36 143 35 139 q 38 161 37 151 q 41 180 39 171 q 44 197 42 189 q 49 208 46 205 q 73 217 53 212 q 117 225 92 222 q 166 231 142 229 q 204 233 191 233 l 225 233 q 244 231 237 233 q 253 222 250 229 q 258 199 256 214 q 264 157 260 183 z "},"/":{"ha":571,"x_min":25,"x_max":549,"o":"m 547 909 q 548 905 547 907 q 549 901 549 903 q 543 870 549 889 q 531 832 538 851 q 518 797 525 813 q 510 777 512 781 q 495 743 500 759 q 485 711 489 727 q 476 680 480 695 q 467 647 473 664 q 455 621 463 635 q 439 593 448 608 q 422 564 431 579 q 406 532 413 549 q 385 474 394 505 q 366 407 375 442 q 347 334 357 372 q 325 257 337 296 q 314 241 321 248 q 302 224 307 234 q 290 181 296 203 q 278 138 283 159 q 270 101 275 125 q 257 55 266 78 q 233 16 248 33 q 193 -1 218 -1 q 174 1 184 -1 q 149 8 164 4 q 99 23 121 14 q 60 45 76 33 q 34 75 43 58 q 25 115 25 92 q 37 171 25 144 q 65 222 48 197 q 102 273 83 248 q 136 326 121 298 q 140 342 140 334 q 144 359 140 351 q 165 400 153 378 q 187 446 178 422 q 197 479 194 463 q 208 511 200 496 q 225 534 214 523 q 243 558 237 545 q 250 582 248 569 q 256 606 252 594 q 285 669 273 640 q 311 725 298 698 q 326 747 317 736 q 344 772 334 759 q 363 799 354 785 q 380 828 373 812 q 396 869 391 849 q 409 905 401 890 q 432 930 417 921 q 475 940 446 940 q 498 938 486 940 q 520 932 510 936 q 538 922 530 928 q 547 909 545 916 z "},"<":{"ha":551,"x_min":26,"x_max":518,"o":"m 515 275 q 508 258 513 266 q 495 244 502 251 q 480 232 488 238 q 468 220 473 227 q 459 199 462 210 q 452 180 457 188 q 435 166 445 173 q 416 150 425 159 q 404 136 409 142 q 392 123 398 129 q 379 115 387 118 q 361 111 372 111 q 339 116 353 111 q 310 129 325 121 q 279 149 294 138 q 254 172 264 160 q 245 187 249 178 q 236 201 241 196 q 215 215 229 209 q 189 232 201 222 q 172 252 180 240 q 155 271 164 264 q 137 276 148 275 q 121 283 127 277 q 111 299 115 288 q 98 318 107 310 q 84 325 93 323 q 69 330 75 326 q 66 337 67 332 q 61 347 65 342 q 54 354 58 350 q 44 364 49 359 q 35 374 39 369 q 31 382 31 378 q 28 397 29 386 q 27 418 27 408 q 26 438 26 429 q 26 446 26 446 q 42 478 29 463 q 71 506 55 493 q 102 532 86 519 q 129 558 119 545 q 137 575 136 566 q 142 591 138 585 q 152 603 146 597 q 165 613 158 608 q 178 623 172 618 q 189 635 184 629 q 200 657 197 645 q 211 677 203 670 q 235 694 220 686 q 262 713 250 701 q 270 724 267 717 q 279 737 274 732 q 310 769 294 752 q 342 800 326 785 q 375 823 359 814 q 407 832 391 832 q 430 826 418 832 q 452 808 442 819 q 469 784 463 798 q 476 755 476 770 q 468 731 476 745 q 450 701 460 717 q 427 671 439 686 q 408 647 416 657 q 393 636 403 641 q 378 627 383 632 q 369 611 374 621 q 357 591 363 600 q 341 574 353 586 q 318 548 330 562 q 297 522 307 534 q 288 505 288 510 q 293 489 288 495 q 307 480 299 484 q 324 473 315 476 q 339 464 333 469 q 347 449 343 460 q 361 429 351 439 q 385 414 370 421 q 418 398 400 406 q 453 380 435 390 q 486 359 471 371 q 509 332 500 347 q 518 298 518 317 q 517 287 518 292 q 515 275 517 281 z "},"=":{"ha":747,"x_min":53,"x_max":704,"o":"m 703 643 q 704 628 704 635 q 704 614 704 621 q 691 554 704 576 q 643 532 677 532 q 617 540 629 532 q 587 553 604 549 q 563 556 575 556 q 536 558 551 556 q 500 566 519 560 q 467 571 481 571 q 433 568 450 571 q 396 560 415 564 q 357 551 377 555 q 317 545 338 547 q 268 542 294 543 q 218 541 241 541 q 187 547 203 541 q 154 553 171 553 q 118 555 136 555 q 87 557 100 555 q 65 565 73 559 q 57 587 57 572 q 65 631 57 612 q 86 664 73 650 q 115 685 99 677 q 146 692 131 692 q 232 685 189 692 q 323 679 275 679 q 353 680 338 679 q 380 682 367 681 q 452 694 418 685 q 518 712 486 703 q 580 729 550 722 q 639 737 610 737 q 660 729 649 737 q 679 707 670 720 q 694 676 688 693 q 703 643 701 660 m 682 326 q 682 304 682 316 q 679 282 682 292 q 670 265 676 272 q 652 258 664 258 q 630 260 642 258 q 604 264 617 262 q 579 269 591 267 q 557 271 566 271 q 531 265 545 269 q 505 255 518 260 q 476 243 491 249 q 446 232 461 237 q 384 219 418 224 q 317 210 350 215 q 240 198 278 203 q 168 192 203 192 q 126 197 146 192 q 89 212 105 202 q 63 235 73 221 q 53 265 53 248 q 59 299 53 283 q 68 335 64 316 q 70 357 69 345 q 72 383 71 370 q 76 408 73 396 q 85 425 79 419 q 118 439 95 435 q 166 444 141 443 q 213 444 191 445 q 243 443 235 443 q 284 443 262 443 q 331 441 307 442 q 379 439 355 440 q 424 437 402 438 q 475 433 450 436 q 518 429 500 429 q 548 435 535 429 q 574 441 560 441 q 634 435 612 441 q 665 416 655 429 q 678 380 675 402 q 682 326 680 358 z "},"?":{"ha":794,"x_min":33,"x_max":764,"o":"m 750 586 q 758 542 751 566 q 764 494 764 518 q 760 466 764 477 q 747 449 755 456 q 725 436 739 441 q 694 422 712 431 q 671 409 682 416 q 652 397 661 401 q 621 386 636 391 q 593 375 606 380 q 571 364 581 370 q 557 350 562 358 q 553 331 553 346 q 549 302 553 316 q 537 280 545 291 q 526 260 530 269 q 522 233 522 246 q 519 208 522 219 q 509 190 516 197 q 484 183 502 183 q 461 185 473 183 q 435 189 448 186 q 407 193 421 191 q 380 195 393 195 q 349 193 365 195 q 319 192 333 192 q 284 202 296 192 q 272 229 272 212 q 279 260 272 245 q 290 289 286 275 q 301 324 296 308 q 314 355 307 340 q 331 380 321 369 q 355 401 340 392 q 408 426 376 414 q 471 449 440 437 q 518 463 496 458 q 555 479 539 468 q 579 512 570 490 q 587 575 587 533 q 587 627 587 601 q 586 671 586 653 q 592 699 587 682 q 596 729 596 715 q 586 754 596 744 q 561 771 576 764 q 527 780 545 777 q 492 783 509 783 q 479 781 485 783 q 466 775 473 779 q 449 768 459 772 q 424 761 439 764 q 406 758 416 759 q 386 755 395 756 q 370 753 377 754 q 359 749 362 751 q 352 733 355 745 q 346 706 349 722 q 340 673 342 691 q 337 640 338 656 q 334 610 335 623 q 334 590 334 597 q 336 547 334 568 q 338 507 338 525 q 315 463 338 479 q 257 439 292 447 q 181 431 222 432 q 104 429 140 429 q 78 431 91 429 q 55 437 65 432 q 39 450 45 441 q 33 473 33 459 q 38 527 33 503 q 43 575 43 550 q 42 615 43 595 q 41 654 41 635 q 43 719 41 689 q 51 772 44 748 q 73 817 58 797 q 114 852 88 836 q 180 879 140 867 q 278 899 220 890 q 353 907 315 904 q 424 916 392 910 q 471 925 451 920 q 509 930 492 930 q 529 927 515 930 q 557 919 542 924 q 588 908 572 914 q 616 895 604 901 q 636 877 628 888 q 656 860 645 865 q 682 850 672 852 q 699 845 692 848 q 712 835 706 842 q 728 812 719 829 q 743 765 739 791 q 748 709 747 739 q 749 648 749 679 q 750 586 748 616 m 526 16 q 516 -19 526 0 q 492 -54 505 -38 q 466 -82 478 -71 q 449 -93 453 -93 q 426 -90 438 -93 q 403 -87 414 -87 q 375 -96 385 -90 q 353 -103 364 -103 q 335 -98 342 -103 q 322 -86 328 -94 q 309 -70 315 -79 q 294 -54 302 -62 q 281 -45 289 -50 q 267 -37 274 -41 q 255 -28 260 -33 q 250 -17 250 -24 q 256 15 250 -7 q 272 60 262 37 q 291 101 281 83 q 310 118 302 118 l 318 118 q 327 119 321 118 q 339 119 332 119 q 372 117 353 119 q 409 112 390 115 q 446 105 428 109 q 478 97 464 101 q 501 87 492 92 q 510 79 510 83 q 509 69 510 75 q 509 57 509 63 q 511 42 509 48 q 517 31 514 35 q 524 22 521 26 q 526 16 526 18 z "},"@":{"ha":1007,"x_min":35,"x_max":977,"o":"m 977 414 q 972 397 977 406 q 968 378 968 387 q 968 363 968 372 q 969 345 969 355 q 970 324 970 334 q 971 304 971 313 q 964 271 971 281 q 944 253 956 260 q 915 239 931 246 q 882 216 899 232 q 877 210 880 214 q 871 200 874 205 q 865 190 868 195 q 857 182 861 184 q 826 173 848 176 q 778 171 804 171 q 703 178 732 171 q 656 202 673 186 q 632 245 640 219 q 621 307 625 271 q 572 284 597 296 q 522 261 548 271 q 468 243 496 250 q 408 236 440 236 q 382 238 398 236 q 349 245 366 240 q 316 257 332 250 q 290 277 300 265 q 283 290 288 279 q 273 313 278 300 q 264 336 269 325 q 260 350 260 347 q 255 373 258 359 q 251 405 253 388 q 247 437 248 421 q 245 465 245 453 q 265 525 245 499 q 316 568 285 551 q 387 594 348 585 q 467 603 427 603 q 530 599 498 603 q 561 591 544 597 q 587 585 577 585 q 600 594 594 585 q 614 614 606 603 q 638 635 623 625 q 677 644 652 644 q 697 635 687 644 q 716 611 707 625 q 730 581 725 597 q 736 553 736 565 l 736 525 q 740 499 736 513 q 745 478 745 486 q 746 425 747 453 q 748 372 746 396 q 760 331 751 347 q 789 315 768 315 q 815 319 806 315 q 828 329 824 323 q 834 342 833 335 q 835 357 835 349 q 834 386 835 372 q 832 413 833 399 q 830 441 831 427 q 829 475 829 456 q 834 513 829 499 q 839 533 839 527 q 826 617 839 587 q 789 665 814 648 q 727 689 764 682 q 642 701 690 696 q 569 710 604 705 q 498 715 534 715 q 447 710 471 715 q 399 698 422 705 q 351 681 375 690 q 302 663 328 671 q 281 658 292 659 q 265 654 271 658 q 219 626 237 641 q 189 594 200 610 q 172 560 177 577 q 167 528 167 543 q 171 508 167 517 q 175 486 175 498 q 169 466 175 477 q 161 444 163 455 q 164 417 161 432 q 171 388 168 403 q 178 357 175 372 q 183 328 182 341 q 181 309 183 320 q 179 292 179 298 q 183 279 179 286 q 195 265 188 273 q 210 249 201 258 q 227 229 218 240 q 242 204 237 216 q 256 183 248 192 q 276 168 263 174 q 313 163 289 163 q 367 170 341 163 q 416 178 393 178 q 437 176 426 178 q 463 174 449 174 q 510 179 486 174 q 557 184 534 184 q 596 175 583 184 q 617 151 610 166 q 628 116 624 136 q 637 75 631 96 q 644 55 640 67 q 652 30 648 43 q 660 2 656 16 q 663 -25 663 -12 q 659 -49 663 -41 q 649 -61 655 -57 q 634 -68 642 -66 q 616 -75 625 -71 q 604 -83 609 -79 q 595 -90 599 -87 q 588 -95 591 -93 q 579 -97 584 -97 q 554 -92 566 -97 q 528 -87 541 -87 q 499 -90 514 -87 q 469 -92 485 -92 q 428 -87 450 -92 q 385 -83 406 -83 q 359 -84 371 -83 q 336 -85 348 -85 q 288 -79 311 -85 q 243 -54 266 -74 q 208 -13 227 -39 q 167 36 189 13 q 139 68 152 51 q 110 106 125 85 q 98 116 106 111 q 89 122 90 120 q 83 139 86 127 q 78 163 80 151 q 74 186 75 176 q 72 201 72 197 l 72 229 q 62 317 71 271 q 46 406 54 363 q 43 446 43 425 q 41 486 44 467 q 37 517 39 504 q 35 543 35 530 q 38 568 35 557 q 47 588 42 578 q 58 605 52 597 q 68 624 64 614 q 72 639 71 631 q 74 654 73 647 q 77 667 75 661 q 85 679 79 673 q 92 684 88 683 q 99 686 95 685 q 110 688 104 686 q 123 693 115 689 q 145 706 134 698 q 167 722 156 713 q 187 738 178 730 q 204 749 197 745 q 219 751 212 752 q 235 753 227 751 q 265 766 248 757 q 294 783 282 776 q 321 801 311 792 q 343 815 332 809 q 371 826 355 822 q 416 829 388 829 q 484 825 450 829 q 547 812 518 820 q 591 806 569 807 q 633 800 612 804 q 649 793 642 798 q 664 787 656 789 q 720 781 689 783 q 779 775 750 779 q 832 768 808 772 q 869 753 856 763 q 884 736 878 746 q 895 715 890 726 q 903 694 899 705 q 913 675 907 683 q 934 647 923 659 q 955 624 945 635 q 970 597 964 612 q 977 559 977 582 q 975 541 977 550 q 972 521 972 532 q 975 478 972 501 q 977 432 977 456 l 977 414 m 612 500 q 590 502 604 500 q 557 506 575 503 q 521 510 540 508 q 486 511 503 511 q 447 502 460 511 q 433 463 433 492 q 437 452 433 454 q 449 449 441 449 q 470 451 458 449 q 492 453 482 453 q 510 449 499 452 q 533 444 521 446 q 558 438 545 441 q 582 436 571 436 q 603 440 595 436 q 611 456 611 444 q 610 471 611 463 q 608 486 608 479 q 612 500 608 494 z "},"A":{"ha":799,"x_min":-11,"x_max":746,"o":"m 743 258 q 745 245 745 252 q 746 231 746 238 q 743 194 746 213 q 734 157 739 176 q 723 122 729 139 q 713 92 718 106 q 699 50 703 64 q 689 29 694 35 q 677 22 684 22 q 656 21 670 21 q 629 26 646 21 q 596 42 613 31 q 565 68 579 52 q 545 104 550 83 q 547 118 545 109 q 550 139 550 127 q 548 161 549 146 q 543 192 546 175 q 537 228 541 210 q 530 260 534 245 q 522 285 526 275 q 513 294 517 294 q 487 289 495 294 q 474 278 479 284 q 462 268 469 273 q 441 262 456 262 q 412 266 428 262 q 375 272 395 269 q 332 279 355 276 q 279 282 308 282 q 252 281 264 282 q 236 277 240 280 q 225 253 229 271 q 220 214 222 235 q 216 172 218 193 q 211 139 215 151 q 205 131 210 137 q 196 118 201 125 q 185 101 191 110 q 176 83 180 92 q 162 42 168 65 q 149 -2 157 18 q 130 -37 141 -23 q 98 -52 118 -52 q 74 -45 85 -52 q 55 -32 63 -39 q 41 -17 46 -24 q 35 -7 35 -9 q 19 17 26 7 q 4 33 11 26 q -7 49 -3 41 q -11 71 -11 58 q -11 83 -11 75 q -9 100 -10 92 q -7 117 -8 109 q -4 131 -5 125 q 1 138 -3 134 q 8 146 5 142 q 15 154 12 150 q 18 161 18 157 q 15 172 18 167 q 12 182 12 176 q 13 184 12 183 q 14 186 14 184 q 30 225 20 206 q 49 264 40 244 q 65 306 58 284 q 74 353 73 327 q 74 379 74 365 q 76 408 75 393 q 79 436 77 422 q 86 461 81 450 q 93 468 87 463 q 105 480 98 473 q 117 499 112 488 q 122 525 122 511 q 121 541 122 532 q 119 557 119 549 q 122 573 119 566 q 130 585 125 579 q 139 597 134 591 q 146 611 143 603 q 152 641 151 625 q 153 673 153 657 q 154 705 153 689 q 160 734 155 720 q 166 745 161 741 q 176 754 171 749 q 185 764 181 758 q 189 777 189 769 q 188 788 189 782 q 187 800 187 793 q 194 832 187 816 q 210 864 201 848 q 226 896 219 880 q 233 924 233 911 l 233 937 q 244 964 233 950 q 273 988 254 977 q 315 1007 291 1000 q 366 1014 339 1014 q 392 1010 380 1014 q 416 1002 404 1006 q 443 992 429 997 q 476 987 457 988 q 499 990 487 987 q 523 995 511 992 q 547 1001 535 998 q 571 1003 559 1003 q 587 999 577 1003 q 607 989 597 996 q 628 975 618 983 q 644 958 637 967 q 661 919 656 943 q 668 868 665 895 q 673 814 670 841 q 686 765 677 787 q 694 749 690 756 q 704 734 699 742 q 711 715 708 726 q 714 689 714 705 q 712 651 714 670 q 710 614 710 631 q 714 590 710 600 q 722 573 718 581 q 729 559 726 566 q 733 543 733 553 q 729 514 733 530 q 725 482 725 498 q 730 455 725 467 q 733 431 734 443 q 728 405 732 418 q 720 380 724 392 q 711 355 715 368 q 707 332 707 343 q 711 313 707 322 q 722 296 716 304 q 734 278 728 287 q 743 258 741 269 m 481 435 q 485 450 485 441 q 481 472 485 460 q 474 495 478 484 q 467 515 471 507 q 464 528 464 524 q 466 541 464 534 q 468 555 468 548 q 460 591 468 573 q 444 625 453 610 q 427 651 435 640 q 416 667 418 663 q 410 689 412 677 q 406 710 408 700 q 399 728 404 720 q 386 739 395 735 q 357 659 372 699 q 327 579 342 620 q 300 497 313 539 q 279 408 288 454 q 328 413 303 412 q 382 418 353 414 q 401 420 386 418 q 434 425 417 422 q 466 431 452 428 q 481 435 479 433 z "},"B":{"ha":864,"x_min":5,"x_max":831,"o":"m 831 328 l 831 322 q 826 286 831 307 q 822 243 822 264 q 824 210 822 227 q 825 179 825 193 q 817 149 825 159 q 800 133 809 140 q 782 118 790 126 q 774 92 774 109 q 777 75 774 83 q 779 60 779 67 q 771 35 779 45 q 752 18 764 25 q 726 3 740 10 q 699 -11 711 -3 q 675 -28 686 -18 q 652 -45 665 -37 q 625 -59 640 -54 q 587 -65 609 -65 q 546 -63 568 -65 q 503 -61 524 -61 q 473 -65 485 -61 q 452 -74 462 -69 q 432 -82 442 -78 q 407 -86 422 -86 q 377 -83 392 -86 q 347 -76 362 -79 q 314 -68 331 -72 q 278 -65 297 -65 q 249 -62 260 -65 q 228 -56 237 -59 q 210 -49 218 -52 q 189 -46 201 -46 q 167 -48 178 -46 q 144 -50 156 -50 q 112 -43 132 -50 q 73 -28 92 -37 q 40 -13 54 -20 q 26 -3 26 -5 q 28 2 26 -1 q 31 9 31 4 q 26 23 31 14 q 18 41 22 31 q 9 62 14 52 q 5 83 5 73 q 16 141 5 114 q 41 182 27 168 q 58 194 50 190 q 74 202 66 198 q 89 211 82 206 q 101 227 96 216 q 109 255 106 237 q 111 300 111 272 q 108 325 111 310 q 101 357 105 339 q 95 395 98 375 q 92 437 92 416 q 96 465 92 452 q 104 491 100 478 q 113 518 109 504 q 117 550 117 532 q 114 600 117 572 q 109 658 112 628 q 104 720 106 688 q 102 782 102 751 q 106 842 102 814 q 111 893 111 870 q 101 925 109 910 q 93 954 93 941 q 104 996 93 981 q 137 1018 115 1010 q 191 1029 159 1026 q 265 1035 223 1031 q 293 1040 279 1036 q 320 1048 306 1044 q 349 1056 334 1053 q 382 1059 364 1059 q 446 1056 412 1059 q 510 1053 479 1053 q 564 1056 537 1053 q 610 1059 591 1059 q 633 1055 624 1059 q 651 1044 642 1050 q 670 1029 660 1038 q 694 1010 680 1020 q 715 997 707 1002 q 730 989 724 993 q 744 979 737 985 q 758 962 750 973 q 776 936 766 952 q 795 902 786 920 q 811 869 805 885 q 818 844 818 853 q 813 819 818 830 q 806 790 809 808 q 803 764 804 778 q 800 737 802 751 q 797 710 799 723 q 789 688 794 698 q 765 661 781 674 q 727 638 749 648 q 681 622 705 628 q 633 615 656 615 q 642 601 635 606 q 655 591 648 595 q 671 584 663 587 q 685 576 679 581 q 704 556 694 569 q 724 533 713 544 q 747 515 734 523 q 766 498 761 507 q 773 481 771 492 q 779 461 775 469 q 797 430 788 443 q 813 403 806 416 q 825 372 820 389 q 831 328 829 354 m 582 804 q 572 852 582 833 q 546 883 563 871 q 506 899 529 895 q 457 904 484 904 q 422 903 442 904 q 379 900 401 903 q 336 893 357 898 q 297 879 314 888 q 269 857 279 870 q 258 825 258 844 q 260 799 258 813 q 263 772 261 785 q 267 747 265 759 q 269 726 269 734 q 267 699 269 715 q 265 671 265 684 q 267 656 265 661 q 277 652 269 652 q 306 655 286 652 q 351 664 327 659 q 397 672 375 669 q 431 676 419 676 q 442 675 437 676 q 450 675 447 675 q 456 677 450 675 q 474 683 463 679 q 497 691 484 686 q 523 700 511 695 q 544 709 535 705 q 557 718 553 714 q 564 733 559 721 q 572 761 568 746 q 579 788 576 775 q 582 804 582 800 m 514 478 q 505 485 512 481 q 492 494 497 489 q 479 510 484 505 q 469 517 475 515 q 453 520 463 520 q 424 521 444 521 q 384 521 408 521 q 336 520 359 521 q 295 517 313 519 q 273 513 277 515 q 274 487 273 497 q 276 468 275 476 q 277 454 277 460 q 278 440 278 448 q 277 395 278 411 q 275 367 275 378 q 277 340 275 355 q 279 297 279 325 q 278 263 279 279 q 277 233 277 246 q 291 207 277 215 q 325 197 305 199 q 363 196 344 195 q 395 197 383 197 q 419 200 403 197 q 452 208 435 203 q 486 219 469 213 q 510 233 502 226 q 532 278 526 247 q 539 346 539 309 q 537 386 539 366 q 532 423 535 406 q 524 455 528 441 q 514 478 519 469 z "},"C":{"ha":782,"x_min":21,"x_max":754,"o":"m 754 700 l 754 696 q 751 664 754 686 q 743 617 749 642 q 728 569 736 592 q 707 533 719 546 q 676 517 695 522 q 639 507 656 513 q 609 493 625 502 q 577 476 593 484 q 545 462 561 468 q 514 456 529 456 q 491 461 504 456 q 468 477 479 466 q 450 507 457 489 q 443 553 443 526 q 444 588 443 570 q 446 624 446 606 q 443 667 446 643 q 434 712 439 691 q 422 748 429 733 q 407 762 415 762 q 393 760 401 762 q 375 757 385 757 q 356 760 363 757 q 346 765 350 762 q 338 771 342 768 q 329 774 335 774 q 304 767 313 774 q 292 747 296 760 q 285 720 288 735 q 278 688 283 704 q 266 662 275 676 q 253 632 257 648 q 244 598 248 616 q 235 559 241 579 q 222 517 229 543 q 208 463 215 491 q 197 406 201 434 q 192 355 192 377 q 212 295 192 324 q 265 245 233 265 q 292 236 275 240 q 325 225 309 233 q 351 211 340 218 q 374 198 361 203 q 402 188 386 192 q 446 184 419 184 q 495 190 470 184 q 544 203 521 195 q 586 221 567 211 q 616 241 605 231 q 630 256 621 245 q 651 279 639 267 q 678 301 663 292 q 710 311 693 311 q 721 310 713 311 q 735 303 728 308 q 747 288 742 298 q 753 264 753 279 q 747 223 753 244 q 742 183 742 202 q 743 163 742 175 q 743 139 743 151 q 729 91 743 115 q 677 40 714 66 q 649 25 666 32 q 616 9 632 19 q 582 -11 600 -1 q 553 -21 564 -21 q 532 -18 543 -21 q 507 -16 521 -16 q 465 -17 486 -16 q 422 -18 444 -18 q 398 -18 412 -18 q 372 -17 385 -18 q 345 -14 358 -16 q 321 -11 332 -13 q 302 -9 313 -10 q 281 -7 292 -8 q 263 -5 271 -6 q 253 -3 256 -4 q 244 5 248 -1 q 236 17 240 10 q 226 32 231 24 q 214 45 221 39 q 195 53 205 51 q 179 61 185 56 q 160 85 171 72 q 140 109 150 98 q 123 144 130 125 q 107 174 117 162 q 96 181 103 178 q 81 190 89 185 q 65 199 73 194 q 52 211 57 204 q 44 222 49 213 q 34 240 39 231 q 25 257 28 250 q 21 262 21 264 q 24 273 21 267 q 31 286 27 279 q 38 300 35 293 q 41 311 41 307 q 38 332 41 323 q 33 353 35 341 q 35 413 33 376 q 42 492 37 450 q 53 576 46 534 q 68 653 59 618 q 85 709 75 680 q 94 762 94 737 q 93 780 94 771 q 92 798 92 789 q 102 826 92 816 q 129 844 113 836 q 162 859 144 852 q 193 880 180 867 q 199 892 197 884 q 202 907 201 899 q 205 921 203 914 q 210 932 206 928 q 215 935 212 935 q 224 937 219 936 q 236 939 229 937 q 249 945 242 941 q 259 953 256 949 q 267 961 263 958 q 275 966 270 964 q 288 968 279 968 q 303 967 295 968 q 317 966 311 966 q 338 967 327 966 q 361 968 349 968 q 392 964 380 968 q 414 955 404 960 q 432 944 423 949 q 454 936 441 939 q 491 932 473 932 q 528 931 510 932 q 563 929 545 931 q 596 920 580 926 q 616 905 606 916 q 639 885 627 895 q 664 870 650 876 q 682 856 677 863 q 689 833 686 848 q 699 808 692 819 q 714 786 705 798 q 732 761 723 774 q 747 732 741 747 q 754 700 753 717 z "},"D":{"ha":905,"x_min":3,"x_max":880,"o":"m 880 392 l 880 386 q 878 364 880 376 q 876 340 876 352 q 877 314 876 326 q 878 292 878 302 q 875 259 878 279 q 867 218 872 239 q 854 177 862 197 q 838 147 847 158 q 823 137 834 142 q 799 125 812 131 q 773 112 786 119 q 753 100 760 106 q 734 83 745 94 q 713 61 724 73 q 691 40 702 50 q 671 24 680 30 q 651 13 663 18 q 628 1 640 9 q 615 -10 620 -4 q 605 -20 610 -16 q 595 -28 600 -25 q 582 -31 590 -31 q 552 -29 569 -31 q 516 -25 535 -27 q 477 -21 497 -23 q 439 -20 458 -20 q 410 -23 424 -20 q 384 -31 396 -26 q 360 -38 371 -35 q 340 -41 349 -41 q 293 -33 319 -41 q 241 -20 267 -25 q 217 -16 231 -18 q 190 -13 203 -14 q 162 -8 176 -11 q 139 -3 149 -6 q 128 3 133 -1 q 118 13 123 7 q 105 23 112 18 q 87 32 98 28 q 49 44 65 40 q 23 55 33 47 q 7 77 12 62 q 3 125 3 92 q 9 177 3 157 q 28 197 15 197 q 41 195 34 197 q 54 190 47 193 q 67 184 61 186 q 77 182 73 182 q 95 193 87 182 q 106 221 102 203 q 111 259 110 238 q 113 302 113 281 q 111 380 113 342 q 109 439 109 418 q 110 454 109 447 q 113 468 111 461 q 117 483 115 475 q 118 501 118 491 q 115 565 118 530 q 113 632 113 600 q 114 653 113 640 q 116 680 115 666 q 118 706 117 693 q 119 726 119 718 q 112 737 119 734 q 94 742 105 740 q 71 745 83 743 q 47 752 58 747 q 30 768 37 758 q 22 796 22 778 q 34 826 22 812 q 65 852 46 840 q 107 874 84 864 q 153 893 130 885 q 195 908 175 902 q 225 920 214 915 q 268 940 248 929 q 300 950 288 950 q 320 945 311 950 q 340 940 330 940 q 357 944 349 941 q 374 952 365 948 q 392 959 382 956 q 412 962 401 962 q 439 958 428 962 q 459 948 450 954 q 477 935 469 942 q 498 924 486 928 q 525 917 511 918 q 550 911 538 916 q 601 887 578 899 q 643 859 624 874 q 680 826 663 844 q 714 786 696 808 q 743 757 726 770 q 770 730 760 744 q 785 704 777 720 q 801 669 793 688 q 816 632 808 651 q 829 597 823 614 q 845 554 836 578 q 861 503 853 530 q 874 448 869 476 q 880 392 879 419 m 589 379 q 595 427 595 404 q 592 462 595 445 q 584 495 589 479 q 575 527 580 511 q 568 559 571 543 q 563 594 565 577 q 559 627 562 611 q 553 656 557 642 q 542 684 549 671 q 530 698 538 691 q 517 714 523 705 q 505 732 509 722 q 494 747 500 742 q 475 758 489 753 q 447 774 460 763 q 427 793 435 783 q 412 811 420 803 q 396 824 405 819 q 372 829 387 829 q 352 827 362 829 q 333 823 341 825 q 319 817 324 820 q 314 811 314 814 q 315 796 314 806 q 316 777 315 787 q 318 759 317 768 q 319 747 319 751 q 314 663 317 709 q 311 575 311 617 q 314 528 311 549 q 321 486 317 507 q 330 445 326 466 q 336 400 334 424 q 346 331 340 363 q 353 273 353 298 q 351 234 353 255 q 349 191 349 212 q 353 151 349 170 q 374 153 363 153 q 393 153 384 153 l 415 153 q 448 154 432 153 q 478 162 464 155 q 507 183 493 169 q 533 221 520 197 q 539 234 536 226 q 545 254 542 243 q 552 277 548 264 q 559 301 555 289 q 575 341 566 321 q 589 379 585 361 z "},"E":{"ha":785,"x_min":5,"x_max":782,"o":"m 774 178 q 767 167 772 172 q 761 155 762 162 q 758 137 758 146 q 755 119 757 128 q 750 102 753 111 q 739 87 747 94 q 716 75 731 80 q 684 66 701 71 q 649 58 667 62 q 619 49 632 54 q 600 36 609 44 q 580 18 590 27 q 558 1 570 9 q 533 -11 547 -7 q 507 -16 523 -14 q 478 -20 492 -18 q 446 -25 465 -22 q 406 -32 427 -28 q 362 -37 385 -35 q 318 -39 339 -39 q 284 -36 296 -39 q 262 -28 271 -33 q 245 -17 254 -23 q 225 -7 237 -12 q 186 1 206 -1 q 147 7 167 3 q 108 20 127 12 q 69 49 88 29 q 65 56 67 51 q 61 67 63 61 q 57 79 59 73 q 53 87 55 84 q 38 103 46 97 q 22 116 29 110 q 10 131 15 123 q 5 151 5 139 q 12 170 5 160 q 26 188 18 180 q 45 201 35 196 q 64 207 56 207 l 74 207 q 89 212 83 207 q 98 223 94 216 q 103 238 101 230 q 104 253 104 246 q 102 286 104 267 q 100 328 100 304 q 101 351 100 339 q 102 374 102 363 q 97 402 102 391 q 92 427 93 414 q 86 495 88 458 q 85 572 85 532 q 86 610 85 591 q 89 649 87 630 q 92 685 90 668 q 93 715 93 703 q 82 728 93 724 q 60 741 72 733 q 37 761 47 748 q 26 800 26 774 q 46 850 26 827 q 93 891 65 873 q 152 918 121 908 q 207 928 183 928 q 292 921 248 928 q 380 914 336 914 q 401 917 389 914 q 427 922 412 919 q 459 927 441 924 q 498 929 477 929 q 520 926 512 929 q 535 917 528 922 q 550 906 543 912 q 568 893 557 899 q 587 887 576 889 q 606 880 597 885 q 623 871 615 876 q 636 864 630 866 q 678 853 659 856 q 709 845 696 850 q 729 826 722 839 q 736 787 736 814 q 727 730 736 750 q 702 702 719 711 q 660 690 685 692 q 602 684 635 687 q 543 678 572 680 q 481 676 514 676 q 392 681 441 676 q 294 686 343 686 q 273 686 281 686 q 261 681 265 685 q 255 668 256 677 q 253 643 253 659 q 254 619 253 631 q 256 596 255 607 q 259 578 258 585 q 262 568 261 570 q 286 558 269 562 q 325 552 304 554 q 367 550 346 551 q 400 550 387 550 q 428 553 416 550 q 452 561 441 557 q 473 569 463 566 q 493 572 483 572 q 510 570 504 572 q 519 565 515 568 q 524 559 522 562 q 529 554 526 556 q 542 545 537 549 q 549 536 547 541 q 553 524 552 531 q 554 505 554 517 q 549 446 554 467 q 527 414 543 425 q 480 400 510 404 q 400 396 450 397 q 370 394 382 395 q 353 390 359 393 q 344 382 347 387 q 342 367 342 376 q 341 314 342 335 q 347 279 341 292 q 366 260 352 266 q 410 254 380 254 q 456 256 432 254 q 503 261 479 258 q 550 269 527 264 q 593 277 572 273 q 624 286 610 280 q 651 296 638 291 q 678 305 665 301 q 707 309 692 309 q 763 288 743 309 q 782 227 782 267 q 780 202 782 215 q 774 178 778 189 z "},"F":{"ha":774,"x_min":0,"x_max":775,"o":"m 774 761 q 744 730 768 742 q 689 712 721 719 q 620 704 656 706 q 549 701 583 701 q 491 700 516 700 q 456 700 465 701 q 431 695 443 699 q 408 688 420 691 q 381 682 395 684 q 350 679 368 679 l 340 679 q 353 594 349 637 q 361 503 357 550 q 393 512 378 509 q 424 514 408 514 q 455 515 439 515 q 490 517 471 515 q 533 525 511 519 q 574 532 554 532 q 602 523 589 532 q 623 499 614 513 q 637 468 632 485 q 642 436 642 451 q 632 411 642 425 q 608 387 623 398 q 573 368 593 376 q 533 361 554 361 q 518 364 525 361 q 505 372 511 368 q 492 380 498 376 q 478 383 486 383 q 466 381 474 383 q 451 377 458 379 q 438 373 444 375 q 432 371 433 371 q 410 374 420 371 q 390 376 399 376 q 378 369 382 376 q 375 350 375 361 q 379 314 375 328 q 389 289 383 300 q 401 267 395 278 q 412 241 408 256 q 420 207 416 227 q 428 165 425 187 q 433 122 431 144 q 435 82 435 100 q 433 58 435 74 q 429 25 432 42 q 421 -7 426 8 q 408 -29 416 -22 q 396 -35 405 -33 q 377 -41 387 -38 q 356 -46 366 -43 q 340 -50 346 -48 q 307 -62 326 -54 q 275 -71 289 -71 q 248 -63 264 -71 q 215 -54 232 -56 q 164 -45 182 -52 q 136 -27 146 -39 q 122 4 126 -15 q 113 53 117 24 q 108 66 111 61 q 104 75 104 71 q 107 92 104 83 q 112 110 109 100 q 118 131 115 120 q 121 153 121 141 q 119 176 121 164 q 117 199 117 187 q 122 223 118 211 q 126 249 126 236 q 121 303 126 278 q 117 340 117 328 q 124 362 119 353 q 134 382 129 372 q 143 407 139 393 q 147 441 147 421 q 145 493 147 465 q 143 546 143 520 q 144 578 143 561 q 146 611 146 595 q 137 642 146 633 q 117 654 129 651 q 94 656 106 656 q 75 659 82 655 q 58 668 67 661 q 40 685 48 675 q 26 704 32 694 q 21 724 21 714 q 22 738 21 730 q 22 751 22 745 q 19 773 22 762 q 11 798 16 785 q 3 826 7 810 q 0 860 0 841 q 15 895 0 884 q 51 910 29 905 q 98 919 73 916 q 143 932 123 922 q 183 940 161 940 q 234 931 208 940 q 285 912 260 923 q 331 892 309 902 q 371 880 353 882 q 380 879 375 879 q 390 879 385 879 q 428 882 408 879 q 469 889 448 885 q 508 896 489 892 q 541 899 526 899 q 559 898 549 899 q 579 897 570 897 q 616 900 598 897 q 652 907 635 903 q 684 914 669 911 q 711 917 699 917 q 743 907 731 917 q 753 887 747 903 q 763 851 758 871 q 772 810 768 831 q 775 775 775 789 q 775 767 775 771 q 774 761 775 763 z "},"G":{"ha":852,"x_min":24,"x_max":861,"o":"m 852 323 q 841 316 849 319 q 822 311 832 313 q 803 306 812 308 q 789 301 794 303 q 762 293 774 296 q 742 285 750 290 q 729 275 734 281 q 725 260 725 269 q 727 240 725 251 q 731 220 729 230 q 735 200 733 210 q 737 183 737 191 q 736 170 737 176 q 736 158 736 163 q 739 142 736 149 q 747 129 743 136 q 758 116 752 123 q 766 100 763 109 q 774 77 770 92 q 782 43 778 62 q 788 6 785 25 q 790 -29 790 -13 q 781 -66 790 -53 q 758 -86 772 -79 q 728 -94 744 -92 q 699 -96 712 -96 q 657 -84 677 -96 q 623 -52 637 -72 q 599 -4 608 -31 q 590 53 590 22 q 590 65 590 58 q 591 79 590 72 q 571 71 577 78 q 563 53 566 63 q 558 31 560 42 q 549 9 555 19 q 518 -16 540 -3 q 471 -40 497 -29 q 419 -57 446 -50 q 374 -64 393 -64 q 342 -56 353 -64 q 322 -40 331 -49 q 301 -24 313 -32 q 271 -17 290 -17 l 253 -17 q 202 -9 224 -17 q 161 9 180 -2 q 124 33 142 20 q 85 57 106 46 q 62 71 73 63 q 43 92 52 79 q 29 123 34 104 q 24 168 24 141 q 26 190 24 180 q 31 210 28 200 q 35 229 33 219 q 37 249 37 238 q 37 262 37 256 q 36 275 36 269 q 40 298 36 288 q 50 319 45 309 q 59 340 55 330 q 64 364 64 351 q 61 392 64 378 q 55 419 58 405 q 49 447 52 433 q 46 478 46 462 q 48 511 46 490 q 56 550 50 531 q 62 562 57 556 q 68 572 66 567 q 71 592 70 583 q 73 610 72 601 q 75 627 74 618 q 81 644 77 635 q 101 684 89 665 q 119 722 114 703 q 126 759 125 740 q 132 794 127 778 q 140 820 135 804 q 151 851 144 835 q 165 882 157 867 q 183 907 174 897 q 202 921 193 916 q 223 928 212 926 q 249 933 235 931 q 282 940 263 935 q 323 951 300 944 q 370 966 346 959 q 416 978 393 973 q 454 983 438 983 q 500 973 478 983 q 544 949 523 962 q 583 923 564 936 q 621 907 602 911 q 653 902 637 903 q 684 899 669 901 q 711 894 699 898 q 733 880 724 890 q 746 858 741 872 q 754 826 751 844 q 760 790 758 809 q 766 753 763 770 q 780 700 773 724 q 789 659 787 675 q 789 641 789 654 q 788 612 789 627 q 785 583 787 597 q 781 564 783 570 q 768 552 775 555 q 751 548 761 549 q 729 546 741 547 q 703 542 718 545 q 681 532 690 538 q 663 522 671 527 q 647 512 654 517 q 629 507 639 508 q 613 511 625 507 q 587 517 600 515 q 555 518 571 517 q 527 523 540 519 q 506 532 514 526 q 498 551 498 539 q 500 574 498 561 q 503 606 503 588 q 496 641 503 625 q 489 671 489 657 q 489 701 489 686 q 484 727 489 715 q 468 747 479 739 q 432 754 456 754 q 404 753 419 754 q 374 749 388 751 q 348 745 359 747 q 334 739 337 742 q 324 709 326 732 q 317 653 322 686 q 306 614 313 633 q 296 576 299 594 q 293 550 292 563 q 290 525 294 538 q 286 506 289 517 q 281 481 283 494 q 276 455 278 469 q 273 431 273 442 q 278 410 273 419 q 282 387 282 401 q 276 345 282 368 q 269 301 269 323 q 274 286 269 292 q 278 269 278 280 q 277 257 278 263 q 275 244 275 251 q 284 218 275 233 q 306 189 294 203 q 329 164 317 175 q 347 151 341 154 q 371 141 357 146 q 400 132 386 136 q 426 127 414 129 q 439 125 437 125 q 488 137 467 125 q 523 167 508 149 q 547 210 537 186 q 566 258 557 234 q 503 241 530 251 q 453 232 477 232 q 424 237 437 232 q 405 253 415 240 q 387 284 395 267 q 374 320 379 301 q 368 353 368 338 q 375 383 368 368 q 393 412 382 399 q 415 432 404 425 q 436 440 427 440 q 482 434 457 440 q 539 428 507 428 q 615 431 576 428 q 690 435 654 435 q 709 433 700 435 q 728 431 718 431 q 767 437 747 432 q 806 443 787 443 q 846 420 831 443 q 861 357 861 397 q 859 338 861 347 q 852 323 857 329 z "},"H":{"ha":843,"x_min":53,"x_max":811,"o":"m 803 241 l 803 235 q 801 215 803 225 q 799 195 799 204 q 806 141 800 169 q 811 89 811 114 q 806 58 811 72 q 790 32 802 43 q 766 21 782 24 q 730 9 749 18 q 707 -4 717 3 q 686 -11 696 -11 q 655 -5 673 -11 q 616 9 636 1 q 576 27 595 18 q 542 45 556 37 q 514 66 524 54 q 500 96 504 79 q 495 137 496 113 q 494 196 494 161 q 495 258 494 223 q 496 323 496 292 q 496 374 496 347 q 486 422 496 401 q 465 429 481 428 q 431 431 450 431 q 399 430 415 431 q 370 429 383 429 q 337 436 351 429 q 309 443 323 443 q 293 438 302 443 q 285 418 285 433 q 286 401 285 410 q 289 384 288 392 q 292 369 290 376 q 293 361 293 363 q 291 312 293 336 q 289 271 289 288 q 292 236 289 256 q 297 195 294 216 q 303 150 300 173 q 306 106 306 127 q 297 48 306 71 q 270 14 289 26 q 222 -3 252 1 q 150 -8 192 -8 q 113 3 130 -8 q 83 27 96 14 q 63 54 71 41 q 56 72 56 67 q 58 89 56 80 q 62 106 60 97 q 67 124 65 115 q 69 142 69 134 q 66 165 69 153 q 61 189 64 177 q 55 212 58 200 q 53 233 53 223 q 57 271 53 251 q 61 309 61 291 q 60 362 61 334 q 58 419 58 390 q 59 448 58 434 q 61 478 59 463 q 66 490 62 486 q 69 501 69 494 q 65 526 69 514 q 61 550 61 537 q 64 602 61 573 q 70 662 66 631 q 77 724 74 693 q 79 782 79 755 q 75 817 79 799 q 71 850 71 834 q 76 870 71 857 q 92 895 81 882 q 118 916 102 907 q 153 925 133 925 q 190 920 174 925 q 215 907 205 915 q 229 889 224 899 q 233 871 233 880 q 231 840 233 855 q 229 817 229 824 q 235 797 231 807 q 241 774 239 787 q 247 720 245 749 q 250 665 249 690 q 252 622 251 640 q 254 602 252 604 q 275 594 259 597 q 312 591 292 592 q 354 590 332 590 q 392 589 376 589 q 418 585 404 587 q 446 583 432 583 q 473 594 467 583 q 479 623 479 605 q 476 659 479 640 q 473 688 473 677 q 478 706 473 698 q 482 722 482 714 q 478 792 482 757 q 473 859 473 828 q 477 889 473 871 q 490 924 481 907 q 516 953 500 941 q 558 965 532 965 q 599 959 576 965 q 644 945 623 954 q 684 925 666 936 q 708 903 701 913 q 716 880 714 893 q 720 851 719 867 q 721 820 721 836 q 722 790 721 804 q 726 745 724 770 q 731 692 728 720 q 739 637 734 665 q 751 585 743 610 q 759 566 754 574 q 768 550 764 557 q 775 535 772 542 q 778 521 779 528 q 776 503 778 511 q 774 482 774 494 q 780 425 774 456 q 786 364 786 395 q 785 343 786 353 q 785 323 785 333 q 787 303 785 313 q 793 282 790 292 q 800 262 797 272 q 803 241 802 252 z "},"I":{"ha":380,"x_min":41,"x_max":349,"o":"m 347 688 q 342 664 346 675 q 339 637 339 653 q 340 597 339 618 q 342 559 342 577 q 338 530 342 541 q 329 510 334 518 q 316 494 323 501 q 303 476 309 486 q 294 450 298 466 q 290 411 290 435 q 293 312 290 363 q 296 203 296 260 q 294 167 296 184 q 290 133 292 150 q 283 100 287 117 q 275 65 279 83 q 267 28 271 44 q 253 1 262 12 q 227 -15 244 -9 q 179 -21 210 -21 q 146 -11 157 -21 q 131 15 136 -1 q 123 51 126 31 q 111 92 119 71 q 100 111 106 104 q 89 126 94 118 q 80 145 83 134 q 77 179 77 157 q 78 217 77 197 q 82 259 80 237 q 86 302 84 280 q 87 346 87 324 q 85 379 87 365 q 79 406 82 393 q 73 433 76 419 q 71 467 71 447 q 73 497 71 486 q 78 517 75 509 q 84 534 81 526 q 86 554 86 543 q 79 577 86 566 q 63 599 72 589 q 48 619 55 609 q 43 637 41 629 q 45 650 43 643 q 49 666 47 658 q 54 683 52 675 q 56 700 56 692 q 48 753 56 728 q 41 803 41 779 q 41 810 41 806 q 43 817 41 813 q 52 838 44 825 q 68 864 59 851 q 87 885 78 876 q 102 895 97 895 q 110 894 106 895 q 117 893 113 893 q 152 896 130 893 q 196 899 173 899 q 230 898 213 899 q 261 895 247 897 q 287 889 276 892 q 304 880 298 886 q 312 867 307 879 q 325 842 318 856 q 337 815 332 828 q 343 799 342 803 q 347 766 345 787 q 349 722 349 745 q 348 705 349 714 q 347 688 347 696 z "},"J":{"ha":828,"x_min":-8,"x_max":785,"o":"m 774 597 q 772 517 772 557 q 770 439 772 477 q 765 407 768 423 q 761 375 761 391 q 763 351 761 362 q 765 329 765 340 q 761 306 765 317 q 753 281 756 294 q 749 251 750 267 q 748 220 749 235 q 747 190 747 204 q 743 164 746 176 q 734 146 741 156 q 718 126 727 136 q 701 106 709 116 q 688 87 692 96 q 681 71 684 80 q 676 54 678 62 q 672 37 674 45 q 667 24 670 28 q 650 9 661 16 q 626 -3 639 2 q 598 -12 612 -8 q 572 -20 585 -16 q 526 -33 547 -26 q 485 -46 505 -40 q 444 -55 465 -52 q 399 -58 423 -58 q 345 -55 372 -58 q 293 -46 318 -52 q 246 -33 268 -41 q 207 -16 224 -25 q 189 -9 199 -11 q 174 -3 179 -7 q 158 13 166 3 q 139 32 149 24 q 94 66 116 49 q 57 113 73 83 q 51 137 52 123 q 45 164 50 151 q 33 185 40 176 q 24 203 26 195 q 20 225 21 213 q 17 251 18 237 q 14 277 16 264 q 9 301 12 290 q -1 344 5 321 q -8 385 -8 367 q -3 402 -8 396 q 8 414 1 409 q 23 425 15 419 q 36 439 31 430 q 45 458 42 448 q 51 479 47 469 q 58 498 54 489 q 71 513 62 507 q 87 519 78 517 q 105 522 96 522 q 124 523 114 522 q 143 525 134 523 q 167 533 158 528 q 186 538 176 538 q 220 530 205 538 q 250 517 235 523 q 284 500 269 509 q 310 481 298 492 q 332 456 322 470 q 353 422 342 442 q 364 397 361 407 q 369 378 368 387 q 370 357 370 369 q 371 323 370 345 q 375 290 371 307 q 379 256 379 273 q 378 223 379 240 q 378 191 378 207 q 380 143 378 166 q 391 101 383 119 q 415 71 399 83 q 456 60 430 60 q 478 68 469 60 q 494 91 488 77 q 506 121 501 104 q 516 154 511 138 q 526 183 521 170 q 538 203 531 196 q 542 221 542 207 q 539 259 542 242 q 536 293 536 276 q 542 374 536 333 q 547 457 547 415 q 544 495 547 478 q 537 529 541 513 q 530 565 533 546 q 526 607 526 583 l 526 653 q 523 685 526 665 q 516 728 519 704 q 509 779 512 751 q 505 832 505 806 q 512 873 505 859 q 528 896 518 888 q 551 906 538 903 q 576 911 564 909 q 608 916 591 913 q 640 918 625 918 q 665 915 656 918 q 681 905 674 911 q 695 892 688 899 q 714 876 703 884 q 744 862 730 866 q 765 851 759 859 q 780 812 776 837 q 785 757 785 787 q 780 672 785 715 q 774 597 776 629 z "},"K":{"ha":852,"x_min":45,"x_max":846,"o":"m 844 765 q 818 721 840 740 q 769 687 797 703 q 712 659 741 672 q 664 632 683 646 q 648 621 658 627 q 629 607 638 614 q 614 593 621 600 q 608 579 608 585 q 614 558 608 569 q 629 537 621 547 q 645 517 637 526 q 656 503 652 509 q 660 490 659 497 q 663 475 662 483 q 667 459 665 467 q 672 443 669 451 q 689 412 679 428 q 710 381 699 397 q 731 352 721 366 q 750 323 742 337 q 767 292 758 309 q 785 258 775 274 q 798 240 791 248 q 810 226 805 233 q 820 212 816 219 q 823 195 823 205 q 807 153 823 173 q 766 117 791 134 q 710 88 741 101 q 652 65 680 75 q 622 54 635 60 q 604 49 610 49 q 559 68 576 50 q 530 112 542 86 q 511 165 519 137 q 493 215 503 193 q 477 240 488 227 q 458 268 466 254 q 446 296 452 278 q 432 334 439 314 q 417 376 425 355 q 401 413 409 397 q 386 441 393 430 q 371 452 378 452 q 361 448 367 452 q 350 440 355 445 q 340 431 345 435 q 334 427 336 427 q 319 419 326 420 q 308 414 313 417 q 301 406 304 412 q 298 386 298 399 q 306 351 298 370 q 317 310 313 331 q 323 263 321 287 q 329 221 326 239 q 336 177 332 200 q 343 133 340 155 q 350 90 347 111 q 353 53 353 69 q 351 41 353 50 q 347 22 350 33 q 338 1 344 12 q 325 -16 333 -9 q 304 -24 320 -19 q 269 -35 288 -30 q 230 -43 249 -39 q 201 -46 212 -46 q 176 -44 192 -46 q 143 -40 160 -43 q 111 -33 126 -37 q 89 -24 96 -29 q 68 2 77 -16 q 55 39 60 20 q 47 76 50 59 q 45 100 45 93 q 48 158 45 128 q 56 219 52 189 q 64 278 60 249 q 68 336 68 308 q 67 369 68 351 q 64 404 66 387 q 59 421 62 412 q 56 439 56 431 q 59 476 56 455 q 66 520 62 497 q 73 566 70 543 q 77 611 77 589 q 72 673 77 645 q 68 722 68 701 q 72 743 68 730 q 77 764 77 756 q 76 776 77 770 q 75 787 75 782 q 83 813 75 804 q 99 829 90 822 q 115 847 107 837 q 122 876 122 857 l 122 893 q 131 938 122 922 q 156 961 140 954 q 197 970 173 968 q 253 971 222 971 q 273 966 265 971 q 285 954 280 962 q 291 936 290 946 q 293 916 293 926 q 288 868 293 894 q 282 817 283 842 q 277 761 280 787 q 272 708 275 734 q 268 656 270 682 q 267 602 267 630 q 267 582 267 589 q 272 575 268 575 q 284 580 276 575 q 302 591 293 585 q 319 603 311 597 q 329 611 326 609 q 397 658 366 637 q 458 697 428 679 q 519 733 488 715 q 587 770 551 750 q 623 792 605 779 q 652 808 640 804 q 672 810 660 810 q 690 812 685 810 q 710 824 698 815 q 738 841 723 832 q 768 858 752 850 q 798 865 784 865 q 831 844 817 865 q 846 787 846 822 q 846 776 846 782 q 844 765 846 770 z "},"L":{"ha":657,"x_min":7,"x_max":664,"o":"m 661 160 q 663 149 663 155 q 664 138 664 143 q 650 64 664 94 q 610 13 635 33 q 550 -21 585 -8 q 476 -40 516 -33 q 392 -48 436 -46 q 304 -50 349 -50 q 255 -49 279 -50 q 210 -46 231 -48 q 164 -33 184 -43 q 125 -20 144 -24 q 89 -15 109 -16 q 50 -11 68 -14 q 19 -1 32 -8 q 7 22 7 7 q 9 36 7 28 q 17 53 12 43 l 17 52 q 22 56 18 52 q 32 66 27 60 q 40 76 37 71 q 43 79 43 80 q 62 86 53 86 q 78 90 71 87 q 88 104 84 94 q 92 140 92 114 q 91 188 92 163 q 89 234 90 213 q 87 271 87 256 q 86 290 86 286 q 87 356 86 321 q 87 427 87 390 q 85 493 87 460 q 79 559 82 527 q 73 624 76 592 q 71 684 71 655 q 74 718 71 702 q 80 748 77 733 q 87 778 84 763 q 90 810 90 792 q 87 856 90 833 q 83 901 83 878 q 85 941 83 924 q 93 969 87 958 q 110 986 99 981 q 139 991 121 991 q 179 986 162 991 q 210 974 196 981 q 237 958 224 966 q 267 945 250 950 q 302 936 288 937 q 327 931 316 935 q 345 920 337 928 q 359 889 352 911 q 364 873 361 883 q 368 851 366 863 q 371 824 370 838 q 372 796 372 810 q 369 723 372 762 q 366 650 366 684 q 368 615 366 632 q 370 581 370 597 q 363 483 368 532 q 354 383 359 433 q 347 281 350 333 q 343 175 343 229 q 342 164 343 170 q 342 155 342 159 q 347 149 343 151 q 358 146 350 146 q 423 152 389 146 q 488 164 457 157 q 545 177 519 172 q 585 183 570 183 q 609 182 596 183 q 632 179 621 181 q 651 172 644 176 q 661 160 659 167 z "},"M":{"ha":1013,"x_min":37,"x_max":983,"o":"m 983 340 q 978 260 983 302 q 963 181 972 218 q 938 116 953 144 q 905 79 924 89 q 884 71 898 75 q 853 63 870 66 q 817 58 836 60 q 782 56 799 56 q 755 60 771 56 q 726 72 740 64 q 702 93 711 81 q 692 122 692 106 q 691 150 692 136 q 690 178 690 164 q 692 269 690 222 q 693 366 693 316 q 691 458 693 412 q 682 554 688 505 q 654 528 667 544 q 630 493 642 511 q 609 454 619 474 q 587 418 599 435 q 563 391 577 402 q 541 367 549 380 q 531 340 532 353 q 524 318 530 328 q 505 302 519 308 q 457 297 490 296 q 424 304 436 297 q 404 325 412 312 q 387 355 395 338 q 366 392 378 372 q 350 410 358 402 q 335 427 341 417 q 318 456 327 439 q 301 489 309 472 q 285 523 293 506 q 271 554 277 540 q 273 501 272 528 q 273 444 273 474 l 273 367 q 274 317 273 342 q 275 268 274 292 q 279 239 276 254 q 284 208 281 224 q 290 177 288 193 q 293 147 293 161 q 291 126 293 133 q 283 114 288 119 q 272 104 279 109 q 254 87 264 98 q 236 64 244 77 q 217 42 227 52 q 195 25 207 32 q 165 18 182 18 q 121 24 144 18 q 80 42 99 31 q 49 69 61 53 q 37 106 37 85 q 44 169 37 132 q 50 249 50 206 q 52 276 50 265 q 57 297 54 288 q 64 317 60 307 q 69 340 67 327 q 74 385 73 361 q 77 434 76 408 q 80 486 79 459 q 82 538 81 512 q 85 562 83 550 q 90 585 87 573 q 94 610 92 597 q 96 639 96 623 q 93 665 96 653 q 88 690 91 677 q 83 718 85 703 q 81 751 81 732 q 84 778 81 764 q 94 809 88 793 q 105 842 99 825 q 117 876 111 859 q 120 894 119 885 q 121 910 121 903 q 121 924 121 918 q 125 932 122 929 q 134 938 126 935 q 150 945 141 941 q 166 951 158 949 q 176 954 174 954 q 194 948 186 954 q 215 940 201 943 q 254 935 235 936 q 290 931 273 933 q 320 925 307 929 q 343 911 334 921 q 361 885 353 901 q 377 851 369 869 q 392 815 385 833 q 408 782 400 797 q 426 757 416 768 q 441 734 436 746 q 446 717 446 727 q 452 700 447 707 q 465 676 454 695 q 489 636 475 657 q 513 597 502 614 q 528 581 524 581 q 543 592 536 581 q 557 621 550 604 q 571 657 564 637 q 587 692 578 676 q 612 725 598 709 q 635 761 625 741 q 647 794 641 774 q 661 837 654 814 q 678 883 669 860 q 699 925 687 906 q 724 955 710 943 q 757 966 739 966 q 772 964 766 966 q 784 958 778 962 q 799 949 791 954 q 819 940 807 944 q 843 935 831 937 q 865 930 854 932 q 885 925 876 928 q 901 916 895 922 q 912 897 908 908 q 919 871 916 885 q 922 842 921 858 q 924 811 923 827 q 922 767 924 788 q 921 726 921 745 q 923 699 921 711 q 929 676 926 688 q 935 649 932 664 q 937 612 937 634 q 936 569 937 591 q 935 525 935 546 q 938 484 935 499 q 947 458 942 469 q 959 439 953 448 q 970 418 965 431 q 974 402 972 412 q 978 381 976 392 q 981 359 980 370 q 983 340 983 348 z "},"N":{"ha":807,"x_min":50,"x_max":751,"o":"m 750 349 q 751 338 750 343 q 751 328 751 333 q 747 267 751 298 q 742 203 742 235 q 743 178 742 191 q 743 151 743 165 q 741 117 743 134 q 732 86 739 100 q 712 64 725 73 q 677 56 699 56 q 655 59 665 56 q 636 67 646 63 q 615 76 626 72 q 590 79 604 79 q 562 78 578 79 q 529 77 546 77 q 496 80 506 77 q 481 90 486 83 q 476 107 477 97 q 468 131 474 117 q 458 142 465 136 q 446 155 451 147 q 437 172 440 164 q 431 185 434 179 q 424 198 428 192 q 411 211 419 204 q 398 221 403 217 q 389 229 393 225 q 380 239 385 233 q 370 254 376 244 q 350 286 359 269 q 330 319 341 302 q 303 349 319 336 q 279 375 288 361 q 267 398 273 385 q 256 424 261 410 q 246 452 251 438 q 236 478 241 466 q 237 370 238 425 q 240 262 237 316 q 245 220 241 239 q 249 178 249 201 q 242 132 249 158 q 232 75 235 106 q 228 36 229 52 q 222 9 227 20 q 204 -6 216 -1 q 167 -11 192 -11 q 150 -10 159 -11 q 131 -7 140 -9 q 114 -3 122 -5 q 103 1 106 -1 q 96 14 100 3 q 86 32 92 24 q 75 44 80 39 q 67 56 71 50 q 62 73 64 63 q 60 98 60 83 q 64 169 60 132 q 68 237 68 205 q 63 271 68 251 q 58 313 58 292 q 59 366 58 340 q 60 418 60 392 q 55 510 60 465 q 50 599 50 555 q 54 630 50 616 q 62 659 58 644 q 70 690 66 673 q 74 730 74 707 q 73 748 74 739 q 72 765 72 757 q 97 831 72 809 q 165 852 123 852 q 208 848 184 852 q 254 838 232 844 q 293 824 276 832 q 317 808 311 817 q 325 787 323 801 q 335 761 328 772 q 356 737 343 747 q 374 718 368 726 q 378 702 377 713 q 386 679 380 692 q 401 659 391 669 q 421 636 412 648 q 436 614 429 626 q 450 593 443 602 q 489 556 469 572 q 524 521 509 540 q 544 488 535 505 q 560 457 553 471 q 572 433 567 443 q 583 424 578 424 q 590 436 589 424 q 591 465 591 448 q 591 493 591 478 q 589 522 590 508 q 588 547 589 536 q 587 564 587 558 q 592 587 587 574 q 596 616 596 599 q 593 674 596 644 q 590 734 590 704 q 594 774 590 755 q 602 811 597 793 q 610 845 606 828 q 614 878 614 861 q 611 908 614 895 q 606 933 609 922 q 601 956 604 945 q 599 977 599 966 q 603 998 599 987 q 614 1016 607 1008 q 632 1029 621 1024 q 656 1034 642 1034 q 671 1032 659 1034 q 697 1022 684 1030 q 722 996 711 1013 q 733 946 733 978 q 731 918 733 932 q 729 886 729 904 q 731 822 729 854 q 737 761 734 791 q 742 704 740 732 q 745 653 745 677 q 740 574 745 612 q 736 509 736 536 q 741 427 736 469 q 750 349 747 385 z "},"O":{"ha":730,"x_min":35,"x_max":704,"o":"m 704 178 q 698 165 703 172 q 687 150 694 159 q 674 131 681 141 q 661 109 667 121 q 646 78 652 91 q 634 54 640 65 q 621 34 629 43 q 602 14 614 24 q 582 -1 590 3 q 563 -7 573 -5 q 539 -10 553 -9 q 503 -16 525 -11 q 471 -26 485 -20 q 446 -33 456 -32 q 412 -28 430 -33 q 371 -22 394 -22 q 343 -23 357 -22 q 314 -24 329 -24 q 271 -22 292 -24 q 228 -16 250 -21 q 186 -1 203 -10 q 150 18 169 9 q 134 24 142 21 q 116 29 125 26 q 100 34 107 31 q 90 40 93 37 q 82 62 85 46 q 76 97 79 77 q 70 138 73 117 q 60 178 66 159 q 51 198 56 190 q 43 216 47 207 q 37 235 39 224 q 35 262 35 246 q 40 332 35 297 q 45 395 45 367 q 43 426 45 410 q 41 457 41 442 q 51 515 41 484 q 69 581 61 546 q 85 658 79 623 q 98 730 91 694 q 115 769 103 751 q 145 801 127 787 q 186 822 163 814 q 236 833 209 831 q 238 836 237 833 q 243 838 239 838 q 333 837 289 838 q 414 828 376 836 q 484 799 452 819 q 536 739 515 779 q 543 720 542 730 q 550 700 545 709 q 571 670 558 683 q 591 644 584 658 q 604 611 599 629 q 618 576 608 593 q 641 538 629 557 q 664 503 653 520 q 681 469 674 486 q 688 437 688 453 q 687 418 688 428 q 686 399 686 409 q 690 374 686 386 q 696 349 694 361 q 692 308 696 329 q 689 265 689 287 q 691 247 689 257 q 696 225 694 236 q 702 203 699 214 q 704 183 704 192 l 704 178 m 464 310 q 459 335 464 326 q 450 361 454 345 q 447 387 448 374 q 441 414 446 400 q 431 441 437 427 q 424 469 425 456 q 425 482 424 476 q 425 496 425 488 q 417 553 425 524 q 395 606 408 582 q 364 646 381 630 q 329 661 347 661 q 315 661 323 661 q 300 659 307 660 q 288 658 293 659 q 283 659 283 658 q 277 647 278 654 q 275 631 275 640 q 276 614 275 623 q 277 595 277 605 q 272 552 277 579 q 262 494 267 525 q 259 470 260 482 q 257 445 258 457 q 255 422 256 433 q 253 404 254 412 q 249 395 252 401 q 240 384 245 390 q 232 371 236 377 q 228 361 229 365 q 224 328 224 345 q 231 265 224 289 q 256 228 239 241 q 300 210 273 215 q 367 205 327 205 q 391 207 380 205 q 408 211 402 208 q 424 228 414 214 q 441 257 433 241 q 457 288 450 273 q 464 310 463 303 z "},"P":{"ha":689,"x_min":-8,"x_max":690,"o":"m 690 559 q 686 537 690 545 q 677 517 681 530 q 666 449 671 487 q 651 377 661 412 q 626 315 642 342 q 579 281 609 288 q 561 278 572 279 q 536 277 549 277 q 509 275 523 276 q 481 272 494 274 q 445 262 461 269 q 416 254 429 256 q 391 253 406 253 q 362 252 376 252 q 340 250 349 252 q 330 244 330 248 q 336 180 330 214 q 347 113 341 146 q 359 47 353 79 q 364 -14 364 15 q 363 -31 364 -21 q 359 -50 362 -40 q 350 -71 356 -60 q 335 -89 345 -81 q 311 -96 326 -95 q 279 -106 295 -97 q 269 -114 273 -109 q 261 -123 265 -119 q 250 -131 256 -127 q 232 -134 244 -134 q 214 -131 222 -134 q 200 -124 207 -128 q 187 -117 193 -121 q 172 -110 180 -113 q 139 -100 155 -104 q 111 -90 123 -96 q 92 -72 99 -83 q 85 -36 85 -60 q 87 -9 85 -24 q 90 18 90 5 q 86 80 90 51 q 82 126 82 109 q 86 145 82 134 q 96 168 91 157 q 106 190 102 180 q 111 207 111 200 q 113 223 113 216 q 114 239 114 231 q 112 275 114 257 q 106 311 109 294 q 101 346 103 329 q 98 379 98 363 q 101 475 98 425 q 105 576 103 525 q 110 680 108 627 q 113 785 113 732 q 111 803 113 796 q 102 810 109 810 q 88 808 96 810 q 71 804 80 806 q 53 800 62 802 q 36 798 44 798 q 26 799 29 798 q 18 803 24 800 q 6 811 12 806 q -4 822 1 816 q -8 833 -8 827 q -3 852 -8 842 q 4 872 2 862 q 7 897 8 888 q 12 916 6 907 q 27 925 18 921 q 48 931 37 928 q 70 934 59 933 q 86 936 80 935 q 176 940 125 940 q 243 938 209 940 q 310 933 277 937 q 374 926 343 930 q 429 916 404 921 q 478 897 455 909 q 522 866 501 884 q 560 829 542 849 q 596 790 578 809 q 613 771 605 780 q 628 754 621 762 q 638 739 634 747 q 642 721 642 730 l 642 705 q 644 688 642 694 q 650 676 647 681 q 658 666 654 671 q 665 653 662 661 q 667 635 667 646 q 669 615 666 625 q 683 584 675 596 q 690 559 690 572 m 456 581 q 451 599 456 587 q 446 629 446 612 l 446 657 q 436 718 446 690 q 413 764 427 745 q 380 794 398 783 q 345 804 362 804 q 324 803 334 804 q 301 802 314 802 q 283 803 293 802 q 262 808 273 804 q 264 781 263 801 q 267 734 265 762 q 270 673 268 706 q 274 607 272 640 q 278 543 276 574 q 282 488 280 511 q 286 449 284 464 q 290 435 288 435 q 306 437 298 435 q 319 443 313 439 q 332 450 326 446 q 347 456 339 453 q 366 460 355 458 q 386 463 376 461 q 405 469 396 465 q 421 478 414 472 q 430 503 429 486 q 437 542 431 519 q 448 563 441 553 q 456 581 454 573 z "},"Q":{"ha":749,"x_min":20,"x_max":715,"o":"m 710 652 q 700 530 705 591 q 693 415 695 469 q 688 385 692 397 q 684 357 684 372 q 685 332 684 345 q 686 306 686 319 q 679 239 686 268 q 661 187 672 210 q 637 146 650 164 q 611 111 623 127 q 591 84 601 98 q 564 60 581 71 q 552 55 560 56 q 534 50 543 54 q 523 41 527 47 q 513 33 519 35 q 479 25 503 30 q 430 16 456 21 q 383 4 404 11 q 358 -9 362 -2 q 364 -35 362 -22 q 369 -60 366 -49 q 381 -80 373 -72 q 404 -87 389 -87 q 431 -84 417 -87 q 457 -75 445 -80 q 478 -66 469 -71 q 492 -61 488 -62 q 517 -54 502 -58 q 547 -45 532 -50 q 575 -39 562 -41 q 597 -36 589 -36 q 623 -45 612 -36 q 643 -71 635 -54 q 654 -109 650 -87 q 659 -157 659 -131 q 652 -213 659 -187 q 629 -250 645 -239 q 609 -258 625 -253 q 575 -267 593 -262 q 542 -276 557 -272 q 522 -279 526 -279 q 485 -273 507 -279 q 436 -267 462 -267 q 397 -268 414 -267 q 366 -269 380 -269 q 318 -259 341 -269 q 278 -229 296 -248 q 250 -181 260 -209 q 239 -119 239 -154 q 242 -99 239 -111 q 249 -73 245 -87 q 256 -44 253 -58 q 260 -17 260 -29 q 244 9 260 1 q 207 20 229 17 q 161 25 184 24 q 122 33 138 27 q 95 51 106 39 q 74 77 83 62 q 57 111 65 92 q 40 149 50 129 q 27 182 34 162 q 20 222 20 201 q 23 253 20 237 q 32 287 26 269 q 42 322 37 304 q 50 359 47 340 q 58 436 56 396 q 66 510 60 475 q 73 527 68 518 q 79 545 77 535 q 87 596 85 568 q 91 651 89 624 q 97 702 93 677 q 110 742 100 726 q 120 751 113 747 q 135 759 127 755 q 153 768 144 763 q 170 779 161 772 q 178 790 175 784 q 184 804 182 797 q 189 817 186 810 q 196 827 192 823 q 208 833 199 831 q 221 840 216 836 q 231 852 229 846 q 239 861 233 858 q 280 876 254 870 q 332 892 307 882 q 377 914 356 901 q 414 935 397 927 q 435 936 422 937 q 461 939 448 935 q 476 943 469 941 q 489 946 482 945 q 504 949 496 948 q 525 951 513 951 q 529 954 526 951 q 534 956 531 956 q 556 952 543 956 q 581 943 568 948 q 603 931 593 937 q 619 921 614 926 q 630 908 625 916 q 640 892 635 901 q 650 874 645 883 q 663 857 656 865 q 688 837 674 844 q 705 822 701 829 q 713 794 711 812 q 715 754 715 776 q 714 700 715 728 q 710 652 712 672 m 492 424 q 487 446 490 435 q 480 467 484 456 q 474 490 477 477 q 471 519 471 503 q 465 558 471 543 q 452 585 460 574 q 437 607 445 597 q 427 629 430 617 q 420 669 422 645 q 416 717 419 694 q 407 757 414 741 q 386 774 401 774 q 327 758 349 774 q 293 716 305 743 q 277 655 281 690 q 270 581 272 620 q 265 502 267 543 q 256 424 263 461 q 251 411 254 419 q 244 394 248 403 q 237 377 241 385 q 233 364 234 369 q 229 342 232 358 q 224 303 227 326 q 219 255 221 281 q 216 204 216 229 q 220 179 216 188 q 229 165 223 171 q 243 155 235 159 q 260 144 251 151 q 283 127 271 135 q 309 119 295 119 q 340 124 321 119 q 377 136 359 129 q 410 150 395 142 q 431 163 425 157 q 444 189 439 170 q 461 231 448 208 q 471 248 466 241 q 481 261 477 254 q 489 276 486 268 q 492 298 492 285 q 490 332 492 314 q 488 368 488 351 q 490 394 488 380 q 492 418 492 408 l 492 424 z "},"R":{"ha":787,"x_min":36,"x_max":766,"o":"m 754 582 q 746 565 751 574 q 735 547 741 556 q 723 530 729 538 q 713 518 718 522 q 686 505 703 510 q 652 494 669 499 q 624 483 636 489 q 612 468 612 477 q 617 445 612 458 q 628 417 622 431 q 639 392 633 403 q 647 376 645 380 q 669 334 656 357 q 690 290 683 311 q 699 253 696 273 q 707 214 701 233 q 718 177 711 194 q 725 143 725 160 q 715 112 725 128 q 692 80 706 95 q 663 52 679 64 q 635 33 647 39 q 614 25 628 30 q 583 14 600 20 q 547 5 566 9 q 511 1 528 1 q 465 25 482 1 q 438 87 448 50 q 420 170 427 124 q 403 257 413 215 q 390 300 397 278 q 374 351 383 323 q 364 387 368 370 q 355 415 360 403 q 344 434 351 427 q 325 441 337 441 q 283 438 295 441 q 267 423 271 434 q 264 391 264 412 q 261 338 265 371 q 252 268 257 305 q 248 191 248 230 q 252 147 248 168 q 257 111 257 127 q 249 73 257 89 q 226 46 240 57 q 193 31 212 36 q 155 26 175 26 q 110 28 131 26 q 75 37 90 29 q 51 61 60 45 q 43 106 43 77 q 49 181 43 146 q 63 251 56 217 q 77 319 71 286 q 83 390 83 353 q 82 435 83 412 q 81 482 81 458 q 82 527 81 505 q 85 571 83 549 q 89 621 87 594 q 90 681 90 647 q 90 712 90 699 q 86 734 89 725 q 79 751 84 743 q 64 766 73 758 q 55 772 60 770 q 46 778 50 774 q 39 788 41 781 q 36 807 36 795 q 40 828 36 817 q 51 851 43 840 q 69 872 58 862 q 94 888 80 882 q 125 892 107 892 q 158 896 142 892 q 190 905 175 899 q 214 913 204 910 q 286 917 249 917 q 313 916 300 917 q 339 916 326 916 q 412 919 376 916 q 481 926 448 922 q 543 934 513 930 q 596 937 572 937 q 620 937 610 937 q 637 932 629 936 q 655 920 645 928 q 682 896 665 911 q 701 879 693 886 q 715 865 709 872 q 726 848 721 858 q 737 822 731 838 q 742 789 743 808 q 746 750 742 770 q 752 718 749 732 q 759 689 756 703 q 764 664 762 676 q 766 640 766 652 q 764 613 766 627 q 754 582 762 599 m 627 656 q 622 662 626 659 q 613 669 618 665 q 602 678 608 673 q 591 690 596 683 q 579 718 581 705 q 571 736 577 730 q 537 753 559 747 q 493 760 515 760 q 463 759 480 760 q 426 756 446 758 q 385 751 406 754 q 343 746 364 749 q 315 742 333 745 q 280 735 297 739 q 250 725 262 731 q 237 713 237 720 q 240 689 237 702 q 244 668 243 676 q 247 623 247 644 q 253 586 248 602 q 277 590 265 589 q 298 591 288 591 q 326 591 312 591 q 355 590 339 590 q 393 592 372 590 q 436 596 414 594 q 481 601 458 599 q 524 604 503 604 q 542 604 533 604 q 559 603 551 603 q 581 606 570 603 q 603 616 593 610 q 620 631 613 622 q 627 653 627 641 l 627 656 z "},"S":{"ha":782,"x_min":-3,"x_max":754,"o":"m 754 304 q 747 269 753 286 q 742 235 742 252 q 743 214 742 227 q 745 186 745 201 q 732 140 745 160 q 701 102 720 119 q 659 67 682 84 q 612 33 635 51 q 585 7 596 20 q 560 -16 574 -5 q 524 -32 546 -26 q 464 -39 503 -39 q 421 -36 443 -39 q 377 -28 399 -33 q 335 -21 355 -24 q 298 -18 315 -18 q 271 -21 284 -18 q 245 -24 258 -24 q 227 -19 240 -24 q 197 -7 213 -15 q 166 12 182 1 q 140 37 151 23 q 129 65 131 50 q 119 93 126 79 q 95 125 110 110 q 68 163 79 141 q 50 210 58 182 q 33 265 43 238 q 9 330 21 301 q -3 378 -3 358 q 3 426 -3 400 q 20 473 9 451 q 43 509 30 495 q 71 524 56 524 q 86 521 78 524 q 103 518 94 518 q 122 525 115 519 q 139 530 130 530 q 164 527 148 530 q 198 519 180 524 q 230 510 215 515 q 253 501 245 505 q 276 482 264 496 q 298 452 288 469 q 315 418 309 436 q 322 387 322 401 q 321 372 322 380 q 321 357 321 364 q 326 329 321 343 q 334 298 330 315 q 337 262 336 279 q 340 231 338 245 q 346 203 342 216 q 359 179 350 191 q 397 151 373 161 q 446 140 422 140 q 470 145 460 140 q 486 157 479 150 q 499 171 492 163 q 514 183 505 178 q 540 196 528 191 q 562 207 552 200 q 576 227 571 214 q 582 262 582 239 q 575 303 582 281 q 566 346 568 324 q 563 378 564 365 q 561 403 562 391 q 555 427 559 415 q 541 454 551 439 q 528 468 538 457 q 506 492 519 479 q 479 514 494 504 q 453 524 465 524 q 443 523 448 524 q 432 522 437 522 q 388 532 410 522 q 341 555 365 541 q 293 585 317 569 q 244 612 269 600 q 198 631 224 623 q 151 651 173 640 q 113 676 128 662 q 98 713 98 691 q 100 729 98 717 q 104 757 102 741 q 111 792 107 773 q 121 828 115 810 q 132 859 126 845 q 144 882 138 873 q 169 904 154 893 q 197 923 183 915 q 223 937 212 932 q 237 942 234 942 q 249 941 243 942 q 261 940 255 940 q 283 943 274 940 q 299 951 292 946 q 313 960 307 956 q 329 968 320 964 q 357 973 340 972 q 390 977 374 973 q 438 986 409 981 q 496 997 467 992 q 551 1006 526 1002 q 590 1008 577 1009 q 605 1005 597 1008 q 616 990 612 1002 q 637 981 625 984 q 656 972 648 979 q 677 949 666 964 q 699 925 688 935 q 716 907 709 915 q 729 892 724 899 q 737 877 734 885 q 739 859 739 869 q 734 817 739 837 q 719 780 730 796 q 689 754 707 764 q 642 745 670 745 q 605 748 625 745 q 570 758 585 752 q 553 767 562 761 q 537 780 545 773 q 520 792 529 786 q 501 802 511 798 q 475 808 491 805 q 441 813 458 811 q 408 817 424 815 q 380 818 391 818 q 353 816 366 818 q 329 809 339 814 q 311 795 318 804 q 304 772 304 787 q 308 758 304 764 q 316 747 311 752 q 331 736 322 742 q 351 724 340 731 q 371 709 361 717 q 391 693 381 701 q 411 679 401 686 q 432 668 421 672 q 459 663 445 664 q 484 660 473 662 q 558 632 524 650 q 623 591 593 614 q 677 539 653 567 q 720 484 701 512 q 734 458 728 469 q 742 436 739 447 q 745 412 745 425 q 746 380 746 399 q 750 340 746 359 q 754 304 754 320 z "},"T":{"ha":757,"x_min":4,"x_max":766,"o":"m 764 775 q 766 752 765 764 q 766 729 766 741 q 760 669 766 692 q 739 632 753 646 q 703 613 725 618 q 652 608 682 608 q 627 611 638 608 q 605 615 616 613 q 578 620 593 618 q 542 623 563 623 q 498 622 520 623 q 458 621 475 621 q 431 620 444 621 q 406 617 417 620 q 389 609 395 614 q 382 593 382 603 q 387 519 382 553 q 392 457 392 486 q 390 393 392 425 q 389 328 389 362 q 394 257 389 293 q 399 192 399 220 q 397 168 399 178 q 394 151 396 158 q 391 138 393 143 q 390 127 390 132 q 394 105 390 117 q 399 89 399 93 q 392 38 397 59 q 373 3 387 16 q 337 -17 360 -11 q 275 -24 313 -24 q 252 -22 265 -24 q 227 -16 239 -20 q 203 -6 214 -12 q 189 7 193 -1 q 184 24 185 14 q 183 48 184 35 q 181 75 182 61 q 176 102 180 89 q 162 128 171 118 q 144 146 153 138 q 129 163 135 155 q 122 186 122 172 q 129 244 122 210 q 142 314 135 278 q 156 384 150 351 q 163 441 163 418 l 163 475 q 165 502 163 488 q 170 529 167 515 q 174 555 172 543 q 176 579 176 568 q 163 610 176 603 q 126 618 149 618 l 97 618 q 71 620 83 618 q 47 629 58 622 q 38 646 45 632 q 23 676 31 660 q 10 706 16 692 q 4 722 4 720 q 11 743 4 734 q 21 766 17 753 q 28 798 26 784 q 34 824 31 812 q 42 844 37 836 q 57 858 47 852 q 84 867 67 864 q 129 869 102 869 q 145 867 137 869 q 160 861 153 864 q 175 855 168 858 q 191 852 182 852 q 212 859 205 852 q 223 874 219 865 q 230 893 227 883 q 242 913 234 904 q 267 928 251 922 q 313 935 283 935 q 342 923 334 932 q 356 901 351 913 q 366 876 361 888 q 386 857 372 864 q 399 854 388 856 q 424 852 410 853 q 450 849 437 850 q 468 848 463 848 q 495 850 481 848 q 522 852 509 852 q 546 849 535 852 q 569 840 557 845 q 595 832 581 836 q 629 828 610 828 q 670 830 651 828 q 704 832 688 832 q 726 830 716 832 q 743 821 736 827 q 756 804 751 815 q 764 775 761 793 z "},"U":{"ha":677,"x_min":26,"x_max":648,"o":"m 648 415 l 648 407 q 646 366 648 388 q 644 325 644 344 q 645 301 644 313 q 646 278 646 290 q 642 252 646 264 q 634 229 639 240 q 624 206 629 218 q 614 179 618 194 q 608 154 610 167 q 604 130 606 142 q 599 107 602 117 q 593 89 597 96 q 561 49 582 67 q 518 17 540 31 q 478 -3 496 4 q 456 -11 460 -11 q 426 -8 441 -11 q 396 -5 412 -5 q 338 -11 368 -5 q 279 -16 309 -16 q 247 -13 261 -16 q 217 -1 233 -9 q 179 21 201 7 q 125 60 158 36 q 97 80 109 71 q 76 101 85 88 q 60 135 67 114 q 47 192 54 156 q 47 198 47 195 q 46 204 46 201 q 47 225 46 215 q 49 248 49 236 q 45 269 49 259 q 38 288 42 279 q 31 307 34 298 q 26 325 27 315 q 31 341 26 330 q 35 363 35 352 l 35 386 q 37 402 35 395 q 44 417 40 410 q 50 432 47 424 q 53 449 53 439 q 48 493 53 471 q 43 536 43 515 q 52 576 43 555 q 69 625 62 597 q 78 668 75 645 q 86 711 81 690 q 102 768 94 741 q 121 831 111 796 q 129 856 124 844 q 134 878 134 868 q 132 892 134 885 q 131 905 131 899 q 142 926 131 916 q 172 936 153 936 q 209 929 191 936 q 239 911 226 922 q 260 887 252 900 q 268 861 268 873 q 266 837 268 850 q 261 809 264 823 q 255 783 258 795 q 250 762 252 770 q 236 682 243 723 q 223 598 229 640 q 214 512 217 555 q 211 424 210 468 q 215 334 211 379 q 216 309 216 323 q 217 282 216 296 q 218 257 217 269 q 224 239 220 245 q 238 228 227 234 q 265 216 249 222 q 300 207 281 210 q 335 203 318 203 q 371 212 359 203 q 386 238 382 222 q 389 274 390 254 q 390 317 389 295 q 396 367 391 342 q 400 411 401 391 q 391 467 399 436 q 382 530 384 498 q 384 554 382 542 q 386 576 386 566 q 385 598 386 585 q 382 626 384 611 q 380 658 381 642 q 379 692 379 675 q 389 761 379 734 q 429 787 399 787 q 452 786 439 787 q 476 783 464 785 q 503 785 488 783 q 532 787 517 787 q 553 783 541 787 q 577 768 565 778 q 598 743 589 759 q 614 707 608 728 q 618 667 618 688 q 623 625 619 645 q 631 579 627 602 q 636 536 636 556 q 635 511 636 524 q 635 486 635 498 q 641 449 635 465 q 648 415 647 434 z "},"V":{"ha":741,"x_min":-9,"x_max":730,"o":"m 730 814 l 730 810 q 721 780 730 797 q 704 742 711 763 q 700 721 701 731 q 696 703 699 711 q 686 681 692 692 q 676 658 681 670 q 669 631 672 646 q 665 597 665 616 q 668 566 665 582 q 671 534 671 549 q 668 520 671 528 q 661 504 665 513 q 652 485 656 495 q 644 463 648 475 q 638 426 640 445 q 632 389 636 406 q 621 360 628 374 q 607 330 614 345 q 596 300 601 315 q 593 272 592 286 q 594 260 593 266 q 595 249 595 255 q 588 207 595 229 q 574 164 582 185 q 559 124 566 143 q 553 89 553 104 l 553 72 q 552 61 553 66 q 550 50 551 56 q 537 31 547 43 q 513 7 526 19 q 488 -15 500 -5 q 468 -26 475 -25 q 454 -29 463 -28 q 435 -29 446 -29 q 354 -27 387 -29 q 300 -16 322 -24 q 264 11 279 -7 q 237 60 250 29 q 233 77 234 66 q 229 97 233 87 q 223 112 226 105 q 217 126 220 119 q 212 142 215 134 q 207 163 210 151 q 198 185 203 175 q 188 205 193 196 q 179 220 182 214 q 175 232 175 227 q 176 241 175 236 q 176 250 176 245 q 164 304 176 271 q 136 372 151 336 q 108 441 121 408 q 96 497 96 475 q 100 522 96 510 q 104 547 104 534 q 97 570 104 563 q 79 583 90 578 q 57 594 68 588 q 36 612 45 600 q 30 627 33 616 q 23 650 26 637 q 17 677 20 663 q 9 703 14 691 q 3 726 6 713 q -3 754 0 739 q -8 786 -6 770 q -9 818 -9 802 q -2 866 -9 844 q 22 900 5 888 q 36 904 27 903 q 56 906 45 905 q 77 908 66 907 q 96 913 88 909 q 113 925 107 918 q 129 941 119 933 q 160 954 140 948 q 222 960 181 960 q 256 958 240 960 q 281 951 271 957 q 308 914 298 941 q 322 852 317 887 q 331 779 328 817 q 340 707 334 740 q 346 676 343 690 q 352 651 349 663 q 356 624 355 638 q 358 591 358 610 l 358 551 q 365 484 358 517 q 381 416 372 450 q 398 349 390 382 q 408 282 406 315 q 417 293 412 282 q 426 323 421 304 q 437 364 431 341 q 449 412 443 387 q 463 461 456 437 q 478 505 471 485 q 486 523 481 515 q 494 539 491 530 q 498 566 498 553 q 503 590 497 580 q 522 614 509 603 q 542 643 535 626 q 547 665 546 653 q 550 691 549 677 q 552 718 551 704 q 558 746 554 732 q 572 792 564 767 q 591 838 581 817 q 616 873 602 859 q 648 888 630 888 q 674 878 661 886 q 700 858 688 869 q 721 834 712 846 q 730 814 729 822 z "},"W":{"ha":996,"x_min":17,"x_max":947,"o":"m 947 798 q 943 768 947 783 q 939 739 939 753 q 941 703 939 720 q 943 668 943 685 q 940 631 943 649 q 933 595 937 613 q 926 560 929 578 q 922 525 922 543 q 924 500 922 513 q 926 476 926 488 q 924 453 926 464 q 920 432 922 443 q 915 409 917 421 q 913 383 913 397 q 913 333 913 357 q 914 281 914 308 q 913 257 914 269 q 913 231 913 244 q 906 201 913 218 q 900 167 900 184 q 900 138 900 155 q 898 102 899 120 q 892 70 896 85 q 884 50 889 56 q 856 39 875 41 q 817 36 838 36 q 780 37 798 36 q 750 37 762 37 q 731 33 741 37 q 715 29 721 29 q 696 36 709 30 q 670 51 684 43 q 646 67 657 59 q 631 81 634 75 q 621 100 624 89 q 613 124 617 111 q 603 152 610 138 q 583 179 597 165 q 574 183 580 182 q 566 187 568 184 q 562 200 562 193 q 557 214 561 208 q 549 225 555 216 q 535 242 543 233 q 522 258 528 251 q 514 265 515 265 q 497 250 506 264 q 481 216 489 235 q 466 179 473 197 q 454 153 459 161 q 443 141 451 147 q 433 132 435 136 q 411 81 420 108 q 386 29 401 54 q 368 3 375 12 q 352 -8 361 -5 q 331 -12 344 -12 q 296 -14 318 -12 q 266 -19 281 -15 q 240 -22 251 -22 q 217 -17 228 -22 q 193 -9 205 -12 q 151 -2 170 -5 q 119 9 132 1 q 98 33 105 17 q 90 77 90 48 l 90 103 q 86 138 90 119 q 77 174 82 157 q 68 204 72 191 q 64 227 64 218 q 66 236 64 230 q 70 249 68 242 q 75 263 73 256 q 77 277 77 271 q 73 298 77 287 q 66 322 70 310 q 59 348 62 334 q 56 375 56 361 q 58 391 56 382 q 60 407 60 399 q 56 431 59 418 q 50 457 54 444 q 44 484 47 470 q 41 513 41 498 q 42 534 41 523 q 43 554 43 545 q 39 586 43 568 q 30 622 35 603 q 21 662 25 642 q 17 703 17 683 q 19 728 17 714 q 23 753 20 741 q 28 775 25 766 q 33 789 31 785 q 45 793 36 791 q 66 797 54 795 q 91 801 78 799 q 111 806 103 803 q 156 820 135 813 q 199 828 177 827 q 220 827 209 828 q 241 827 231 827 q 279 833 261 827 q 311 839 296 839 q 331 830 323 839 q 343 808 339 822 q 349 775 347 793 q 350 737 350 757 q 349 679 350 708 q 347 628 347 650 q 351 596 347 612 q 355 564 355 579 q 352 530 355 548 q 347 497 349 512 q 344 455 345 476 q 339 419 342 434 q 329 400 336 410 q 321 380 322 391 q 324 361 321 372 q 329 338 328 350 q 332 284 332 311 q 335 235 332 258 q 354 277 345 254 q 370 324 362 300 q 386 374 378 349 q 403 424 393 399 q 422 470 411 446 q 444 517 433 494 q 465 563 455 541 q 481 604 475 585 q 488 635 486 621 q 494 660 490 649 q 510 677 499 671 q 545 684 521 684 q 594 676 578 684 q 616 654 610 668 q 625 622 623 640 q 635 582 627 603 q 660 532 643 557 q 690 479 677 507 q 715 424 704 452 q 737 368 727 395 q 740 386 739 378 q 741 404 741 395 q 738 445 741 425 q 732 484 735 465 q 726 523 729 504 q 724 559 724 541 q 724 579 724 569 q 725 599 725 589 q 718 637 725 620 q 704 670 711 654 q 689 700 696 685 q 682 730 682 714 q 685 766 682 744 q 688 814 688 789 q 682 867 688 843 q 676 909 676 892 q 676 915 676 913 q 677 921 676 918 q 689 957 682 946 q 708 971 697 968 q 732 974 718 974 q 762 977 746 973 q 781 980 770 977 q 805 984 791 982 q 832 988 818 987 q 860 990 846 990 q 906 977 888 990 q 932 941 923 964 q 944 888 941 919 q 947 823 947 858 l 947 798 z "},"X":{"ha":764,"x_min":0,"x_max":737,"o":"m 737 779 l 737 775 q 731 739 737 751 q 716 719 726 726 q 693 703 706 711 q 665 681 680 696 q 614 618 637 651 q 567 553 592 585 q 553 538 562 546 q 536 523 544 531 q 522 509 528 515 q 515 496 515 502 q 525 478 515 488 q 548 458 534 468 q 574 439 561 448 q 596 424 588 431 q 618 405 606 415 q 641 382 630 394 q 661 357 652 370 q 673 329 669 344 q 677 303 677 317 q 678 278 678 290 q 679 254 678 265 q 682 235 680 243 q 698 209 686 221 q 717 179 710 196 q 722 161 719 173 q 727 136 724 149 q 731 111 730 123 q 733 92 733 98 q 730 73 733 79 q 724 63 728 67 q 714 54 720 58 q 703 41 709 50 q 687 16 692 27 q 674 -4 682 4 q 651 -17 666 -12 q 607 -21 636 -21 q 566 -19 586 -21 q 536 -14 546 -17 q 497 9 510 -5 q 475 41 484 22 q 460 82 467 59 q 437 132 452 105 q 421 153 429 146 q 407 166 414 161 q 397 179 401 172 q 392 196 393 185 q 390 212 392 206 q 384 221 387 217 q 378 227 381 224 q 374 235 375 230 q 370 250 372 241 q 367 267 369 258 q 362 282 365 276 q 355 290 359 289 q 338 278 348 290 q 320 252 329 267 q 305 223 312 237 q 296 205 298 209 q 262 163 281 184 q 232 123 242 143 q 209 77 220 102 q 186 31 199 52 q 157 -6 174 9 q 115 -21 140 -20 q 74 -13 94 -21 q 43 3 54 -5 q 32 14 39 5 q 18 32 25 22 q 5 51 11 42 q 0 65 0 60 q 3 74 0 70 q 9 84 5 79 q 16 96 13 90 q 18 113 18 103 q 17 123 18 119 q 16 132 16 127 q 22 143 16 134 q 39 165 29 153 q 61 191 49 177 q 83 216 73 204 q 100 235 93 227 q 107 243 107 242 q 135 267 121 258 q 158 290 149 275 q 166 308 163 298 q 176 329 170 319 q 193 355 181 338 q 216 389 204 372 q 236 418 228 406 q 243 431 245 431 q 244 428 244 431 q 238 443 244 434 q 222 464 231 452 q 203 487 213 475 q 184 510 193 498 q 144 568 162 542 q 111 620 126 594 q 82 672 96 645 q 56 732 69 699 q 42 759 50 745 q 35 779 35 772 q 48 817 35 800 q 80 844 62 833 q 116 861 98 855 q 139 867 133 867 q 193 836 169 867 q 207 820 199 829 q 224 803 216 812 q 242 786 233 795 q 257 771 251 778 q 274 747 267 759 q 289 724 281 736 q 305 702 296 713 q 326 681 314 691 q 350 667 337 672 q 374 652 363 661 q 384 637 379 646 q 392 622 388 629 q 400 609 395 614 q 410 604 404 604 q 427 612 420 604 q 439 631 433 620 q 451 653 445 642 q 464 672 456 665 q 480 682 468 677 q 501 694 493 686 q 537 733 519 710 q 575 779 556 756 q 595 805 585 791 q 616 830 605 819 q 637 849 627 842 q 659 857 648 857 q 686 850 673 857 q 711 831 700 842 q 729 805 722 819 q 737 779 736 791 z "},"Y":{"ha":819,"x_min":-22,"x_max":817,"o":"m 812 822 q 817 761 817 793 q 812 708 817 735 q 796 656 808 682 q 783 634 791 644 q 766 614 774 624 q 751 594 758 604 q 741 574 744 584 q 733 547 735 561 q 729 519 730 533 q 726 492 728 506 q 722 467 725 479 q 711 428 716 443 q 701 404 706 414 q 690 385 696 393 q 676 364 684 376 q 665 345 669 353 q 657 326 661 336 q 652 303 654 316 q 646 273 650 291 q 642 266 644 269 q 638 260 640 263 q 634 253 635 257 q 632 243 632 249 q 633 234 632 239 q 633 225 633 229 q 628 209 633 218 q 616 190 623 199 q 602 171 609 180 q 590 153 594 161 q 577 123 582 137 q 564 93 573 109 q 533 48 551 73 q 493 0 515 22 q 450 -39 472 -23 q 407 -54 427 -54 q 391 -54 399 -54 q 375 -53 383 -53 q 345 -56 357 -53 q 324 -61 333 -58 q 307 -67 315 -64 q 290 -69 299 -69 q 276 -67 282 -69 q 264 -63 270 -66 q 253 -56 259 -60 q 239 -49 247 -52 q 199 -36 218 -40 q 165 -29 181 -32 q 134 -23 149 -26 q 104 -11 119 -20 q 73 15 89 -1 q 40 60 58 32 q 17 92 28 78 q -3 118 6 105 q -17 145 -12 131 q -22 178 -22 159 q -18 228 -22 208 q 3 257 -14 248 q 30 280 17 264 q 54 316 43 296 q 76 358 65 336 q 97 397 86 379 q 118 427 107 415 q 139 439 128 438 q 158 433 147 439 q 178 418 168 427 q 197 400 189 410 q 208 385 205 391 q 211 373 210 380 q 212 355 212 365 q 213 335 212 346 q 216 313 214 323 q 225 295 219 303 q 233 278 231 288 q 236 256 237 267 q 239 235 235 244 q 276 180 250 202 q 343 158 303 158 q 401 171 368 158 q 421 184 409 174 q 445 207 433 194 q 465 233 456 219 q 473 257 473 247 q 461 276 473 270 q 433 286 448 283 q 403 290 417 289 q 385 294 389 292 q 375 306 379 298 q 367 323 371 314 q 359 342 363 333 q 350 359 355 352 q 335 371 345 366 q 315 385 325 375 q 300 407 306 394 q 285 428 294 419 q 257 445 274 438 q 229 463 241 451 q 223 476 225 467 q 216 492 222 486 q 202 499 211 498 q 192 505 194 501 q 188 515 190 507 q 182 530 186 523 q 173 542 178 537 q 168 553 168 547 q 169 559 168 556 q 170 566 170 562 q 166 579 170 572 q 158 591 163 585 q 151 602 154 597 q 147 612 147 607 q 152 639 147 625 q 157 672 157 653 q 155 697 157 684 q 150 724 153 711 q 145 750 147 737 q 143 775 143 763 q 147 793 143 785 q 155 809 151 802 q 163 827 159 817 q 167 850 167 836 q 165 876 167 863 q 163 899 163 888 q 165 914 163 906 q 173 929 167 922 q 190 941 179 937 q 216 946 200 946 q 246 939 235 946 q 265 919 258 931 q 276 892 272 907 q 282 863 280 878 q 287 837 285 849 q 294 818 290 825 q 308 805 299 810 q 329 796 317 800 q 351 787 340 791 q 371 775 362 782 q 389 749 381 766 q 406 711 396 731 q 424 677 413 694 q 440 647 435 661 q 446 617 446 633 q 453 586 446 601 q 474 555 458 573 q 506 522 489 538 q 537 495 522 506 q 555 484 551 484 q 570 505 565 486 q 577 546 574 523 q 583 594 581 570 q 590 633 585 618 q 600 659 595 650 q 611 675 606 668 q 624 689 617 682 q 637 711 630 696 q 641 731 641 719 q 646 754 642 743 q 655 771 649 764 q 663 789 661 779 q 671 830 669 810 q 679 867 674 851 q 693 894 684 884 q 721 904 702 904 q 751 901 736 904 q 775 892 766 897 q 781 882 775 891 q 794 860 787 872 q 807 837 801 848 q 812 822 812 825 z "},"Z":{"ha":777,"x_min":22,"x_max":793,"o":"m 791 64 q 785 32 789 48 q 774 3 782 16 q 752 -18 766 -10 q 715 -26 739 -26 q 696 -24 706 -26 q 676 -18 687 -21 q 654 -12 666 -15 q 627 -9 642 -9 q 588 -14 607 -9 q 547 -18 569 -18 q 493 -14 522 -18 q 433 -9 465 -9 q 340 -13 387 -9 q 253 -16 294 -16 q 230 -14 240 -16 q 212 -11 220 -13 q 194 -6 203 -8 q 174 -1 185 -3 q 139 4 156 1 q 106 9 121 6 q 78 15 90 12 q 58 25 65 19 q 45 43 50 33 q 38 68 41 54 q 35 98 36 81 q 32 132 34 114 q 26 161 30 148 q 22 187 22 174 q 23 193 22 186 q 27 210 24 200 q 34 231 30 220 q 45 248 39 241 q 63 259 52 255 q 87 267 75 264 q 111 275 99 271 q 131 286 123 279 q 140 298 136 291 q 145 311 143 304 q 150 325 148 318 q 157 338 153 332 q 170 352 160 343 q 186 368 180 361 q 245 438 214 403 q 307 511 277 473 q 366 590 338 549 q 418 681 395 632 q 376 671 396 675 q 338 663 357 667 q 301 654 319 659 q 264 643 283 649 q 236 631 250 637 q 208 617 222 624 q 176 605 193 611 q 139 596 159 599 q 121 588 130 593 q 102 583 113 583 q 77 594 87 583 q 58 623 66 605 q 46 662 50 640 q 43 707 43 684 q 47 745 43 728 q 58 771 51 762 q 76 780 62 777 q 102 793 89 783 q 119 812 113 802 q 131 827 124 823 q 150 831 136 830 q 174 836 164 833 q 199 844 189 840 q 215 848 210 848 q 237 844 226 848 q 260 840 249 840 q 299 846 279 840 q 338 852 318 852 q 362 852 350 852 q 387 851 375 851 q 419 854 404 851 q 449 860 435 857 q 477 868 463 864 q 504 873 490 871 q 529 876 517 876 q 551 877 541 876 q 573 880 562 878 q 595 888 583 882 l 599 888 q 635 879 617 888 q 668 858 654 871 q 692 827 683 844 q 701 793 701 810 l 701 781 q 707 768 701 773 q 720 758 713 764 q 733 743 727 751 q 739 718 739 734 q 732 688 739 702 q 715 663 725 675 q 693 638 705 650 q 671 612 681 626 q 654 586 661 600 q 641 556 648 572 q 627 524 635 541 q 607 488 619 507 q 578 452 594 468 q 551 419 563 436 q 527 381 538 399 q 506 344 516 363 q 485 305 496 326 q 461 261 474 285 q 448 236 455 250 q 435 210 441 222 q 426 189 430 198 q 422 176 422 179 q 434 169 422 172 q 464 161 446 165 q 503 154 481 157 q 545 148 525 151 q 581 143 565 145 q 603 140 597 141 l 611 140 l 635 140 q 663 136 650 140 q 684 132 675 132 q 716 136 701 132 q 745 139 731 139 q 780 122 768 139 q 793 78 793 105 q 792 71 793 75 q 791 64 791 67 z "},"[":{"ha":416,"x_min":53,"x_max":407,"o":"m 401 -132 q 377 -157 394 -149 q 339 -166 361 -164 q 292 -170 317 -169 q 243 -174 267 -170 q 225 -178 233 -175 q 210 -183 218 -180 q 193 -188 201 -186 q 172 -189 184 -189 q 99 -180 123 -189 q 65 -151 75 -171 q 55 -100 55 -132 q 54 -24 54 -68 q 60 48 54 12 q 66 118 66 83 q 62 154 66 136 q 58 192 58 173 q 60 236 58 215 q 62 275 62 256 q 61 299 62 292 q 58 314 60 307 q 54 331 56 321 q 53 364 53 342 q 58 450 53 406 q 62 538 62 494 q 58 646 62 593 q 54 747 54 699 q 58 794 54 772 q 62 836 62 817 q 60 872 62 850 q 57 918 57 895 q 59 951 57 941 q 70 967 62 962 q 93 974 78 972 q 132 979 108 975 q 158 987 146 981 q 179 993 171 993 q 205 990 194 993 q 227 987 216 987 q 252 991 242 987 q 272 999 262 994 q 293 1006 282 1003 q 322 1010 304 1010 l 338 1010 q 344 1011 339 1010 q 355 1013 349 1013 q 368 1005 361 1013 q 381 985 375 998 q 392 955 387 972 q 396 916 396 937 q 385 886 396 892 q 357 879 374 879 q 342 880 349 879 q 328 880 334 880 q 296 877 315 880 q 257 868 277 874 q 222 854 238 863 q 200 833 206 845 q 195 817 197 827 q 194 795 194 806 q 193 771 193 783 q 192 749 193 759 q 183 632 185 691 q 180 511 180 573 q 184 356 180 435 q 187 191 187 277 q 191 146 187 162 q 202 124 194 131 q 226 115 211 117 q 264 114 241 114 q 295 115 279 114 q 326 115 311 115 q 369 111 353 115 q 393 97 385 107 q 404 72 401 87 q 407 35 407 57 q 404 -16 407 9 q 401 -54 401 -41 q 403 -78 401 -62 q 404 -109 404 -94 q 404 -123 404 -117 q 401 -132 403 -129 z "},"\\":{"ha":449,"x_min":25,"x_max":419,"o":"m 411 22 q 403 17 409 20 q 390 12 397 14 q 373 8 382 9 q 355 7 364 7 q 331 11 338 7 q 321 23 324 15 q 317 41 319 31 q 309 64 315 52 q 292 82 303 73 q 273 103 281 90 q 268 119 270 109 q 261 142 265 130 q 250 162 257 151 q 243 182 243 174 q 243 191 243 186 q 244 200 244 196 q 240 217 244 208 q 232 233 237 225 q 223 247 228 240 q 218 257 219 253 q 215 281 216 269 q 214 304 214 292 q 214 329 214 317 q 210 355 213 342 q 193 415 203 384 q 171 477 183 446 q 145 539 159 509 q 119 596 132 569 q 103 637 110 617 q 89 673 97 658 q 77 689 85 681 q 64 708 69 698 q 58 722 60 714 q 52 740 55 730 q 47 759 50 749 q 41 777 45 768 q 30 800 35 791 q 25 815 25 809 q 45 851 26 836 q 87 877 64 867 q 134 892 111 887 q 167 897 157 897 q 188 893 181 897 q 197 883 194 890 q 202 866 200 876 q 210 844 204 857 q 222 824 214 834 q 237 801 229 813 q 252 776 245 789 q 265 746 260 762 q 273 709 271 728 q 278 668 276 689 q 281 624 280 646 q 286 579 283 602 q 298 525 290 555 q 314 465 306 495 q 329 405 322 434 q 338 351 336 375 q 340 326 340 337 q 342 306 341 315 q 345 286 343 296 q 351 267 347 277 q 361 248 353 257 q 370 228 370 238 q 368 218 370 222 q 367 208 367 214 q 375 185 367 203 q 393 144 383 167 q 411 96 403 121 q 419 50 419 71 q 411 22 419 33 z "},"]":{"ha":427,"x_min":7,"x_max":380,"o":"m 379 868 q 372 815 378 841 q 366 765 366 789 q 370 719 366 743 q 374 667 374 694 q 371 588 374 629 q 366 505 369 547 q 360 421 363 463 q 358 339 358 379 q 364 263 358 298 q 370 195 370 228 q 368 140 370 171 q 365 75 366 109 q 361 6 363 41 q 359 -61 359 -28 q 362 -88 359 -77 q 367 -109 364 -100 q 371 -124 369 -117 q 374 -136 374 -130 l 374 -140 q 364 -155 373 -144 q 343 -180 355 -167 q 319 -204 331 -193 q 301 -216 307 -215 q 278 -221 292 -221 q 240 -217 260 -221 q 199 -212 220 -212 q 146 -216 172 -212 q 102 -220 121 -220 q 84 -217 98 -220 q 56 -207 71 -214 q 30 -191 41 -201 q 18 -170 18 -182 q 20 -158 18 -165 q 22 -143 21 -151 q 25 -128 24 -136 q 26 -114 26 -120 q 24 -86 26 -102 q 20 -53 22 -70 q 16 -20 18 -36 q 14 8 14 -4 q 16 17 14 7 q 25 39 19 27 q 39 61 31 51 q 57 71 47 71 q 77 66 67 71 q 104 61 87 61 q 141 62 123 61 q 175 68 160 63 q 199 83 190 73 q 208 113 208 94 q 208 138 208 125 q 207 163 207 151 q 209 192 207 180 q 214 215 212 204 q 219 236 216 225 q 221 260 221 246 q 220 293 221 277 q 218 325 218 309 q 222 357 218 341 q 230 390 226 373 q 238 425 234 406 q 241 464 241 443 q 239 520 241 491 q 237 579 237 550 q 239 626 237 602 q 241 671 241 649 q 237 731 241 701 q 232 793 232 762 q 232 805 232 800 q 233 817 232 810 q 235 828 233 821 q 239 843 237 836 q 243 858 241 851 q 245 869 245 865 q 238 878 245 876 q 225 880 231 880 q 214 880 220 880 q 203 879 209 879 q 188 881 195 879 q 174 885 181 882 q 160 890 168 887 q 143 895 153 892 q 97 898 121 899 q 53 902 73 898 q 20 918 33 905 q 7 960 7 930 q 7 983 7 966 q 8 1020 7 1000 q 13 1056 9 1039 q 22 1078 16 1072 q 36 1081 26 1081 q 58 1082 45 1082 q 91 1081 74 1082 q 121 1080 107 1080 q 155 1084 140 1080 q 186 1088 170 1088 q 205 1085 196 1088 q 223 1078 214 1082 q 244 1071 233 1074 q 271 1068 255 1068 l 297 1068 q 328 1062 313 1068 q 354 1046 342 1057 q 373 1023 366 1036 q 380 994 380 1009 q 379 957 380 978 q 378 917 378 936 q 378 892 378 904 q 379 868 379 880 z "},"^":{"ha":688,"x_min":28,"x_max":638,"o":"m 637 383 q 618 360 633 370 q 584 342 603 350 q 544 330 564 335 q 509 319 523 324 q 490 311 500 316 q 467 302 479 307 q 443 294 456 297 q 419 290 431 290 q 388 304 400 290 q 367 340 376 318 q 353 388 359 361 q 340 440 347 414 q 330 478 336 457 q 317 521 323 499 q 306 565 311 543 q 298 607 301 587 q 283 586 290 601 q 269 552 276 571 q 256 512 262 533 q 241 473 249 492 q 240 461 239 468 q 237 449 241 454 q 229 442 235 444 q 221 435 223 440 q 217 416 218 427 q 212 397 216 406 q 203 374 207 382 q 199 353 199 366 q 199 336 199 345 q 200 318 200 328 q 182 264 200 281 q 115 248 163 248 q 50 267 73 248 q 28 323 28 286 q 39 389 28 356 q 63 449 50 422 q 89 495 77 476 q 106 517 102 513 q 121 531 112 524 q 139 544 130 537 q 156 558 148 551 q 170 576 164 566 q 174 594 173 583 q 178 615 174 606 q 192 649 184 633 q 209 683 201 666 q 224 719 217 700 q 237 761 232 738 q 243 795 241 780 q 250 823 245 811 q 265 841 255 834 q 296 847 275 847 q 317 842 305 847 q 346 835 328 837 q 378 832 360 833 q 414 831 395 832 q 449 829 432 831 q 478 821 466 827 q 511 787 497 810 q 534 734 524 764 q 552 672 545 705 q 568 611 560 640 q 592 546 579 572 q 614 497 604 520 q 631 451 625 475 q 637 392 638 427 l 637 383 z "},"_":{"ha":699,"x_min":58,"x_max":688,"o":"m 688 -229 q 687 -251 688 -239 q 684 -273 687 -263 q 675 -290 682 -283 q 657 -297 669 -297 q 635 -295 648 -297 q 610 -291 623 -293 q 584 -287 597 -289 q 562 -285 572 -285 q 537 -291 550 -286 q 510 -301 524 -295 q 482 -313 496 -307 q 452 -323 467 -319 q 390 -336 424 -332 q 322 -346 356 -340 q 246 -358 283 -352 q 174 -364 208 -364 q 131 -359 152 -364 q 94 -345 111 -354 q 68 -321 78 -335 q 58 -290 58 -308 q 64 -256 58 -273 q 74 -221 71 -239 q 76 -198 75 -211 q 78 -172 77 -185 q 81 -148 79 -159 q 90 -131 84 -137 q 123 -117 100 -121 q 172 -112 146 -113 q 219 -112 197 -111 q 249 -113 241 -113 q 291 -113 268 -113 q 337 -114 313 -113 q 384 -116 361 -115 q 429 -118 408 -117 q 480 -123 455 -119 q 524 -126 506 -126 q 553 -120 541 -126 q 579 -114 566 -114 q 640 -120 618 -114 q 671 -140 661 -126 q 684 -175 681 -153 q 688 -229 686 -197 z "},"a":{"ha":718,"x_min":22,"x_max":686,"o":"m 684 424 q 686 392 685 408 q 686 359 686 376 q 682 262 686 311 q 671 167 677 213 q 666 137 669 152 q 663 110 663 121 q 667 61 663 85 q 672 18 672 38 q 667 0 672 14 q 649 -29 661 -14 q 619 -56 637 -44 q 574 -68 600 -68 q 533 -50 543 -68 q 522 -5 522 -33 q 526 36 522 14 q 533 81 529 58 q 502 68 517 77 q 473 50 487 58 q 414 13 444 33 q 350 -23 385 -7 q 274 -50 315 -39 q 180 -61 233 -61 q 170 -61 179 -61 q 149 -61 161 -62 q 123 -58 136 -60 q 100 -49 110 -55 q 71 -12 85 -34 q 46 32 57 10 q 30 69 36 53 q 24 89 24 85 q 22 95 22 92 q 22 102 22 98 q 24 131 22 116 q 29 160 26 146 q 34 184 32 174 q 36 197 36 194 q 33 230 36 214 q 31 265 31 246 q 32 284 31 274 q 36 304 33 294 q 39 313 36 305 q 47 331 43 321 q 56 349 52 340 q 62 359 60 358 q 75 366 67 363 q 94 372 83 369 q 114 377 104 374 q 135 385 125 380 q 163 404 151 392 q 186 419 176 415 q 204 425 193 422 q 229 432 216 427 q 251 440 238 435 q 278 449 264 445 q 308 457 293 454 q 336 463 323 461 q 352 460 342 463 q 374 458 361 458 q 397 463 383 458 q 429 467 410 467 q 466 464 448 467 q 493 461 484 461 q 502 466 500 461 q 504 476 504 470 q 500 500 504 486 q 490 526 496 513 q 480 549 485 539 q 473 561 475 558 q 451 581 463 574 q 428 587 438 587 q 407 585 417 587 q 383 582 396 582 q 364 583 374 582 q 345 585 354 585 q 291 573 321 585 q 231 547 261 562 q 174 518 201 532 q 131 501 147 505 q 113 497 122 499 q 94 496 103 496 q 79 502 89 496 q 60 516 69 507 q 43 536 50 525 q 36 558 36 547 q 45 585 36 574 q 66 603 54 595 q 95 616 79 610 q 122 629 110 622 q 159 652 138 639 q 195 676 180 665 q 217 700 210 689 q 233 715 224 710 q 263 726 243 721 q 301 736 283 730 q 316 742 307 738 q 337 749 326 746 q 357 755 347 753 q 372 758 367 758 l 375 758 q 404 751 388 753 q 438 747 420 749 q 474 742 456 745 q 509 736 492 740 q 519 730 514 734 q 529 724 524 726 q 571 708 554 716 q 601 684 588 701 q 625 636 614 667 q 650 553 636 606 q 660 530 652 541 q 671 510 667 520 q 679 469 676 493 q 684 424 682 445 m 521 243 q 525 258 524 246 q 526 285 526 270 q 526 314 526 302 q 523 331 525 325 q 517 339 521 337 q 509 342 514 342 q 502 341 505 342 q 496 340 498 340 q 490 338 493 338 q 470 339 479 339 q 452 339 461 339 q 417 337 433 339 q 386 332 401 335 q 355 324 370 328 q 323 317 340 320 q 279 309 299 311 q 243 300 258 307 q 220 281 229 294 q 212 240 212 268 q 227 202 212 212 q 271 192 242 192 q 291 195 279 192 q 316 202 302 198 q 343 211 329 206 q 371 218 357 215 q 393 223 381 220 q 417 227 405 225 q 439 231 429 229 q 457 235 450 233 q 472 236 462 235 q 492 238 482 237 q 511 240 503 239 q 521 243 519 241 z "},"b":{"ha":802,"x_min":-25,"x_max":789,"o":"m 786 488 q 788 469 787 479 q 789 449 789 459 q 788 395 789 425 q 783 337 787 366 q 773 282 780 308 q 755 239 767 256 q 734 218 748 227 q 704 201 720 209 q 672 184 688 193 q 648 167 657 176 q 643 158 646 164 q 635 146 640 153 q 628 135 631 140 q 623 127 625 130 q 596 115 614 122 q 556 102 578 108 q 512 92 534 96 q 475 87 490 87 q 450 89 461 87 q 428 94 439 90 q 401 104 416 98 q 366 119 387 110 q 345 127 360 121 q 312 138 330 132 q 280 148 295 144 q 260 153 264 153 q 251 143 254 153 q 249 125 249 134 q 254 84 249 106 q 258 47 258 62 q 254 30 258 40 q 242 10 250 20 q 223 -6 234 1 q 197 -12 212 -12 q 170 -8 184 -12 q 145 1 157 -5 q 125 14 134 7 q 113 29 116 22 q 107 52 109 38 q 104 83 105 66 q 103 118 104 100 q 100 153 102 136 q 90 194 96 174 q 82 227 83 214 q 86 253 82 240 q 90 282 90 267 q 87 351 90 315 q 78 424 84 388 q 65 467 73 445 q 57 513 57 490 q 59 525 57 519 q 61 536 61 531 q 55 573 61 553 q 43 612 48 593 q 40 637 41 623 q 35 668 40 650 q 25 689 31 678 q 12 710 19 699 q 1 733 5 722 q -4 760 -4 745 q -3 772 -4 766 q -3 785 -3 779 q -6 811 -3 798 q -14 837 -9 824 q -22 862 -18 849 q -25 888 -25 874 q -8 973 -25 943 q 35 1017 9 1003 q 94 1035 62 1031 q 155 1038 125 1038 q 186 1030 172 1038 q 212 1013 201 1023 q 230 988 223 1002 q 236 962 236 975 l 236 939 l 236 929 q 239 881 238 910 q 241 819 241 852 q 242 753 241 786 q 245 693 243 720 q 250 649 247 666 q 260 632 254 632 q 275 634 271 632 q 283 640 280 637 q 288 648 286 644 q 297 656 290 652 q 309 658 302 658 q 318 660 315 658 q 341 676 331 668 q 360 690 351 684 q 378 700 369 696 q 397 704 387 704 q 420 707 412 704 q 433 714 428 711 q 442 722 438 718 q 452 725 446 725 q 460 724 456 725 q 471 724 465 724 q 486 726 479 724 q 500 732 494 729 q 511 739 506 736 q 519 742 516 741 q 546 735 532 742 q 576 720 561 729 q 606 701 591 711 q 631 685 620 692 q 646 679 635 682 q 669 671 656 675 q 695 661 682 667 q 719 646 708 655 q 738 624 730 637 q 745 593 745 611 q 750 565 745 578 q 762 539 755 552 q 776 514 769 526 q 786 488 783 501 m 528 475 q 500 534 526 515 q 437 553 474 553 q 406 549 419 553 q 379 538 392 545 q 351 523 366 531 q 318 505 337 514 q 290 492 304 497 q 264 480 275 486 q 246 466 253 474 q 239 444 239 458 q 246 408 239 427 q 253 368 253 389 q 252 357 253 363 q 250 346 252 351 q 262 344 256 345 q 275 343 269 343 q 327 351 302 343 q 374 364 352 359 q 436 376 408 372 q 484 390 464 380 q 516 418 505 399 q 528 475 528 437 z "},"c":{"ha":697,"x_min":31,"x_max":688,"o":"m 688 484 q 675 452 686 466 q 651 428 665 438 q 626 411 638 417 q 611 403 614 404 q 584 388 599 395 q 553 373 569 380 q 519 362 536 366 q 486 358 503 358 q 439 369 456 358 q 413 396 422 379 q 400 433 404 413 q 393 473 397 454 q 384 509 389 493 q 367 534 379 526 q 343 542 359 540 q 310 545 328 545 q 287 544 298 545 q 267 542 275 543 q 252 541 258 541 q 245 539 246 540 q 232 520 237 534 q 224 489 227 506 q 220 455 221 472 q 216 428 218 438 q 205 371 212 399 q 197 317 197 342 q 202 294 197 309 q 213 262 206 279 q 229 232 220 246 q 245 214 237 218 q 262 209 252 210 q 286 208 273 208 q 310 208 298 208 q 332 205 322 208 q 368 195 350 201 q 405 182 387 189 q 440 171 422 176 q 475 167 458 167 q 528 178 507 167 q 572 210 549 189 q 584 222 578 216 q 594 234 589 229 q 608 244 600 240 q 625 248 615 248 q 649 232 643 248 q 656 193 656 216 q 637 100 656 142 q 568 29 619 58 q 549 24 559 24 q 529 21 538 25 q 508 6 517 15 q 489 -11 499 -3 q 467 -25 479 -19 q 435 -31 454 -31 q 397 -23 417 -31 q 354 -9 377 -16 q 334 -6 344 -7 q 314 -5 323 -5 q 296 -5 304 -5 q 281 -1 288 -4 q 249 15 267 3 q 210 41 230 26 q 168 72 189 56 q 126 102 146 88 q 100 119 110 113 q 82 134 90 126 q 69 152 75 141 q 53 183 62 163 q 37 218 43 203 q 31 245 31 233 q 33 291 31 265 q 36 342 36 316 q 34 384 36 363 q 32 425 32 404 q 40 497 32 463 q 48 509 42 503 q 58 522 54 515 q 67 544 63 532 q 76 568 71 556 q 85 590 80 579 q 96 608 90 600 q 116 633 103 618 q 145 662 130 648 q 176 687 161 676 q 203 697 191 697 q 249 692 224 697 q 294 688 273 688 q 316 690 309 688 q 327 697 323 693 q 333 706 331 701 q 341 714 336 710 q 356 721 347 718 q 385 724 366 724 q 408 723 395 724 q 435 721 421 722 q 488 718 465 718 q 529 716 511 718 q 562 707 547 713 q 592 684 577 700 q 624 641 607 668 q 663 570 641 613 q 671 549 667 561 q 679 524 675 536 q 685 501 683 512 q 688 484 688 490 z "},"d":{"ha":790,"x_min":21,"x_max":761,"o":"m 751 144 q 757 94 753 117 q 761 52 761 71 q 756 20 761 35 q 738 -8 751 4 q 705 -27 726 -20 q 653 -35 684 -35 q 587 -30 611 -35 q 551 -14 563 -25 q 537 16 540 -2 q 534 62 534 35 q 535 86 534 74 q 538 111 536 98 q 483 98 511 104 q 416 85 455 92 q 391 75 403 83 q 367 68 378 68 q 351 70 359 68 q 335 72 342 72 q 299 66 317 72 q 267 60 280 60 q 239 66 254 60 q 203 72 224 72 l 179 72 q 125 84 152 72 q 78 112 99 96 q 44 141 57 127 q 31 158 31 155 q 28 170 29 160 q 25 190 26 179 q 23 210 24 201 q 22 222 22 220 q 21 243 21 233 q 21 262 21 253 q 22 301 21 283 q 26 339 24 320 q 29 378 28 358 q 31 419 31 397 q 30 441 31 430 q 29 464 29 452 q 31 480 29 473 q 35 492 33 486 q 39 502 37 497 q 43 514 41 507 q 45 533 46 522 q 49 553 44 543 q 55 564 50 558 q 65 576 59 570 q 76 590 71 583 q 86 604 82 597 q 96 626 92 615 q 103 645 100 636 q 111 662 106 654 q 121 672 115 669 q 134 677 125 675 q 155 681 144 679 q 179 686 167 684 q 203 690 192 688 q 277 703 233 698 q 363 708 321 708 q 416 702 393 708 q 459 688 439 696 q 497 672 479 680 q 538 660 516 664 q 543 722 541 686 q 545 798 545 759 q 543 838 545 818 q 539 878 541 859 q 535 914 536 897 q 533 943 533 930 q 538 965 533 952 q 551 990 543 979 q 571 1011 559 1002 q 597 1019 583 1019 q 621 1015 608 1019 q 643 1004 633 1010 q 660 989 653 998 q 667 972 667 981 q 664 955 667 964 q 661 935 661 946 q 669 912 663 924 q 677 888 675 900 q 682 845 682 872 q 683 785 682 818 q 684 716 683 752 q 692 647 686 680 q 699 626 694 635 q 710 607 704 616 q 720 588 715 598 q 724 562 724 577 q 722 536 724 550 q 721 505 721 522 q 726 421 723 466 q 734 330 730 377 q 743 236 739 283 q 751 144 747 189 m 550 479 q 536 485 547 484 q 511 486 526 486 q 480 487 497 486 q 447 492 463 488 q 432 496 437 494 q 421 502 426 499 q 411 506 416 504 q 397 507 406 507 q 348 504 372 507 q 310 492 323 501 q 297 471 303 486 q 286 435 290 456 q 278 391 281 414 q 275 345 275 367 q 286 282 275 300 q 325 264 296 264 q 352 267 338 264 q 380 274 366 270 q 406 281 394 277 q 425 286 417 285 q 452 289 433 287 q 491 295 471 292 q 527 301 511 298 q 546 309 543 304 q 549 318 548 311 q 550 335 550 326 q 549 354 550 344 q 548 374 549 365 q 547 390 547 383 q 546 399 546 397 q 547 406 546 399 q 550 420 549 412 q 553 439 551 429 q 554 458 554 450 q 550 479 554 472 z "},"e":{"ha":668,"x_min":26,"x_max":653,"o":"m 648 163 q 651 138 650 149 q 653 117 653 126 q 652 100 653 106 q 647 91 650 95 q 639 82 644 87 q 627 68 634 77 q 611 41 618 55 q 592 15 603 26 q 568 -4 582 3 q 534 -12 554 -12 q 508 -11 522 -12 q 480 -7 494 -9 q 453 -3 467 -5 q 429 -1 440 -1 q 335 0 382 -1 q 244 12 287 2 q 214 19 230 16 q 183 26 199 22 q 153 36 168 31 q 129 50 139 42 q 82 114 100 79 q 55 192 65 149 q 41 288 45 235 q 35 407 37 341 q 30 451 33 430 q 26 484 26 472 q 32 500 26 489 q 39 522 37 512 q 42 552 42 537 q 43 570 41 566 q 51 581 45 574 q 65 595 58 587 q 81 610 73 602 q 94 625 89 618 q 118 642 99 632 q 164 663 136 652 q 227 686 192 675 q 297 706 261 697 q 370 721 334 715 q 437 728 406 727 q 466 723 450 728 q 498 710 482 718 q 529 692 514 703 q 554 672 544 682 q 564 654 559 667 q 575 633 569 642 q 596 605 590 614 q 603 588 602 595 q 604 572 605 581 q 606 545 604 563 q 608 521 607 530 q 608 503 608 511 q 608 488 608 495 q 608 471 608 480 q 598 439 608 451 q 570 416 588 427 q 528 397 553 406 q 475 374 503 387 q 424 357 451 362 q 374 353 397 353 q 368 353 370 353 q 363 354 366 353 q 347 351 358 355 q 320 343 335 348 q 288 335 305 339 q 254 332 271 332 q 234 329 243 332 q 216 321 224 326 q 204 311 209 316 q 200 302 200 307 q 209 264 200 279 q 227 243 217 250 q 254 231 239 234 q 287 221 271 223 q 318 218 302 218 q 372 222 344 218 q 436 227 400 227 q 465 222 453 227 q 490 218 477 218 q 519 221 505 218 q 546 227 533 224 q 571 233 559 231 q 593 236 583 236 q 631 218 619 236 q 648 163 643 200 m 386 475 q 388 482 387 478 q 389 490 389 486 q 385 527 389 511 q 376 554 381 543 q 365 571 371 565 q 354 576 359 576 q 315 571 341 576 q 263 559 290 566 q 215 543 237 551 q 189 526 194 534 q 184 510 186 521 q 183 486 183 500 q 187 442 183 458 q 200 427 191 427 q 214 429 206 427 q 228 433 221 431 q 241 437 235 435 q 250 440 247 439 q 287 444 265 443 q 329 449 309 446 q 366 457 350 452 q 386 475 382 463 z "},"f":{"ha":590,"x_min":7,"x_max":611,"o":"m 603 720 q 585 705 598 712 q 554 690 572 697 q 515 677 536 684 q 475 667 494 671 q 439 660 456 663 q 414 657 422 657 q 383 673 393 657 q 369 714 373 690 q 363 767 364 739 q 358 819 361 795 q 346 860 354 844 q 319 876 338 876 q 304 873 316 876 q 278 867 292 870 q 243 857 262 863 q 239 847 240 854 q 236 831 237 840 q 235 813 235 822 q 235 799 235 805 q 242 773 235 786 q 259 745 250 760 q 276 714 268 730 q 283 681 283 699 q 286 664 283 671 q 291 651 288 656 q 296 642 294 646 q 298 633 298 637 q 297 626 298 632 q 295 613 296 621 q 294 598 294 606 q 293 585 293 590 q 295 576 293 577 q 304 575 298 575 q 330 579 314 575 q 363 588 347 583 q 394 596 380 592 q 414 600 408 600 q 477 594 444 600 q 530 582 509 589 q 551 576 543 577 q 563 569 559 575 q 567 550 566 564 q 568 505 568 536 q 568 475 568 488 q 560 454 568 463 q 533 440 552 445 q 476 436 513 436 q 440 433 454 436 q 414 426 427 429 q 390 418 402 422 q 358 415 377 415 q 347 417 355 415 q 335 419 338 419 q 330 415 332 419 q 326 405 328 411 q 324 392 325 399 q 323 379 323 385 q 326 343 323 363 q 332 306 328 323 q 338 273 335 288 q 342 253 340 259 q 344 222 344 238 q 346 192 344 206 q 355 142 349 170 q 361 87 361 113 q 333 25 361 47 q 235 -1 304 3 q 222 -3 227 -2 q 212 -6 216 -5 q 202 -9 207 -8 q 191 -11 197 -11 q 143 1 164 -11 q 107 33 121 14 q 84 76 92 52 q 77 123 77 100 q 79 172 77 147 q 81 222 81 197 l 81 249 q 81 272 81 261 q 83 293 82 282 q 87 316 85 304 q 93 346 90 329 q 95 354 93 347 q 101 371 98 361 q 106 391 104 380 q 109 411 109 402 q 103 426 109 422 q 87 429 98 429 q 76 429 82 429 q 62 428 70 428 q 44 433 54 428 q 26 448 34 439 q 12 471 18 458 q 7 500 7 484 q 15 518 7 512 q 35 526 22 524 q 60 529 47 528 q 86 533 74 530 q 106 543 98 536 q 114 564 114 550 q 111 597 114 581 q 105 629 109 614 q 98 656 101 644 q 96 677 96 669 q 99 739 96 710 q 102 798 102 768 q 99 835 102 817 q 96 869 96 852 q 114 923 96 899 q 159 965 132 947 q 220 996 186 983 q 284 1017 253 1008 q 339 1028 315 1025 q 374 1032 363 1032 q 462 1024 427 1032 q 521 999 498 1017 q 557 951 545 981 q 578 878 570 921 q 586 847 581 863 q 597 816 591 831 q 607 784 602 800 q 611 754 611 768 q 610 736 611 745 q 603 720 608 728 z "},"g":{"ha":711,"x_min":20,"x_max":664,"o":"m 663 102 q 656 74 661 88 q 650 46 651 60 q 647 -19 648 13 q 634 -80 646 -50 q 592 -139 622 -111 q 504 -195 563 -168 q 462 -209 486 -201 q 412 -223 438 -216 q 361 -233 387 -229 q 315 -237 336 -237 q 286 -233 302 -237 q 248 -228 271 -228 q 193 -231 221 -228 q 139 -233 165 -233 q 89 -225 109 -233 q 57 -203 68 -218 q 40 -169 45 -189 q 36 -123 36 -149 q 37 -58 36 -91 q 45 1 38 -25 q 69 44 53 28 q 115 61 85 61 q 163 53 138 61 q 212 36 188 45 q 257 19 236 26 q 294 11 279 11 q 311 14 303 11 q 328 17 319 17 q 360 9 345 15 q 391 -3 375 3 q 425 -14 407 -9 q 465 -18 443 -18 q 506 -3 494 -18 q 518 37 518 12 q 516 71 518 53 q 514 110 514 89 q 515 124 514 117 q 517 140 515 132 q 465 134 493 137 q 406 127 437 130 q 342 123 375 125 q 277 122 309 122 q 162 130 210 122 q 82 161 113 138 q 35 224 50 184 q 20 329 20 264 q 22 388 20 355 q 31 453 25 420 q 45 513 36 485 q 66 557 54 541 q 106 593 80 574 q 164 630 132 613 q 233 657 197 646 q 306 668 270 668 q 344 665 324 668 q 389 656 363 662 q 457 642 424 646 q 521 625 490 638 q 522 636 521 631 q 522 647 522 641 q 522 664 522 656 q 521 681 521 672 q 522 706 521 694 q 529 725 524 717 q 543 738 534 733 q 568 742 553 742 q 589 738 576 742 q 615 729 602 734 q 638 719 628 724 q 650 711 648 713 q 656 695 654 706 q 657 671 657 684 q 655 578 657 623 q 653 490 653 534 q 654 412 653 450 q 654 338 654 374 q 659 299 654 318 q 663 261 663 280 q 659 222 663 241 q 654 187 654 203 q 659 150 654 168 q 663 113 664 132 l 663 102 m 517 458 q 511 482 515 475 q 497 493 506 490 q 477 497 489 496 q 449 501 465 498 q 416 508 433 505 q 381 515 399 512 q 347 521 363 519 q 315 524 330 524 q 227 498 258 524 q 196 424 196 472 q 199 401 196 414 q 210 377 202 388 q 232 359 218 366 q 268 351 246 351 q 294 353 281 351 q 321 358 308 355 q 345 362 334 360 q 363 364 355 364 q 414 359 386 364 q 468 354 442 354 q 499 355 489 354 q 514 363 510 357 q 518 380 518 369 q 518 412 518 392 q 517 441 518 428 q 517 458 517 454 z "},"h":{"ha":696,"x_min":16,"x_max":682,"o":"m 681 146 q 657 114 677 127 q 611 91 638 100 q 551 77 583 81 q 488 72 518 72 q 451 81 465 72 q 431 108 438 91 q 423 150 425 125 q 421 205 421 175 q 422 271 421 238 q 424 330 424 303 q 422 352 424 340 q 417 376 420 363 q 413 398 415 388 q 411 416 411 409 q 413 438 411 426 q 415 463 415 451 q 407 489 415 479 q 379 498 399 498 q 356 495 368 498 q 333 488 344 492 q 313 479 321 484 q 298 472 304 475 q 271 459 284 466 q 248 445 258 452 q 231 428 237 437 q 225 407 225 418 q 229 374 225 393 q 235 335 233 355 q 236 292 237 313 q 239 254 235 271 q 244 229 241 239 q 249 208 247 218 q 253 188 252 198 q 254 164 254 178 q 257 141 254 152 q 262 119 259 130 q 268 95 265 107 q 271 68 271 83 q 256 24 271 39 q 217 1 241 8 q 162 -8 193 -7 q 98 -9 131 -9 q 74 -6 82 -9 q 61 5 65 -3 q 56 27 57 14 q 56 62 56 41 q 57 95 56 78 q 59 126 58 111 q 62 153 60 141 q 64 172 63 165 q 66 208 64 187 q 69 251 68 229 q 71 293 70 273 q 72 326 72 313 q 63 341 72 335 q 44 354 54 347 q 24 371 33 361 q 16 400 16 382 q 20 426 16 416 q 32 440 25 435 q 47 449 39 446 q 63 456 56 452 q 75 467 70 460 q 79 488 79 474 q 73 538 79 511 q 66 600 66 566 q 69 667 66 633 q 72 733 72 701 q 67 782 72 757 q 62 828 62 807 q 67 851 62 838 q 81 876 72 864 q 102 896 90 888 q 132 904 115 904 q 159 895 148 904 q 177 871 170 886 q 188 838 184 857 q 194 800 191 819 q 197 762 196 781 q 200 729 198 743 q 205 678 203 707 q 211 622 208 648 q 218 576 214 595 q 231 557 223 557 q 249 563 237 557 q 272 578 260 570 q 296 594 284 586 q 317 606 309 602 q 370 622 338 615 q 446 629 401 629 q 490 626 471 629 q 521 615 508 622 q 545 600 534 608 q 565 580 555 591 q 586 558 574 570 q 612 536 597 547 q 625 529 618 532 q 636 523 631 526 q 645 514 642 519 q 648 500 648 509 q 647 482 648 492 q 646 463 646 472 q 650 432 646 448 q 661 398 655 416 q 671 361 667 380 q 676 322 676 342 q 673 306 676 315 q 668 288 671 296 q 662 272 665 279 q 660 265 660 266 q 667 246 660 255 q 673 225 673 237 q 673 213 673 218 q 672 201 672 207 q 677 180 672 190 q 682 158 682 171 q 682 152 682 155 q 681 146 682 149 z "},"i":{"ha":313,"x_min":24,"x_max":285,"o":"m 240 790 q 219 767 235 776 q 183 752 203 758 q 139 744 162 747 q 96 742 116 742 q 42 760 60 742 q 24 825 24 777 q 30 861 24 844 q 42 890 35 877 q 54 914 48 904 q 60 932 60 924 q 82 943 68 938 q 112 952 97 948 q 139 958 127 956 q 155 960 151 960 q 212 947 190 960 q 235 920 235 935 q 233 904 235 912 q 232 889 232 895 q 239 850 233 871 q 244 811 244 829 q 240 790 244 799 m 279 47 q 257 30 274 39 q 220 13 241 21 q 177 1 199 5 q 142 -4 156 -4 q 97 8 115 -1 q 67 34 79 18 q 50 72 56 50 q 43 121 45 94 q 47 148 43 134 q 52 179 52 162 q 49 217 52 198 q 46 256 46 237 q 47 296 46 271 q 50 349 48 320 q 55 407 52 377 q 62 463 58 437 q 69 510 65 490 q 78 541 73 531 q 107 575 90 564 q 146 586 125 586 q 191 575 173 586 q 221 544 210 564 q 237 495 232 524 q 241 431 241 466 q 240 400 241 415 q 239 371 239 385 q 244 315 239 342 q 257 261 250 287 q 271 212 264 235 q 277 168 277 188 q 276 154 277 162 q 275 140 275 146 q 280 99 275 115 q 285 71 285 83 q 279 47 285 58 z "},"j":{"ha":221,"x_min":-273,"x_max":208,"o":"m 172 828 q 164 782 172 798 q 142 758 157 766 q 104 749 127 750 q 53 747 82 747 q 17 754 32 747 q -9 773 1 762 q -24 800 -19 785 q -29 828 -29 814 q -21 879 -29 850 q -9 912 -16 899 q 10 931 -3 924 q 44 941 23 939 q 102 943 66 943 q 140 934 126 943 q 161 908 154 924 q 170 871 168 892 q 172 828 172 850 m 207 -21 q 201 -36 205 -28 q 192 -52 197 -43 q 180 -68 186 -60 q 172 -85 175 -77 q 163 -131 164 -108 q 159 -176 162 -154 q 149 -217 157 -197 q 121 -253 142 -237 q 107 -261 115 -258 q 90 -268 99 -264 q 73 -275 81 -271 q 57 -282 64 -278 q 40 -294 47 -288 q 26 -305 33 -300 q 13 -313 20 -310 q -3 -317 6 -317 q -32 -313 -18 -317 q -60 -309 -46 -309 q -100 -310 -79 -309 q -142 -312 -122 -311 q -180 -314 -163 -313 q -207 -315 -197 -315 q -230 -310 -218 -315 q -251 -295 -241 -304 q -267 -273 -260 -286 q -273 -249 -273 -261 q -271 -221 -273 -239 q -268 -179 -268 -203 q -269 -142 -268 -160 q -271 -111 -271 -123 q -264 -75 -271 -90 q -247 -50 -258 -60 q -222 -34 -236 -40 q -192 -25 -208 -28 q -170 -29 -182 -25 q -144 -33 -157 -33 q -93 -30 -119 -33 q -46 -25 -66 -26 q -23 -26 -35 -25 q 0 -26 -12 -26 q 28 -24 16 -26 q 49 -15 41 -22 q 61 8 57 -7 q 65 50 65 24 q 62 136 65 97 q 57 210 60 174 q 51 279 54 245 q 49 351 49 313 l 49 418 q 47 467 49 444 q 43 524 46 491 q 36 558 41 541 q 32 591 32 576 q 41 614 32 605 q 63 630 51 624 q 87 639 75 636 q 106 642 100 642 q 121 640 116 642 q 131 631 127 637 q 138 615 134 625 q 147 587 141 604 q 152 579 149 582 q 158 572 155 576 q 162 561 160 568 q 164 541 164 554 q 162 512 164 526 q 160 486 160 498 q 163 393 160 439 q 172 301 167 347 q 183 208 177 255 q 195 113 189 161 q 203 53 198 83 q 208 -3 208 23 q 208 -12 208 -7 q 207 -21 208 -17 z "},"k":{"ha":689,"x_min":39,"x_max":679,"o":"m 671 481 q 651 460 664 468 q 622 448 637 452 q 589 440 606 443 q 559 435 572 437 q 536 430 545 433 q 528 422 528 427 q 535 382 528 403 q 555 342 543 362 q 581 304 567 322 q 606 272 594 286 q 626 247 618 257 q 633 232 633 236 q 632 223 633 227 q 629 214 631 219 q 625 202 627 209 q 624 186 624 195 q 628 162 624 173 q 635 141 631 151 q 643 122 640 131 q 647 104 647 113 q 644 90 647 95 q 634 82 640 85 q 618 77 627 79 q 599 69 610 74 q 574 58 589 64 q 544 46 560 52 q 510 37 528 41 q 476 33 493 33 q 427 54 447 33 q 393 106 408 75 q 366 176 378 138 q 340 249 354 214 q 330 278 336 260 q 320 314 325 296 q 310 345 315 332 q 302 361 306 359 q 295 359 304 360 q 276 357 287 358 q 256 355 266 356 q 245 353 247 353 q 242 346 243 351 q 241 336 241 342 q 243 319 241 328 q 246 301 244 310 q 249 286 248 293 q 250 275 250 279 q 252 230 252 253 q 254 186 253 208 q 257 144 255 164 q 264 109 259 125 q 274 82 267 96 q 281 57 281 68 q 268 30 279 41 q 241 11 256 18 q 209 -1 225 3 q 180 -5 192 -5 q 111 -3 138 -5 q 68 13 84 0 q 45 55 52 26 q 39 135 39 83 q 40 180 39 157 q 42 223 41 203 q 45 262 43 244 q 49 292 47 279 q 54 308 50 302 q 58 323 58 313 q 55 367 58 345 q 52 408 52 389 q 57 433 52 422 q 67 456 62 444 q 78 483 73 468 q 83 519 83 498 l 83 557 q 86 601 83 578 q 91 646 88 624 q 97 689 94 668 q 100 726 100 709 q 98 745 100 732 q 96 772 97 757 q 93 804 94 787 q 92 836 92 821 q 98 873 92 861 q 113 888 104 884 q 132 892 121 892 q 151 893 142 892 q 165 892 155 893 q 186 890 175 892 q 208 886 197 889 q 221 879 218 883 q 225 862 223 876 q 229 831 227 848 q 232 800 231 814 q 233 781 233 785 q 229 769 233 774 q 222 756 226 763 q 214 742 218 750 q 211 724 211 734 q 213 688 211 708 q 216 648 215 667 q 214 632 216 640 q 212 616 212 624 q 217 595 212 604 q 221 575 221 587 q 220 548 221 559 q 218 525 218 536 q 219 506 218 516 q 221 488 219 496 q 225 475 222 480 q 233 469 228 469 q 252 473 241 469 q 272 482 262 477 q 293 493 283 488 q 311 503 303 499 q 363 525 339 515 q 412 544 388 534 q 461 562 435 553 q 517 583 486 571 q 539 594 528 589 q 555 602 550 600 q 573 597 563 602 q 593 593 583 593 q 613 595 602 593 q 631 597 623 597 q 650 590 642 597 q 666 570 659 582 q 675 545 672 559 q 679 518 679 530 q 671 481 679 495 z "},"l":{"ha":382,"x_min":16,"x_max":395,"o":"m 393 146 q 395 136 395 140 q 395 129 395 132 q 389 102 395 113 q 376 78 382 90 q 370 62 373 72 q 361 42 366 52 q 348 26 355 33 q 329 20 340 20 q 300 21 317 20 q 271 22 284 22 q 231 20 254 22 q 183 18 208 18 l 170 18 q 119 14 144 18 q 75 9 94 9 q 56 14 66 9 q 37 27 45 19 q 22 49 28 36 q 16 78 16 62 q 26 99 16 92 q 51 113 37 106 q 75 126 64 119 q 86 149 86 134 q 83 179 86 162 q 78 214 81 196 q 72 250 75 232 q 69 283 69 268 q 70 334 69 309 q 71 385 71 359 q 67 513 71 454 q 59 625 63 572 q 51 730 55 678 q 47 839 47 782 q 52 880 47 862 q 67 911 56 899 q 99 931 78 924 q 153 939 119 939 q 209 932 186 939 q 246 911 232 925 q 266 876 260 897 q 272 825 272 854 q 269 775 272 799 q 265 722 265 751 l 265 685 q 263 651 265 668 q 258 616 261 634 q 254 579 256 598 q 252 541 252 561 q 256 428 252 486 q 260 310 260 370 q 261 220 260 250 q 275 189 262 189 q 299 193 286 189 q 325 197 313 197 q 368 184 349 196 q 393 146 388 172 z "},"m":{"ha":971,"x_min":41,"x_max":945,"o":"m 945 168 q 929 146 941 155 q 902 133 918 138 q 868 126 886 128 q 831 125 849 125 l 815 125 q 804 124 813 125 q 785 123 794 123 q 758 130 766 123 q 745 148 749 137 q 739 170 741 158 q 733 193 737 182 q 727 205 732 197 q 718 222 723 213 q 708 240 712 231 q 704 256 704 250 q 708 273 704 263 q 716 294 712 283 q 725 315 721 304 q 729 335 729 326 q 727 361 729 345 q 725 386 725 376 q 727 431 725 409 q 729 471 729 453 q 722 505 729 492 q 692 518 715 518 q 647 505 665 518 q 616 474 628 491 q 600 441 605 456 q 595 421 595 425 q 598 389 595 406 q 606 351 602 371 q 616 310 611 332 q 623 267 621 289 q 628 188 626 229 q 629 114 629 146 q 621 69 629 90 q 591 35 613 47 q 571 29 583 29 q 549 26 559 28 q 530 21 543 25 q 503 14 518 18 q 472 8 488 11 q 441 5 456 5 q 418 8 426 5 q 405 16 410 11 q 396 30 400 22 q 386 47 393 37 q 374 63 380 56 q 362 75 368 69 q 354 88 357 81 q 351 106 351 95 q 356 136 351 121 q 361 167 361 150 q 359 200 361 182 q 356 235 358 217 q 353 269 354 252 q 351 301 351 286 q 352 316 351 307 q 353 339 353 326 q 348 382 353 368 q 323 396 343 396 q 304 393 315 396 q 284 387 294 391 q 266 379 275 383 q 253 374 258 376 q 230 363 242 369 q 208 350 218 358 q 191 331 197 342 q 184 301 184 319 q 187 282 184 292 q 194 261 190 272 q 200 239 197 250 q 203 218 203 229 q 202 210 203 214 q 201 201 201 205 q 205 179 201 190 q 215 159 210 169 q 224 141 220 150 q 228 126 228 133 q 227 62 228 90 q 219 15 226 34 q 197 -15 212 -5 q 154 -25 182 -25 q 133 -23 147 -25 q 103 -17 119 -20 q 74 -7 87 -13 q 56 4 60 -2 q 51 18 54 8 q 46 41 49 28 q 43 68 44 54 q 41 96 41 82 q 46 121 41 111 q 52 142 52 131 q 51 161 52 150 q 48 184 50 172 q 47 209 47 197 q 46 232 46 221 q 49 254 46 239 q 55 290 52 270 q 61 333 58 311 q 64 378 64 356 q 61 458 64 420 q 58 534 58 497 q 59 573 58 553 q 64 609 59 593 q 81 635 69 625 q 115 646 93 646 q 145 642 132 646 q 168 627 159 638 q 181 598 177 616 q 186 549 186 579 q 183 514 186 531 q 180 476 180 498 q 233 487 209 480 q 279 504 256 494 q 324 523 301 513 q 374 541 347 532 q 408 551 391 546 q 440 557 425 557 q 467 552 455 557 q 489 541 479 547 q 506 530 498 535 q 522 525 514 525 q 537 532 531 525 q 549 548 544 538 q 561 570 555 558 q 575 592 567 582 q 596 608 584 602 q 625 615 608 615 q 649 614 637 615 q 673 614 662 614 q 715 617 692 614 q 760 625 738 621 q 799 633 781 629 q 825 636 817 636 q 846 631 833 636 q 871 613 858 627 q 898 575 884 599 q 921 512 911 551 q 938 418 932 473 q 945 288 945 363 q 943 272 945 279 q 939 258 941 265 q 936 245 937 252 q 935 232 934 238 q 940 201 935 219 q 945 172 945 184 l 945 168 z "},"n":{"ha":699,"x_min":35,"x_max":663,"o":"m 663 292 q 659 246 663 269 q 654 203 654 224 q 656 176 654 189 q 659 150 659 163 q 656 138 659 147 q 647 119 653 130 q 632 97 642 108 q 611 82 623 87 q 592 78 603 79 q 570 77 582 77 q 546 76 558 77 q 521 74 533 76 q 491 66 504 71 q 465 62 479 62 q 428 76 441 62 q 410 109 416 89 q 403 150 404 128 q 400 189 401 172 q 395 230 398 212 q 390 262 391 247 q 391 280 390 272 q 392 296 392 288 q 390 329 392 313 q 381 355 388 344 q 360 372 374 366 q 323 378 347 378 q 288 373 307 378 q 253 359 269 369 q 226 336 237 350 q 215 302 215 321 q 218 286 215 295 q 221 267 221 277 q 217 228 221 248 q 212 189 212 208 q 217 136 212 161 q 221 94 221 112 q 219 53 221 71 q 210 24 216 35 q 190 6 203 12 q 158 0 178 0 q 110 15 127 0 q 93 61 93 30 q 94 85 93 73 q 94 111 94 98 q 90 142 94 130 q 80 165 86 154 q 68 190 75 177 q 57 224 62 203 q 56 229 56 226 q 56 235 56 231 q 56 252 56 242 q 57 272 57 262 q 54 330 57 299 q 46 394 50 361 q 38 458 41 427 q 35 518 35 490 q 45 559 35 543 q 73 585 56 576 q 111 598 90 595 q 150 602 131 602 q 209 582 186 602 q 231 534 231 563 q 229 514 231 525 q 228 493 228 504 q 230 476 228 486 q 240 467 233 467 q 266 472 248 467 q 303 484 283 477 q 340 496 323 490 q 363 503 357 501 q 408 507 389 507 q 443 511 427 506 q 468 519 458 515 q 487 527 478 524 q 504 532 495 530 q 528 534 513 534 q 561 529 551 534 q 577 516 572 524 q 586 499 583 509 q 597 481 589 490 q 619 462 608 469 q 639 448 630 454 q 654 433 648 441 q 660 412 660 425 q 657 393 660 403 q 654 368 654 382 q 659 331 654 351 q 663 292 663 311 z "},"o":{"ha":635,"x_min":26,"x_max":614,"o":"m 612 412 q 613 405 612 408 q 614 397 614 401 q 610 366 614 382 q 601 333 606 349 q 590 300 595 317 q 582 267 585 283 q 581 251 581 260 q 581 234 581 243 q 580 217 581 225 q 578 203 579 209 q 564 166 574 186 q 545 129 554 146 q 519 84 530 102 q 493 55 508 66 q 454 39 477 44 q 393 35 431 35 q 328 38 361 35 q 263 47 294 41 q 205 61 232 54 q 158 78 178 69 q 121 100 135 88 q 98 127 108 111 q 80 168 88 144 q 60 228 72 192 q 47 264 54 246 q 36 299 41 281 q 28 335 31 317 q 26 372 26 353 q 28 398 26 383 q 33 427 30 412 q 39 455 35 441 q 46 476 42 468 q 54 490 50 484 q 62 500 58 495 q 69 511 66 506 q 72 525 72 517 q 71 535 72 531 q 67 544 69 540 q 64 552 65 548 q 62 562 62 557 q 65 570 62 562 q 74 590 68 578 q 87 615 79 602 q 104 641 95 629 q 124 661 113 653 q 147 669 136 669 l 163 669 l 168 669 q 191 667 178 669 q 221 663 205 665 q 255 659 237 661 q 290 657 273 657 q 353 659 321 657 q 414 661 385 661 q 476 651 454 661 q 508 626 497 641 q 523 592 518 610 q 534 558 527 574 q 553 532 540 546 q 578 498 567 518 q 585 475 583 489 q 591 452 586 462 q 604 429 597 437 q 612 412 611 421 m 450 378 q 453 414 452 391 q 454 458 454 437 q 452 485 454 469 q 440 514 449 500 q 415 537 431 528 q 371 547 398 547 q 336 544 354 547 q 301 541 318 541 q 284 541 293 541 q 267 542 275 542 q 228 532 243 542 q 205 506 213 522 q 194 467 197 489 q 191 419 191 444 q 193 365 191 387 q 201 329 195 343 q 214 306 206 315 q 235 292 222 298 q 252 288 245 288 q 269 283 259 288 q 279 278 275 281 q 285 270 282 274 q 292 264 288 267 q 301 261 296 261 q 312 262 306 261 q 323 262 317 262 q 338 260 332 262 q 348 253 344 257 q 356 247 353 250 q 364 244 360 244 q 378 251 366 245 q 404 265 390 257 q 428 279 417 273 q 440 288 439 286 q 445 305 444 293 q 448 330 447 317 q 449 357 449 344 q 450 378 450 370 z "},"p":{"ha":696,"x_min":22,"x_max":681,"o":"m 677 343 q 667 316 676 336 q 647 273 659 296 q 626 232 636 251 q 610 207 615 213 q 539 171 588 183 q 421 160 490 159 q 382 166 402 160 q 340 172 361 172 q 298 166 319 172 q 256 160 277 160 q 228 164 242 160 l 228 157 q 231 136 228 145 q 237 120 233 127 q 244 104 241 112 q 250 86 248 96 q 253 58 252 74 q 255 26 254 42 q 258 -3 256 11 q 262 -24 260 -16 q 271 -54 268 -38 q 275 -86 273 -70 q 279 -117 277 -102 q 283 -144 280 -132 q 293 -163 287 -154 q 301 -182 300 -172 q 299 -191 301 -187 q 296 -199 298 -195 q 291 -209 294 -203 q 288 -221 289 -214 q 286 -240 286 -231 q 286 -260 286 -250 q 284 -277 286 -269 q 279 -290 283 -286 q 267 -298 277 -293 q 244 -309 256 -303 q 221 -319 232 -315 q 207 -323 210 -323 q 190 -326 199 -326 q 171 -326 180 -326 q 57 -298 92 -326 q 22 -204 22 -270 q 25 -175 22 -190 q 32 -145 28 -161 q 38 -115 35 -130 q 41 -83 41 -99 q 41 -56 41 -68 q 40 -29 40 -43 q 43 10 40 -12 q 49 55 45 31 q 56 106 53 79 q 58 163 58 134 q 57 189 58 173 q 53 225 55 205 q 49 268 51 245 q 47 314 47 290 q 50 371 47 341 q 56 435 53 401 q 62 504 60 468 q 65 579 65 540 q 62 621 65 602 q 60 656 60 639 q 80 708 60 689 q 131 726 101 726 q 157 721 144 726 q 176 704 169 715 q 183 672 182 694 q 183 627 183 650 q 185 587 183 604 q 195 570 186 570 q 212 575 202 570 q 232 589 222 581 q 251 604 242 597 q 267 614 260 611 q 318 628 288 623 q 378 644 347 633 q 409 656 392 650 q 443 668 425 663 q 479 678 460 674 q 517 682 498 682 q 565 672 538 682 q 616 639 592 663 q 658 575 641 615 q 675 476 675 536 q 674 449 675 463 q 673 422 673 435 q 677 395 673 409 q 681 366 681 382 q 680 354 681 360 q 677 343 679 349 m 519 425 q 526 438 524 429 q 528 456 528 446 q 524 491 528 477 q 516 514 521 506 q 504 527 511 523 q 492 530 498 530 q 481 529 486 530 q 472 528 477 528 l 463 528 q 387 518 422 528 q 322 495 351 509 q 270 469 292 482 q 232 447 247 455 q 218 441 224 442 q 208 439 212 440 q 203 433 205 437 q 201 418 201 429 q 204 394 201 401 q 220 387 207 387 q 255 393 233 387 q 297 400 276 398 q 344 403 319 402 q 395 406 369 404 q 447 409 421 407 q 494 416 472 412 q 497 418 494 416 q 505 421 500 420 q 514 425 509 423 q 519 427 518 427 l 519 425 z "},"q":{"ha":689,"x_min":16,"x_max":861,"o":"m 861 -149 q 858 -165 861 -154 q 852 -192 854 -176 q 855 -211 852 -200 q 857 -231 857 -222 q 851 -254 857 -243 q 844 -272 844 -264 q 851 -298 844 -288 q 857 -315 857 -308 q 842 -350 854 -336 q 814 -372 829 -363 q 787 -383 800 -380 q 772 -386 774 -386 q 722 -380 748 -386 q 670 -366 695 -374 q 622 -348 644 -357 q 583 -332 600 -338 q 521 -306 549 -317 q 474 -279 493 -295 q 444 -239 454 -263 q 433 -175 433 -215 q 435 -134 433 -153 q 440 -99 437 -116 q 447 -65 444 -82 q 454 -28 451 -47 q 457 -1 456 -12 q 458 20 458 10 q 460 39 459 29 q 463 65 460 50 q 466 88 463 75 q 471 113 469 100 q 476 137 474 125 q 478 158 478 149 q 477 169 478 165 q 472 174 475 174 q 459 169 468 174 q 442 159 451 164 q 424 148 433 153 q 411 142 415 142 q 379 139 399 138 q 343 138 360 139 q 309 132 326 136 q 278 129 292 127 q 247 134 263 130 q 214 145 231 139 q 181 158 197 152 q 150 168 165 164 q 133 172 142 170 q 116 174 124 173 q 100 177 107 176 q 90 180 94 178 q 60 212 74 189 q 37 264 47 235 q 21 323 27 293 q 16 375 16 353 q 22 431 16 404 q 29 486 29 459 q 28 501 29 494 q 28 514 28 507 q 39 551 28 532 q 67 587 50 570 q 105 619 85 604 q 143 645 125 634 q 174 663 161 656 q 189 669 186 669 q 202 671 195 671 q 218 672 210 672 q 267 668 245 672 q 311 657 289 664 q 355 642 332 651 q 407 623 378 633 q 426 617 415 619 q 450 610 437 615 q 470 599 458 606 q 488 593 481 593 q 499 602 496 593 q 505 624 503 612 q 509 650 507 637 q 518 669 511 663 q 527 674 521 672 q 542 679 534 677 q 558 681 549 680 q 572 682 566 682 q 598 665 588 682 q 614 621 608 648 q 623 559 621 593 q 626 490 625 524 q 627 423 627 455 q 627 370 627 391 q 629 319 627 345 q 633 266 631 293 q 637 212 635 239 q 639 160 639 185 q 638 137 639 149 q 637 115 637 125 q 640 96 637 104 q 647 80 643 87 q 653 67 650 73 q 656 57 656 62 q 653 45 656 51 q 648 31 651 39 q 643 15 645 24 q 640 -4 640 6 q 652 -61 640 -43 q 682 -79 663 -79 q 700 -77 692 -79 q 718 -75 709 -75 q 747 -80 730 -75 q 781 -87 764 -85 q 809 -93 795 -90 q 834 -101 823 -95 q 852 -118 845 -106 q 861 -149 859 -129 m 505 452 q 493 461 503 456 q 470 471 484 466 q 440 481 456 476 q 409 490 424 486 q 381 496 393 494 q 364 498 370 498 q 330 491 343 498 q 309 470 317 484 q 298 433 301 455 q 296 380 296 411 q 300 333 296 350 q 314 307 304 316 q 339 296 323 298 q 376 294 355 294 q 384 295 380 294 q 390 296 387 296 q 411 299 395 296 q 445 304 427 301 q 477 310 463 307 q 493 314 492 313 q 499 327 496 317 q 505 353 503 338 q 509 384 507 368 q 510 415 510 401 q 509 437 510 428 q 505 452 508 447 z "},"r":{"ha":661,"x_min":33,"x_max":660,"o":"m 660 447 q 656 436 659 440 q 649 426 653 431 q 643 412 646 420 q 640 390 640 404 q 641 380 640 385 q 642 371 642 376 q 632 339 642 351 q 608 321 623 328 q 572 311 593 315 q 530 301 552 307 q 497 292 515 297 q 463 286 479 286 q 422 302 434 286 q 407 343 410 319 q 405 397 404 368 q 405 450 406 425 q 394 491 403 475 q 363 507 386 507 q 343 504 353 507 q 324 496 333 500 q 307 487 315 492 q 294 481 299 483 q 271 471 284 476 q 245 460 258 466 q 225 447 233 454 q 216 431 216 440 q 223 391 216 415 q 239 343 231 367 q 254 300 247 319 q 261 277 261 281 q 259 268 261 272 q 257 257 257 263 q 259 237 257 248 q 265 214 262 226 q 271 190 268 202 q 273 164 273 177 q 273 147 273 160 q 271 118 272 134 q 267 89 269 103 q 261 69 264 75 q 253 61 258 64 q 243 57 248 58 q 231 53 237 55 q 218 47 225 52 q 197 30 203 38 q 183 17 190 22 q 167 7 177 11 q 136 4 157 4 q 87 11 107 4 q 56 34 68 18 q 38 73 43 49 q 33 129 33 96 q 37 173 33 151 q 46 218 41 195 q 56 263 51 240 q 64 310 61 286 q 70 380 67 342 q 72 450 72 418 q 68 511 72 477 q 63 528 66 519 q 60 543 60 536 q 62 565 60 553 q 67 588 64 576 q 73 611 71 600 q 77 635 76 623 q 74 653 77 646 q 71 668 71 661 q 78 697 71 687 q 94 712 85 708 q 108 718 102 717 q 111 718 114 718 q 152 708 137 718 q 173 682 166 697 q 182 648 180 666 q 186 614 184 630 q 190 588 187 599 q 200 578 192 578 q 214 583 205 578 q 230 593 222 587 q 241 602 237 598 q 243 603 245 606 l 241 602 q 243 602 242 602 q 248 606 245 604 q 245 604 245 604 l 244 604 q 262 618 253 611 q 278 630 269 623 q 294 640 287 636 q 320 651 306 648 q 346 661 334 654 q 366 677 356 669 q 385 692 376 686 q 405 699 393 695 q 430 704 416 702 q 456 708 444 707 q 479 710 469 710 q 496 707 489 710 q 509 699 503 704 q 522 690 515 694 q 539 682 529 685 q 569 676 552 678 q 601 669 586 675 q 625 649 615 663 q 635 606 635 635 q 637 583 635 593 q 643 564 640 572 q 649 549 646 556 q 652 533 652 541 q 651 517 652 526 q 650 500 650 509 q 655 471 650 486 q 660 447 660 456 z "},"s":{"ha":633,"x_min":11,"x_max":628,"o":"m 623 117 q 614 105 620 111 q 603 94 609 100 q 589 83 596 89 q 575 69 582 77 q 556 39 564 56 q 541 14 549 23 q 534 8 541 13 q 520 -3 528 3 q 506 -13 512 -8 q 501 -17 500 -18 q 488 -21 495 -20 q 472 -21 481 -21 q 437 -19 456 -21 q 399 -17 418 -17 q 361 -23 380 -17 q 322 -29 342 -29 q 289 -30 305 -29 q 256 -31 273 -31 q 183 -26 216 -31 q 121 -7 149 -21 q 72 31 94 7 q 35 94 50 56 q 30 112 31 102 q 29 133 29 122 q 28 155 28 144 q 26 176 28 166 q 16 223 21 203 q 11 260 11 243 q 20 293 11 278 q 46 318 30 308 q 85 335 63 329 q 132 340 107 340 q 155 340 146 340 q 173 336 164 339 q 193 326 182 333 q 220 306 203 319 q 236 293 226 299 q 249 283 245 288 q 256 269 254 277 q 261 252 258 261 q 268 236 264 243 q 279 224 272 229 q 294 213 286 216 q 310 206 302 210 q 321 196 317 202 q 326 178 326 190 q 326 166 326 172 q 325 155 325 161 q 330 136 325 144 q 345 122 336 128 q 363 114 353 117 q 383 111 374 111 q 408 115 395 111 q 431 128 420 119 q 449 149 442 136 q 456 178 456 161 q 451 207 456 191 q 446 243 446 223 q 446 263 446 252 q 447 282 447 273 q 434 309 447 298 q 399 329 420 320 q 350 345 377 338 q 294 358 322 351 q 239 372 266 365 q 193 390 213 380 q 172 406 182 395 q 150 425 161 416 q 123 445 136 436 q 100 467 110 454 q 85 498 90 480 q 79 546 79 517 q 94 630 79 599 q 134 677 108 661 q 199 701 161 694 q 283 713 237 708 q 329 717 304 715 q 376 720 353 720 q 417 713 393 720 q 465 692 441 706 q 511 658 489 679 q 545 610 532 637 q 551 596 548 602 q 557 585 555 590 q 561 575 559 580 q 562 562 562 570 q 554 536 559 546 q 538 522 548 526 q 516 515 529 517 q 485 514 503 514 q 472 514 477 514 q 464 515 466 514 q 433 529 450 518 q 398 552 416 540 q 364 575 380 564 q 335 587 347 585 q 300 591 315 591 q 250 579 269 591 q 232 549 232 566 q 243 525 232 538 q 269 501 254 512 q 296 481 283 490 q 314 472 310 473 q 329 471 319 470 q 347 468 339 471 q 358 461 353 466 q 370 456 363 457 q 406 449 387 450 q 441 441 425 447 q 524 408 493 426 q 574 363 555 391 q 601 295 592 336 q 618 193 610 254 q 624 164 620 176 q 628 140 628 152 q 623 117 628 130 z "},"t":{"ha":555,"x_min":-17,"x_max":579,"o":"m 550 653 q 579 603 579 636 q 574 577 579 591 q 561 553 570 564 q 541 534 553 541 q 514 526 528 526 q 500 527 507 526 q 488 528 494 528 q 467 526 477 528 q 448 522 457 524 q 431 517 439 519 q 419 515 424 515 q 397 517 409 515 q 374 519 385 519 q 345 515 355 519 q 331 503 335 511 q 327 480 327 494 q 326 447 326 466 q 323 380 326 415 q 317 309 321 345 q 311 239 314 273 q 309 176 309 205 q 310 143 309 159 q 311 113 311 127 q 311 103 311 109 q 310 94 310 98 q 303 73 309 90 q 289 38 297 57 q 272 3 281 19 q 258 -17 264 -13 q 245 -21 253 -20 q 228 -22 237 -22 q 160 -8 182 -22 q 139 37 139 7 q 140 64 139 50 q 142 89 142 77 q 137 174 142 127 q 127 273 133 220 q 117 382 121 326 q 113 498 113 439 q 77 494 93 494 q 40 499 57 494 q 11 514 23 505 q -9 538 -2 524 q -17 571 -17 553 q -7 607 -17 594 q 20 628 3 621 q 58 639 37 635 q 103 648 80 643 l 103 673 q 99 730 103 704 q 90 781 95 757 q 81 827 85 805 q 77 871 77 849 q 80 906 77 892 q 90 930 83 920 q 110 947 98 940 q 142 961 123 954 q 163 968 150 964 q 191 974 176 971 q 223 979 206 977 q 256 981 239 981 q 293 978 275 981 q 326 963 311 975 q 349 930 340 952 q 358 868 358 907 q 357 825 358 847 q 353 790 356 804 q 346 773 351 781 q 337 758 341 765 q 329 743 332 750 q 326 729 326 736 q 328 710 326 722 q 330 692 330 699 q 326 673 330 681 q 322 657 322 665 q 333 645 322 648 q 363 643 343 643 q 412 645 391 643 q 451 651 433 648 q 485 656 469 654 q 519 659 501 659 q 536 657 528 659 q 550 653 544 656 z "},"u":{"ha":749,"x_min":35,"x_max":733,"o":"m 722 236 q 730 200 728 214 q 733 175 733 186 q 731 159 733 165 q 723 145 728 152 q 707 132 717 139 q 684 117 698 125 q 660 101 669 108 q 643 89 651 94 q 626 81 635 83 q 604 78 617 78 q 559 95 577 78 q 541 144 541 112 q 541 167 541 154 q 542 193 542 180 q 540 225 542 211 q 530 240 538 240 q 513 236 526 240 q 485 224 500 231 q 451 209 469 217 q 418 194 433 201 q 392 182 403 187 q 379 176 381 177 q 368 174 374 175 q 355 174 363 174 q 335 174 346 174 q 313 175 324 175 q 267 170 289 175 q 224 159 245 165 q 183 148 203 153 q 144 143 163 143 q 100 158 118 143 q 70 196 82 172 q 51 249 58 219 q 40 308 43 278 q 36 366 37 338 q 35 412 35 393 q 38 437 35 425 q 44 463 41 450 q 51 486 48 475 q 54 507 54 497 q 53 539 54 523 q 52 572 52 555 q 61 627 52 597 q 79 686 70 656 q 90 723 86 707 q 101 750 94 739 q 121 767 109 761 q 157 772 134 772 q 175 770 162 772 q 204 765 188 768 q 239 757 221 762 q 273 747 257 753 q 300 736 289 742 q 315 725 312 730 q 321 709 319 718 q 322 690 322 700 q 320 661 322 676 q 315 633 317 646 q 310 608 312 619 q 307 589 307 596 q 309 572 307 581 q 311 554 311 564 q 306 534 310 544 q 301 515 302 524 q 304 481 301 500 q 307 441 307 461 q 306 423 307 431 q 302 407 304 414 q 298 393 300 399 q 297 382 296 387 q 299 359 298 368 q 303 345 300 350 q 311 339 306 340 q 323 338 315 338 q 380 339 352 338 q 435 344 409 340 q 483 352 461 347 q 521 366 505 357 q 529 387 527 372 q 532 418 532 401 q 531 449 532 435 q 530 469 530 464 q 526 586 530 538 q 521 657 521 633 q 524 673 521 663 q 534 693 528 684 q 551 710 541 703 q 575 717 561 717 q 602 712 589 717 q 625 701 615 708 q 641 685 635 694 q 647 665 647 675 q 646 646 647 657 q 644 625 644 635 q 648 585 644 607 q 655 541 651 563 q 663 499 660 519 q 667 464 667 479 q 664 434 667 448 q 661 407 661 420 q 667 378 661 391 q 679 354 672 365 q 694 333 686 342 q 705 314 701 323 q 714 279 711 300 q 722 236 717 257 z "},"v":{"ha":629,"x_min":1,"x_max":625,"o":"m 625 640 q 619 623 624 631 q 612 606 614 616 q 609 581 608 593 q 607 562 610 569 q 591 538 603 550 q 574 511 580 527 q 570 495 570 505 q 566 476 569 486 q 558 464 562 470 q 551 452 553 458 q 550 432 549 443 q 547 412 551 421 q 536 391 543 401 q 526 370 528 381 q 524 342 523 357 q 522 314 524 328 q 516 298 521 307 q 507 282 511 290 q 499 266 503 274 q 496 250 495 258 q 496 240 496 245 q 497 231 497 235 q 491 208 497 219 q 476 184 484 196 q 462 161 469 173 q 456 138 456 150 q 457 122 456 129 q 458 110 458 116 q 453 90 458 103 q 433 63 448 77 q 391 40 418 50 q 319 31 363 31 q 270 40 285 31 q 249 67 255 50 q 239 108 243 84 q 221 160 235 132 q 204 185 214 175 q 185 202 195 195 q 169 216 176 210 q 157 232 161 223 q 154 243 155 236 q 152 258 153 250 q 149 275 151 266 q 144 292 147 283 q 130 320 138 306 q 114 348 122 334 q 99 373 106 361 q 89 395 92 385 q 85 419 85 406 q 81 447 85 433 q 60 497 73 471 q 33 553 46 524 q 10 610 20 581 q 1 667 1 639 q 6 694 1 682 q 24 717 11 707 q 49 724 31 722 q 89 733 67 726 q 128 750 111 740 q 160 760 145 760 q 211 753 194 760 q 235 733 227 746 q 249 700 243 720 q 264 653 254 680 q 277 629 269 642 q 290 602 285 617 q 296 570 294 587 q 302 536 297 553 q 322 485 312 507 q 341 442 332 463 q 359 398 351 421 q 372 343 367 375 q 399 396 389 367 q 419 457 410 426 q 437 520 428 489 q 461 579 447 551 q 473 597 467 589 q 484 614 480 606 q 489 650 488 629 q 494 689 490 671 q 510 720 498 707 q 550 733 522 733 q 580 727 566 733 q 604 709 593 720 q 620 684 614 699 q 625 652 625 669 l 625 640 z "},"w":{"ha":895,"x_min":1,"x_max":875,"o":"m 875 669 q 870 646 875 657 q 863 618 866 635 q 856 571 859 598 q 848 515 853 545 q 843 488 846 500 q 837 465 840 476 q 831 441 833 453 q 829 415 829 429 q 827 391 829 401 q 822 372 825 380 q 816 355 819 363 q 814 336 814 347 q 814 323 814 330 q 815 311 815 317 q 810 276 815 293 q 799 244 805 260 q 787 215 792 229 q 782 186 782 200 q 783 172 782 178 q 783 158 783 165 q 774 114 783 130 q 751 91 766 98 q 717 80 736 83 q 677 74 698 77 q 645 68 663 71 q 610 65 627 65 q 568 78 584 65 q 536 119 552 92 q 497 187 519 146 q 437 283 475 228 q 418 250 425 268 q 408 211 412 231 q 400 168 404 191 q 390 121 397 145 q 384 111 389 115 q 378 98 379 106 q 370 78 374 89 q 358 57 366 67 q 338 41 351 47 q 304 35 325 35 q 279 37 293 35 q 243 39 264 39 q 219 37 229 39 q 199 36 208 36 q 179 41 185 36 q 171 55 174 45 q 166 79 168 64 q 158 113 164 93 q 145 144 153 130 q 134 172 138 159 q 125 207 128 189 q 118 242 121 224 q 112 277 115 260 q 103 310 109 294 q 84 338 96 328 q 68 361 73 349 q 57 391 62 374 q 47 426 52 408 q 37 463 43 444 q 25 498 32 481 q 19 513 23 504 q 11 534 15 523 q 4 558 7 546 q 1 583 1 571 q 12 615 1 604 q 38 632 22 626 q 72 642 54 638 q 107 653 91 646 q 137 670 125 661 q 159 685 148 678 q 183 697 170 692 q 218 701 197 701 q 256 698 242 701 q 277 688 270 695 q 285 671 283 682 q 287 646 287 661 q 288 613 288 631 q 292 571 288 594 q 306 486 299 529 q 317 404 313 443 q 343 438 334 417 q 359 483 353 459 q 371 530 365 506 q 389 572 378 553 q 420 603 401 591 q 472 615 439 615 q 508 603 493 615 q 533 574 522 591 q 553 536 544 557 q 571 498 562 515 q 609 433 590 463 q 647 378 627 404 q 654 445 652 412 q 656 511 656 477 q 655 538 656 525 q 654 566 654 552 q 654 635 654 598 q 660 704 654 672 q 679 757 665 736 q 720 778 692 778 q 749 775 732 778 q 781 769 765 772 q 809 760 797 765 q 828 751 822 755 q 839 739 831 749 q 854 716 846 729 q 868 690 862 703 q 875 669 874 677 z "},"x":{"ha":653,"x_min":12,"x_max":664,"o":"m 664 125 q 653 99 663 114 q 631 70 644 84 q 605 43 618 56 q 583 26 591 31 q 553 13 568 17 q 522 8 538 8 q 458 31 488 8 q 447 46 453 35 q 433 65 441 57 q 412 83 424 73 q 387 105 399 94 q 364 127 375 116 q 347 150 353 139 q 333 180 340 162 q 317 214 325 197 q 301 241 309 230 q 286 253 294 253 q 276 244 281 253 q 261 220 271 235 q 252 211 258 213 q 244 203 247 208 q 241 188 241 195 q 240 176 242 180 q 230 171 237 172 q 218 164 222 170 q 207 145 213 157 q 194 119 201 132 q 180 93 187 105 q 167 74 174 81 q 152 64 161 68 q 132 52 142 60 q 106 33 121 43 q 74 24 92 24 q 56 28 66 24 q 36 39 45 32 q 19 57 26 46 q 12 79 12 67 q 18 96 12 87 q 25 117 24 105 q 45 183 31 151 q 90 240 59 215 q 107 251 98 248 q 123 262 117 255 q 149 298 139 278 q 171 343 158 317 q 177 352 173 347 q 184 363 180 357 q 191 373 188 368 q 193 382 193 378 q 191 390 193 387 q 186 395 189 393 q 179 400 183 397 q 171 408 176 403 q 160 422 165 416 q 152 435 156 429 q 144 449 149 442 q 132 464 139 456 q 119 473 127 469 q 107 481 111 476 q 94 509 98 492 q 81 541 89 526 q 61 567 71 556 q 41 586 50 577 q 27 605 33 595 q 21 628 21 614 q 37 662 21 650 q 77 675 53 675 q 122 662 104 675 q 155 630 140 648 q 183 592 170 612 q 214 558 197 572 q 228 548 220 553 q 245 536 236 542 q 261 527 254 531 q 273 524 269 524 q 281 530 272 524 q 302 549 290 537 q 327 575 315 560 q 343 606 338 590 q 346 630 347 618 q 351 653 346 642 q 366 671 353 658 q 395 699 379 684 q 427 727 411 714 q 450 743 442 740 q 478 749 464 749 q 503 750 493 749 q 544 737 530 750 q 558 694 558 724 q 556 682 558 692 q 552 660 555 672 q 544 634 549 647 q 532 614 538 622 q 518 605 528 609 q 494 589 509 600 q 459 557 479 578 q 415 498 439 536 q 406 481 410 491 q 398 463 401 472 q 392 447 394 454 q 390 437 390 439 q 397 429 392 432 q 409 425 403 427 q 422 422 416 424 q 433 416 429 420 q 447 393 441 409 q 463 366 453 377 q 513 314 490 332 q 555 287 536 296 q 589 271 574 277 q 616 255 604 265 q 637 228 628 245 q 652 176 646 210 q 660 148 655 161 q 664 125 664 136 z "},"y":{"ha":704,"x_min":-26,"x_max":682,"o":"m 660 453 q 656 424 659 443 q 650 386 653 405 q 646 352 648 367 q 643 336 644 338 q 631 321 640 329 q 616 301 622 313 q 615 288 614 296 q 612 272 616 279 q 606 263 611 267 q 600 254 602 260 q 582 190 591 226 q 565 119 573 154 q 548 54 557 84 q 532 5 540 23 q 523 -7 528 -1 q 511 -19 517 -13 q 498 -32 505 -25 q 489 -46 492 -38 q 486 -59 487 -50 q 481 -75 484 -68 q 475 -84 478 -81 q 470 -92 473 -88 q 467 -98 468 -95 q 465 -107 465 -102 q 466 -115 465 -111 q 467 -122 467 -118 q 456 -145 467 -133 q 430 -169 446 -157 q 391 -191 413 -180 q 347 -210 370 -202 q 302 -223 324 -218 q 262 -228 280 -228 q 201 -212 236 -228 q 133 -175 167 -197 q 72 -130 100 -153 q 29 -93 43 -107 q 24 -80 27 -91 q 12 -58 21 -68 q -3 -46 5 -50 q -14 -37 -10 -41 q -26 4 -26 -16 q -20 41 -26 20 q -2 86 -14 62 q 25 132 9 109 q 58 172 40 154 q 94 201 75 190 q 132 212 113 212 q 163 205 149 212 q 189 182 178 197 q 194 164 193 176 q 201 143 195 153 q 218 126 207 134 q 235 109 229 119 q 250 78 245 94 q 261 53 254 62 q 275 38 267 46 q 292 22 283 29 q 309 10 300 15 q 325 5 318 5 q 341 17 334 7 q 354 39 348 26 q 364 63 359 51 q 372 83 368 76 q 381 99 375 89 q 395 120 388 109 q 406 142 401 131 q 411 161 411 153 q 400 177 411 170 q 373 189 389 183 q 340 200 357 195 q 309 212 322 205 q 243 258 267 234 q 202 308 218 281 q 173 363 186 334 q 142 427 160 393 q 129 445 136 436 q 115 465 121 454 q 103 487 109 477 q 94 507 98 497 q 84 529 90 517 q 72 555 79 541 q 61 575 67 564 q 48 598 54 586 q 38 622 42 610 q 33 644 33 633 q 48 677 33 666 q 81 688 63 688 q 121 677 104 688 q 150 649 137 667 q 176 610 163 632 q 205 564 189 587 q 223 545 214 553 q 244 532 233 538 q 267 521 255 526 q 292 509 279 515 q 302 497 297 504 q 313 486 307 490 q 330 479 320 482 q 343 473 339 477 q 364 448 353 463 q 385 415 374 432 q 407 381 396 398 q 430 350 418 363 q 453 328 441 336 q 475 319 464 319 q 479 330 477 320 q 484 356 481 340 q 488 390 486 371 q 491 426 490 408 q 494 458 493 444 q 494 481 494 473 q 492 501 494 488 q 488 526 490 513 q 483 550 485 539 q 481 566 481 562 q 482 573 482 569 q 482 583 482 578 q 481 607 482 594 q 481 627 481 619 q 490 651 481 642 q 513 667 499 661 q 543 678 527 673 q 574 690 559 683 q 588 697 579 693 q 606 704 597 701 q 624 710 615 707 q 639 713 633 713 q 650 704 644 713 q 660 682 655 696 q 669 652 665 669 q 676 620 673 636 q 681 590 679 604 q 682 568 682 576 q 679 541 682 557 q 672 509 676 526 q 665 478 669 493 q 660 453 661 463 z "},"z":{"ha":688,"x_min":-4,"x_max":671,"o":"m 671 32 q 666 10 671 20 q 653 -7 661 0 q 637 -19 646 -15 q 621 -24 628 -24 q 583 -20 604 -24 q 541 -16 562 -16 q 460 -19 505 -16 q 374 -27 416 -23 q 298 -35 332 -31 q 249 -39 264 -39 q 223 -37 236 -39 q 197 -36 210 -36 q 145 -43 167 -36 q 110 -50 124 -50 q 78 -41 92 -48 q 56 -23 65 -34 q 38 2 46 -12 q 24 32 31 16 q 15 50 20 40 q 6 70 10 59 q -1 91 2 80 q -4 114 -4 102 q 5 144 -4 134 q 27 162 14 155 q 57 175 41 169 q 87 191 73 180 q 130 225 111 206 q 169 267 150 245 q 207 311 187 288 q 248 358 226 334 q 271 377 257 369 q 294 396 285 385 q 304 414 300 402 q 315 435 308 425 q 334 458 322 444 q 357 488 346 473 q 377 516 369 503 q 386 536 386 530 q 375 542 386 542 q 359 541 369 542 q 338 541 349 541 q 315 542 328 541 q 287 546 302 544 q 256 550 272 548 q 225 551 241 551 q 181 547 204 551 q 135 543 158 543 q 113 545 123 543 q 94 554 102 547 q 80 573 85 560 q 75 607 75 585 q 87 636 76 622 q 117 660 99 650 q 157 677 134 671 q 203 684 179 684 q 251 681 224 684 q 306 675 278 678 q 359 669 334 672 q 403 667 385 667 q 435 668 418 667 q 472 671 453 669 q 509 673 490 672 q 543 675 527 675 q 570 674 562 675 q 586 669 579 673 q 599 655 592 665 q 619 628 606 646 q 634 611 625 620 q 651 591 643 602 q 665 569 659 581 q 671 545 671 557 q 659 510 671 529 q 630 471 647 491 q 596 433 614 451 q 568 400 579 414 q 542 364 555 382 q 517 328 529 345 q 502 313 511 319 q 488 297 493 306 q 479 276 481 289 q 469 254 477 264 q 453 239 463 245 q 436 225 442 233 q 415 199 425 212 q 396 172 406 186 q 378 142 387 158 q 358 109 369 127 q 399 101 379 104 q 440 95 420 98 q 482 92 460 93 q 528 90 504 90 q 546 91 537 90 q 564 92 554 92 q 606 88 586 92 q 640 78 625 85 q 663 59 654 71 q 671 32 671 48 z "},"{":{"ha":468,"x_min":-7,"x_max":485,"o":"m 478 903 q 476 851 476 875 q 470 811 475 828 q 452 784 465 793 q 410 774 438 774 q 375 780 393 774 q 336 786 357 786 q 311 781 325 786 q 285 767 297 776 q 265 744 273 758 q 257 714 257 730 q 260 694 257 705 q 267 671 263 684 q 274 645 271 659 q 277 616 277 631 q 276 603 277 609 q 275 590 275 597 q 281 551 275 572 q 288 514 288 531 q 286 502 288 509 q 281 489 285 495 q 270 478 277 482 q 252 473 262 473 q 247 474 250 473 q 241 475 243 475 q 229 468 236 475 q 214 454 221 461 q 203 440 208 446 q 199 435 199 433 q 205 424 199 431 q 218 412 211 418 q 233 401 226 406 q 241 396 240 397 q 250 394 246 394 q 258 393 254 393 l 273 393 q 294 380 286 393 q 306 351 302 368 q 310 318 309 334 q 311 293 311 301 q 296 252 302 275 q 281 207 289 228 q 268 179 275 193 q 255 152 261 166 q 245 123 249 138 q 241 90 241 109 q 243 61 241 75 q 245 35 245 46 q 242 7 245 18 q 233 -13 238 -4 q 225 -31 229 -22 q 221 -50 221 -40 q 234 -92 221 -79 q 268 -112 248 -105 q 312 -122 288 -119 q 358 -136 336 -126 q 381 -153 374 -144 q 389 -179 389 -161 q 382 -220 389 -206 q 367 -241 376 -235 q 346 -247 357 -247 q 323 -248 334 -248 q 294 -243 306 -248 q 270 -231 282 -238 q 244 -213 258 -223 q 207 -192 229 -203 q 166 -174 185 -182 q 132 -157 146 -167 q 109 -130 117 -146 q 100 -85 100 -113 q 102 -63 100 -74 q 104 -41 104 -53 q 100 -20 104 -31 q 96 3 96 -9 q 100 50 96 24 q 104 97 104 75 q 104 123 104 111 q 103 147 103 136 q 106 178 103 163 q 114 209 110 194 q 121 238 118 224 q 125 264 125 252 q 116 292 125 283 q 93 305 107 300 q 63 313 79 310 q 32 323 47 316 q 15 332 22 328 q 3 343 7 335 q -4 365 -2 351 q -7 406 -7 379 q 2 422 -7 414 q 23 436 10 429 q 52 449 36 443 q 83 462 68 455 q 110 477 98 469 q 126 494 121 485 q 135 522 132 505 q 138 557 138 539 q 135 585 138 574 q 126 606 132 596 q 115 625 121 615 q 100 650 108 635 q 94 669 96 659 q 87 688 93 680 q 76 700 83 694 q 61 711 68 705 q 48 726 54 717 q 43 749 43 734 q 47 767 43 760 q 58 781 52 774 q 71 793 64 787 q 83 808 78 800 q 95 833 90 819 q 106 864 100 848 q 119 896 113 880 q 135 924 126 911 q 154 944 141 933 q 174 966 166 954 q 185 991 182 981 q 194 1009 188 1002 q 215 1020 200 1016 q 261 1023 229 1023 q 308 1022 283 1023 q 353 1018 333 1020 q 399 1012 376 1016 q 441 1001 422 1008 q 473 983 460 994 q 485 957 485 972 q 482 928 485 943 q 478 903 479 913 z "},"|":{"ha":317,"x_min":49,"x_max":277,"o":"m 273 86 q 271 54 273 71 q 269 22 269 38 q 273 -37 269 -6 q 277 -92 277 -68 q 268 -124 277 -117 q 244 -131 260 -131 q 216 -128 232 -131 q 187 -123 201 -125 q 130 -122 152 -122 q 93 -116 107 -122 q 71 -93 79 -109 q 54 -43 62 -77 q 52 -27 52 -35 q 52 -12 52 -20 q 53 21 52 4 q 54 62 54 39 q 52 124 54 93 q 49 182 49 155 q 52 214 49 199 q 58 241 54 228 q 64 268 61 254 q 66 298 66 281 q 64 353 66 328 q 61 406 61 378 q 62 465 61 433 q 65 531 64 497 q 68 599 66 564 q 69 667 69 633 q 69 699 69 682 q 68 729 69 715 q 61 761 66 746 q 54 789 56 775 q 56 806 54 795 q 58 829 57 817 q 61 852 60 841 q 62 871 62 863 q 60 916 62 892 q 56 965 58 939 q 51 1018 53 990 q 49 1079 49 1046 q 52 1102 49 1093 q 59 1116 55 1111 q 69 1122 64 1120 q 79 1124 75 1124 l 81 1124 q 103 1128 91 1128 q 149 1116 123 1128 q 197 1084 174 1103 q 236 1041 220 1065 q 252 996 252 1018 q 250 980 252 989 q 245 961 248 971 q 241 940 243 951 q 239 918 239 928 q 243 885 239 901 q 248 859 248 869 q 245 834 248 846 q 240 809 243 822 q 236 782 238 796 q 233 750 233 767 q 238 645 233 699 q 247 538 242 591 q 257 434 252 486 q 261 335 261 382 q 258 293 261 313 q 254 254 254 272 q 257 239 254 245 q 262 225 259 232 q 267 212 264 218 q 269 196 269 205 q 267 172 269 184 q 265 147 265 160 q 269 116 265 130 q 273 86 273 102 z "},"}":{"ha":479,"x_min":-8,"x_max":468,"o":"m 468 667 q 465 656 468 661 q 459 644 463 650 q 454 631 456 637 q 452 616 452 624 q 454 605 452 611 q 456 595 456 599 q 451 581 456 593 q 440 553 446 568 q 427 522 433 537 q 416 498 420 507 q 406 488 413 493 q 396 473 399 482 q 391 455 391 465 q 386 435 391 444 q 369 407 378 418 q 359 386 359 395 q 365 372 359 376 q 378 368 370 369 q 396 368 387 368 q 414 364 406 368 q 428 350 422 360 q 433 321 433 340 q 429 288 433 300 q 416 271 424 277 q 397 265 408 266 q 374 264 386 264 l 339 264 q 320 258 326 262 q 315 248 315 254 q 320 232 315 241 q 330 215 324 224 q 341 199 336 207 q 349 186 347 191 q 356 158 353 172 q 361 129 359 143 q 366 101 363 115 q 374 75 369 87 q 380 61 376 67 q 387 49 384 54 q 393 39 391 43 q 396 29 396 34 q 387 -6 396 12 q 370 -46 378 -24 q 358 -89 362 -67 q 349 -126 355 -111 q 340 -141 345 -134 q 329 -155 334 -149 q 318 -168 323 -162 q 310 -179 313 -174 q 289 -211 296 -198 q 271 -231 282 -223 q 240 -241 260 -238 q 178 -244 219 -244 q 127 -243 158 -244 q 65 -235 96 -242 q 14 -212 35 -228 q -8 -165 -8 -195 q -5 -153 -8 -158 q 1 -144 -3 -149 q 7 -133 4 -139 q 9 -115 9 -126 q 7 -104 9 -110 q 5 -92 5 -99 q 13 -67 5 -80 q 26 -37 21 -54 q 31 -11 31 -22 q 33 8 31 0 q 41 21 35 16 q 61 28 47 26 q 74 27 64 28 q 97 25 84 26 q 124 23 111 24 q 146 20 138 22 q 157 14 153 18 q 166 8 161 11 q 177 2 170 5 q 193 0 183 0 q 225 1 214 0 q 240 5 236 3 q 244 11 244 8 q 244 18 244 14 q 238 45 244 31 q 232 74 232 60 l 232 92 q 226 119 232 102 q 213 153 220 135 q 198 187 205 170 q 189 216 191 204 q 188 229 188 220 q 187 249 187 238 q 190 272 187 264 q 196 283 192 279 q 207 291 201 288 q 220 301 213 294 q 231 319 225 311 q 239 331 235 326 q 244 336 243 336 q 231 351 243 345 q 204 364 218 357 q 177 380 189 371 q 165 403 165 389 q 171 426 165 415 q 182 447 176 437 q 196 467 189 457 q 207 486 203 477 q 217 518 213 500 q 228 550 220 535 q 238 570 233 562 q 245 585 242 578 q 251 597 249 591 q 254 611 253 603 q 247 640 254 624 q 236 675 240 655 q 233 697 233 688 q 231 713 232 706 q 229 729 230 721 q 224 749 227 737 q 217 774 220 759 q 209 804 214 789 q 197 830 204 819 q 178 840 190 840 q 156 839 168 840 q 132 835 144 837 q 109 831 119 833 q 90 829 98 829 q 61 833 74 830 q 40 843 49 836 q 26 861 31 850 q 21 892 21 873 q 27 912 21 906 q 42 921 33 918 q 62 924 52 923 q 82 928 73 924 q 108 939 92 930 q 140 957 123 948 q 172 974 157 966 q 196 981 186 981 q 205 980 200 981 q 215 979 210 979 q 229 981 223 979 q 241 986 235 983 q 251 991 246 989 q 262 993 256 993 q 289 982 273 991 q 321 959 304 972 q 351 930 337 945 q 374 903 366 915 q 381 881 379 895 q 390 856 382 868 q 414 811 401 836 q 440 761 428 787 q 460 711 452 736 q 468 667 468 687 z "},"~":{"ha":854,"x_min":50,"x_max":799,"o":"m 798 667 q 799 651 799 659 q 799 636 799 644 q 791 557 799 593 q 781 486 783 520 q 778 429 779 458 q 773 374 777 400 q 759 329 769 349 q 729 298 749 309 q 691 275 713 288 q 644 252 669 262 q 591 235 618 241 q 534 228 563 228 q 492 233 510 228 q 460 249 475 239 q 431 274 445 259 q 399 307 416 288 q 361 341 381 325 q 330 371 341 357 q 319 390 324 379 q 309 412 314 401 q 298 429 304 422 q 286 436 293 436 q 284 435 285 436 q 279 433 283 433 q 262 437 271 433 q 248 441 253 441 q 219 426 230 441 q 200 387 208 410 q 186 337 193 364 q 173 286 180 309 q 155 248 166 263 q 127 232 144 232 q 93 240 107 232 q 68 259 78 248 q 55 282 59 271 q 50 301 50 294 q 57 367 50 338 q 75 420 64 395 q 96 471 85 445 q 115 529 107 496 q 122 568 120 550 q 128 601 124 585 q 139 628 132 616 q 163 650 147 640 q 187 661 173 656 q 217 669 201 665 q 251 678 233 673 q 288 689 269 682 q 322 703 307 696 q 353 710 337 710 q 389 699 371 710 q 424 671 406 688 q 458 636 441 655 q 493 603 475 618 q 522 578 506 592 q 557 547 537 564 q 570 535 561 543 q 589 519 578 528 q 609 506 599 511 q 628 500 620 500 q 640 505 633 500 q 650 519 646 511 q 658 536 655 527 q 661 551 661 545 q 659 576 661 564 q 656 603 657 588 l 656 650 q 655 688 656 669 q 654 721 654 707 q 657 744 654 734 q 667 760 659 753 q 688 770 674 767 q 725 774 702 774 q 777 747 762 774 q 798 667 792 720 z "},"†":{"ha":554,"x_min":31,"x_max":530,"o":"m 526 764 q 516 751 523 755 q 501 737 509 747 q 483 711 490 723 q 464 692 475 700 q 432 679 452 684 q 375 675 412 675 q 360 674 368 675 q 344 673 351 674 q 332 669 337 671 q 328 663 328 667 q 332 650 328 659 q 340 632 336 642 q 350 614 345 623 q 355 600 354 605 q 357 583 357 591 q 358 567 358 575 q 356 520 358 544 q 352 472 354 496 q 348 425 350 448 q 346 382 346 402 q 349 302 346 343 q 351 211 351 260 q 351 168 351 189 q 350 126 350 147 q 352 94 350 110 q 355 61 353 78 q 360 23 357 43 q 364 -21 362 3 q 369 -58 366 -41 q 372 -82 372 -76 q 366 -95 371 -90 q 355 -106 361 -101 q 346 -116 350 -111 q 342 -127 342 -121 q 345 -143 342 -135 q 351 -160 347 -151 q 358 -177 355 -168 q 364 -193 362 -185 q 369 -224 368 -208 q 370 -257 370 -240 q 366 -308 370 -287 q 353 -341 363 -328 q 324 -360 342 -354 q 275 -366 305 -366 q 244 -364 260 -366 q 216 -360 229 -363 q 193 -355 203 -358 q 179 -347 183 -351 q 168 -327 174 -342 q 156 -292 161 -311 q 148 -254 151 -273 q 144 -224 144 -235 q 148 -208 144 -216 q 156 -192 152 -199 q 164 -177 161 -184 q 167 -161 168 -169 q 162 -139 167 -150 q 157 -114 157 -127 q 159 -85 157 -100 q 163 -56 161 -69 q 173 70 168 4 q 182 203 178 136 q 191 338 187 271 q 196 468 195 405 q 198 568 197 519 q 205 661 198 616 q 189 663 196 663 q 174 663 181 663 q 129 659 155 663 q 82 656 104 656 q 54 668 64 656 q 39 697 44 680 q 32 737 34 715 q 31 778 31 758 q 32 811 31 794 q 35 844 33 829 q 43 872 38 860 q 54 892 47 885 q 79 906 65 903 q 109 911 94 910 q 139 912 124 912 q 166 913 154 911 q 185 922 178 916 q 192 943 192 928 q 191 959 192 949 q 188 979 189 968 q 184 1001 186 990 q 183 1021 183 1012 q 188 1042 183 1030 q 192 1060 192 1055 q 186 1091 191 1078 q 182 1116 182 1104 q 186 1135 182 1126 q 198 1150 191 1144 q 215 1159 205 1156 q 235 1162 224 1162 q 265 1158 251 1162 q 290 1143 279 1154 q 307 1116 300 1133 q 313 1074 313 1099 l 313 1026 q 312 979 313 999 q 315 944 312 958 q 329 924 319 930 q 359 917 339 917 q 378 918 368 917 q 400 918 389 918 q 440 916 418 918 q 480 908 462 913 q 511 893 498 902 q 524 869 524 884 q 521 855 524 862 q 518 840 518 848 q 525 812 519 825 q 530 785 530 800 q 526 764 530 774 z "},"£":{"ha":884,"x_min":40,"x_max":856,"o":"m 856 271 l 856 264 q 847 235 856 249 q 829 201 838 220 q 815 163 821 182 q 804 134 810 145 q 759 61 779 88 q 716 21 739 35 q 664 3 693 7 q 591 -1 635 -1 q 560 -1 576 -1 q 529 0 545 0 q 488 -3 507 0 q 450 -8 468 -5 q 414 -14 431 -12 q 382 -17 397 -17 q 312 -13 347 -17 q 244 -8 277 -8 q 208 -10 229 -8 q 163 -12 186 -12 q 138 -11 149 -12 q 118 -5 127 -9 q 104 9 109 0 q 100 32 100 18 l 100 65 q 95 111 100 88 q 90 154 90 133 q 96 184 90 174 q 110 202 101 195 q 131 217 119 209 q 155 240 143 224 q 166 257 159 245 q 179 280 173 268 q 190 302 186 292 q 195 317 195 313 q 186 321 195 320 q 166 323 178 323 q 142 324 154 323 q 122 326 130 324 q 98 335 112 329 q 71 348 83 340 q 49 365 58 356 q 40 382 40 374 q 40 412 40 399 q 46 435 40 426 q 65 450 52 445 q 107 454 79 454 q 134 452 117 454 q 161 449 151 449 q 171 452 169 449 q 174 464 174 456 q 170 490 174 475 q 162 520 166 505 q 153 548 157 536 q 147 567 149 561 q 141 597 144 581 q 135 627 139 613 q 121 659 128 646 q 114 681 114 672 q 121 706 114 692 q 135 733 128 720 q 138 749 137 740 q 143 764 140 758 q 152 772 146 769 q 160 781 157 774 q 176 832 170 805 q 193 882 182 859 q 221 920 203 905 q 275 935 240 935 q 333 928 304 935 q 392 922 362 922 q 416 925 404 922 q 438 933 427 928 q 461 942 450 937 q 486 949 473 946 q 531 955 506 953 q 575 957 555 957 q 604 955 587 957 q 636 949 620 953 q 666 938 652 945 q 688 922 680 932 q 699 899 694 913 q 708 868 704 885 q 715 833 712 851 q 722 798 719 814 q 735 746 728 768 q 746 705 741 724 q 754 665 751 685 q 757 619 757 645 q 756 593 757 609 q 753 559 755 576 q 747 528 751 543 q 739 505 744 513 q 725 496 736 502 q 701 483 714 490 q 675 471 688 477 q 659 464 663 466 q 626 454 644 458 q 593 446 608 451 q 560 432 572 438 q 533 425 548 425 q 515 431 526 425 q 495 444 505 436 q 479 460 486 452 q 472 476 472 469 q 475 490 472 483 q 478 505 478 498 q 473 534 477 518 q 464 567 469 549 q 454 603 459 585 q 447 639 449 621 q 441 681 444 663 q 432 715 438 700 q 414 742 426 730 q 383 764 403 753 q 375 767 380 764 q 362 774 369 770 q 347 780 355 777 q 334 782 340 782 q 322 775 327 782 q 313 759 317 768 q 308 740 310 749 q 306 725 307 730 l 306 710 q 307 664 306 692 q 311 608 309 636 q 314 555 313 579 q 315 518 315 530 l 315 486 q 318 465 315 472 q 324 455 320 458 q 334 452 328 452 q 349 452 340 452 q 356 452 352 452 q 363 453 359 453 q 387 449 374 453 q 409 435 399 445 q 426 409 419 425 q 432 370 432 393 q 426 329 432 345 q 401 314 419 314 q 378 317 390 314 q 357 319 366 319 q 348 315 350 319 q 345 304 346 311 q 344 288 345 297 q 340 271 343 279 q 335 258 340 268 q 325 234 330 248 q 314 208 319 221 q 310 186 310 194 q 329 175 310 175 q 341 176 334 175 q 353 176 347 176 q 370 173 357 176 q 399 165 383 170 q 429 158 414 161 q 452 154 444 155 q 473 153 462 153 q 496 153 484 153 q 539 157 527 153 q 556 168 552 161 q 559 187 559 176 q 564 214 558 199 q 571 231 565 220 q 581 253 576 241 q 596 282 587 268 q 618 308 605 297 q 647 327 631 319 q 682 334 663 334 q 710 328 696 334 q 743 318 724 322 q 778 312 760 314 q 812 307 796 311 q 840 295 828 302 q 856 271 852 287 z "},"§":{"ha":812,"x_min":43,"x_max":782,"o":"m 781 236 q 772 202 779 220 q 758 166 766 184 q 744 130 751 148 q 733 98 736 113 q 729 70 730 83 q 728 47 728 58 q 727 27 728 37 q 722 7 726 17 q 709 -14 718 -3 q 686 -39 701 -25 q 675 -45 682 -43 q 661 -52 667 -46 q 652 -63 655 -57 q 643 -72 650 -70 q 587 -90 620 -85 q 517 -96 555 -96 q 411 -88 464 -96 q 318 -72 358 -81 q 244 -55 275 -63 q 190 -34 214 -47 q 141 -1 165 -21 q 86 52 117 19 q 61 79 69 68 q 50 99 53 90 q 46 121 46 109 q 46 154 46 134 q 48 189 46 174 q 53 219 50 205 q 58 248 56 233 q 60 279 60 262 q 57 303 60 292 q 51 327 54 315 q 45 351 48 339 q 43 378 43 363 q 47 405 43 393 q 61 427 51 418 q 90 440 72 435 q 134 446 107 446 q 150 444 142 446 q 166 439 157 441 q 184 434 174 436 q 207 432 195 432 l 225 432 q 271 422 250 432 q 309 396 293 412 q 335 361 326 380 q 345 325 345 342 q 342 293 345 311 q 340 258 340 276 q 344 227 340 250 q 356 175 348 203 q 379 122 365 148 q 412 82 393 96 q 428 70 419 77 q 448 54 437 62 q 471 41 458 47 q 496 36 483 36 q 525 51 503 36 q 569 93 546 66 q 609 153 591 119 q 627 224 627 186 q 618 256 627 238 q 602 292 610 274 q 582 334 591 313 q 556 375 572 355 q 512 413 539 395 q 441 446 486 431 q 378 464 411 455 q 310 485 345 472 q 280 498 294 490 q 253 511 267 507 q 222 517 237 515 q 191 519 206 518 q 163 523 176 520 q 138 532 149 525 q 99 571 116 545 q 82 632 82 597 q 84 654 82 646 q 92 671 87 663 q 105 688 97 679 q 125 713 113 697 q 134 725 128 718 q 145 741 140 733 q 155 756 151 749 q 158 764 159 762 q 145 772 157 768 q 120 783 134 777 q 94 793 106 788 q 78 803 81 799 q 60 834 65 817 q 56 871 56 851 q 61 922 56 896 q 76 973 67 948 q 94 1020 84 998 q 113 1058 104 1042 q 127 1084 121 1075 q 134 1095 134 1094 q 160 1112 142 1105 q 198 1124 178 1120 q 234 1131 217 1129 q 257 1133 250 1133 q 307 1131 277 1133 q 370 1124 336 1128 q 440 1118 404 1121 q 507 1116 475 1116 q 529 1117 519 1116 q 547 1118 538 1118 q 567 1115 559 1118 q 583 1108 575 1112 q 598 1098 590 1103 q 618 1089 606 1093 q 657 1079 634 1083 q 703 1068 681 1075 q 740 1049 725 1061 q 755 1017 755 1038 q 753 1004 755 1008 q 748 999 751 1001 q 741 995 745 997 q 733 986 737 992 q 727 967 728 978 q 721 949 726 956 q 694 915 706 925 q 665 905 682 905 q 641 908 657 905 q 607 915 625 911 q 569 923 588 918 q 536 930 551 927 q 511 939 524 933 q 486 951 498 945 q 460 963 473 957 q 433 974 447 970 q 403 980 418 978 q 374 986 387 982 q 352 993 364 989 q 326 1002 340 998 q 297 1008 312 1006 q 267 1011 281 1011 q 240 1008 254 1011 q 213 994 225 1004 q 192 964 200 983 q 183 914 183 945 q 200 896 183 904 q 241 883 216 888 q 294 873 265 877 q 347 867 323 869 q 388 864 372 865 q 403 863 404 863 q 467 850 433 857 q 528 832 502 842 q 559 813 543 825 q 591 793 575 802 q 623 775 610 782 q 643 763 635 769 q 660 748 652 757 q 677 725 667 740 q 694 703 687 711 q 701 679 701 694 q 686 620 701 648 q 653 571 671 593 q 621 533 635 549 q 606 511 606 518 q 611 500 606 507 q 626 485 617 493 q 644 470 635 477 q 661 460 654 463 q 671 456 666 457 q 683 455 677 456 q 695 452 689 454 q 708 446 702 450 q 717 430 713 442 q 729 407 722 418 q 746 381 736 396 q 763 348 755 366 q 777 308 771 330 q 782 262 782 286 q 782 249 782 256 q 781 236 782 242 m 532 614 q 541 650 541 634 q 524 685 541 674 q 482 702 507 696 q 429 709 457 707 q 378 717 401 711 q 357 724 368 719 q 333 733 345 728 q 309 741 321 737 q 288 745 298 745 q 281 744 284 745 q 275 742 279 743 q 260 725 271 740 q 240 690 250 709 q 222 652 230 671 q 215 625 215 634 q 223 612 215 618 q 243 600 231 605 q 268 590 255 594 q 292 583 281 585 q 319 580 304 581 q 350 580 334 580 q 382 579 366 580 q 412 575 398 578 q 425 570 418 574 q 439 563 432 566 q 453 556 446 559 q 468 553 460 553 q 481 560 472 553 q 501 577 491 567 q 520 597 511 587 q 532 614 529 608 z "}}}
